<?xml version="1.0" standalone="yes"?>
<!-- SVG graphic -->
<svg xmlns='http://www.w3.org/2000/svg' xmlns:xlink='http://www.w3.org/1999/xlink'
 version="1.1">
<rect x="0" y="0" width="6" height="200" stroke="black" stroke-width="1" fill="blue" opacity="1" tooltip="enable"><title>(0,51681)</title></rect><rect x="6" y="113.252" width="6" height="86.7476" stroke="black" stroke-width="1" fill="blue" opacity="1" tooltip="enable"><title>(0.037039,22416)</title></rect><rect x="12" y="135.798" width="6" height="64.2015" stroke="black" stroke-width="1" fill="blue" opacity="1" tooltip="enable"><title>(0.0740779,16590)</title></rect><rect x="18" y="150.299" width="6" height="49.701" stroke="black" stroke-width="1" fill="blue" opacity="1" tooltip="enable"><title>(0.111117,12843)</title></rect><rect x="24" y="161.425" width="6" height="38.5751" stroke="black" stroke-width="1" fill="blue" opacity="1" tooltip="enable"><title>(0.148156,9968)</title></rect><rect x="30" y="169.443" width="6" height="30.5567" stroke="black" stroke-width="1" fill="blue" opacity="1" tooltip="enable"><title>(0.185195,7896)</title></rect><rect x="36" y="176.363" width="6" height="23.6373" stroke="black" stroke-width="1" fill="blue" opacity="1" tooltip="enable"><title>(0.222234,6108)</title></rect><rect x="42" y="181.277" width="6" height="18.7225" stroke="black" stroke-width="1" fill="blue" opacity="1" tooltip="enable"><title>(0.259273,4838)</title></rect><rect x="48" y="185.561" width="6" height="14.4386" stroke="black" stroke-width="1" fill="blue" opacity="1" tooltip="enable"><title>(0.296312,3731)</title></rect><rect x="54" y="188.34" width="6" height="11.66" stroke="black" stroke-width="1" fill="blue" opacity="1" tooltip="enable"><title>(0.333351,3013)</title></rect><rect x="60" y="191.161" width="6" height="8.83884" stroke="black" stroke-width="1" fill="blue" opacity="1" tooltip="enable"><title>(0.37039,2284)</title></rect><rect x="66" y="193.146" width="6" height="6.85358" stroke="black" stroke-width="1" fill="blue" opacity="1" tooltip="enable"><title>(0.407429,1771)</title></rect><rect x="72" y="194.849" width="6" height="5.15083" stroke="black" stroke-width="1" fill="blue" opacity="1" tooltip="enable"><title>(0.444468,1331)</title></rect><rect x="78" y="195.91" width="6" height="4.09048" stroke="black" stroke-width="1" fill="blue" opacity="1" tooltip="enable"><title>(0.481507,1057)</title></rect><rect x="84" y="196.738" width="6" height="3.26232" stroke="black" stroke-width="1" fill="blue" opacity="1" tooltip="enable"><title>(0.518546,843)</title></rect><rect x="90" y="197.457" width="6" height="2.54252" stroke="black" stroke-width="1" fill="blue" opacity="1" tooltip="enable"><title>(0.555585,657)</title></rect><rect x="96" y="198.127" width="6" height="1.87303" stroke="black" stroke-width="1" fill="blue" opacity="1" tooltip="enable"><title>(0.592624,484)</title></rect><rect x="102" y="198.379" width="6" height="1.62149" stroke="black" stroke-width="1" fill="blue" opacity="1" tooltip="enable"><title>(0.629663,419)</title></rect><rect x="108" y="198.735" width="6" height="1.26546" stroke="black" stroke-width="1" fill="blue" opacity="1" tooltip="enable"><title>(0.666702,327)</title></rect><rect x="114" y="198.777" width="6" height="1.22289" stroke="black" stroke-width="1" fill="blue" opacity="1" tooltip="enable"><title>(0.70374,316)</title></rect><rect x="120" y="199.033" width="6" height="0.967474" stroke="black" stroke-width="1" fill="blue" opacity="1" tooltip="enable"><title>(0.740779,250)</title></rect><rect x="126" y="199.152" width="6" height="0.847507" stroke="black" stroke-width="1" fill="blue" opacity="1" tooltip="enable"><title>(0.777818,219)</title></rect><rect x="132" y="199.447" width="6" height="0.553395" stroke="black" stroke-width="1" fill="blue" opacity="1" tooltip="enable"><title>(0.814857,143)</title></rect><rect x="138" y="199.501" width="6" height="0.499216" stroke="black" stroke-width="1" fill="blue" opacity="1" tooltip="enable"><title>(0.851896,129)</title></rect><rect x="144" y="199.516" width="6" height="0.483737" stroke="black" stroke-width="1" fill="blue" opacity="1" tooltip="enable"><title>(0.888935,125)</title></rect><rect x="150" y="199.598" width="6" height="0.402469" stroke="black" stroke-width="1" fill="blue" opacity="1" tooltip="enable"><title>(0.925974,104)</title></rect><rect x="156" y="199.694" width="6" height="0.305722" stroke="black" stroke-width="1" fill="blue" opacity="1" tooltip="enable"><title>(0.963013,79)</title></rect><rect x="162" y="199.694" width="6" height="0.305722" stroke="black" stroke-width="1" fill="blue" opacity="1" tooltip="enable"><title>(1.00005,79)</title></rect><rect x="168" y="199.71" width="6" height="0.290242" stroke="black" stroke-width="1" fill="blue" opacity="1" tooltip="enable"><title>(1.03709,75)</title></rect><rect x="174" y="199.776" width="6" height="0.224454" stroke="black" stroke-width="1" fill="blue" opacity="1" tooltip="enable"><title>(1.07413,58)</title></rect><rect x="180" y="199.791" width="6" height="0.208974" stroke="black" stroke-width="1" fill="blue" opacity="1" tooltip="enable"><title>(1.11117,54)</title></rect><rect x="186" y="199.865" width="6" height="0.135446" stroke="black" stroke-width="1" fill="blue" opacity="1" tooltip="enable"><title>(1.14821,35)</title></rect><rect x="192" y="199.857" width="6" height="0.143186" stroke="black" stroke-width="1" fill="blue" opacity="1" tooltip="enable"><title>(1.18525,37)</title></rect><rect x="198" y="199.83" width="6" height="0.170275" stroke="black" stroke-width="1" fill="blue" opacity="1" tooltip="enable"><title>(1.22229,44)</title></rect><rect x="204" y="199.903" width="6" height="0.0967474" stroke="black" stroke-width="1" fill="blue" opacity="1" tooltip="enable"><title>(1.25933,25)</title></rect><rect x="210" y="199.888" width="6" height="0.112227" stroke="black" stroke-width="1" fill="blue" opacity="1" tooltip="enable"><title>(1.29636,29)</title></rect><rect x="216" y="199.888" width="6" height="0.112227" stroke="black" stroke-width="1" fill="blue" opacity="1" tooltip="enable"><title>(1.3334,29)</title></rect><rect x="222" y="199.93" width="6" height="0.0696581" stroke="black" stroke-width="1" fill="blue" opacity="1" tooltip="enable"><title>(1.37044,18)</title></rect><rect x="228" y="199.903" width="6" height="0.0967474" stroke="black" stroke-width="1" fill="blue" opacity="1" tooltip="enable"><title>(1.40748,25)</title></rect><rect x="234" y="199.942" width="6" height="0.0580484" stroke="black" stroke-width="1" fill="blue" opacity="1" tooltip="enable"><title>(1.44452,15)</title></rect><rect x="240" y="199.915" width="6" height="0.0851377" stroke="black" stroke-width="1" fill="blue" opacity="1" tooltip="enable"><title>(1.48156,22)</title></rect><rect x="246" y="199.946" width="6" height="0.0541785" stroke="black" stroke-width="1" fill="blue" opacity="1" tooltip="enable"><title>(1.5186,14)</title></rect><rect x="252" y="199.95" width="6" height="0.0503086" stroke="black" stroke-width="1" fill="blue" opacity="1" tooltip="enable"><title>(1.55564,13)</title></rect><rect x="258" y="199.954" width="6" height="0.0464387" stroke="black" stroke-width="1" fill="blue" opacity="1" tooltip="enable"><title>(1.59268,12)</title></rect><rect x="264" y="199.946" width="6" height="0.0541785" stroke="black" stroke-width="1" fill="blue" opacity="1" tooltip="enable"><title>(1.62971,14)</title></rect><rect x="270" y="199.957" width="6" height="0.0425688" stroke="black" stroke-width="1" fill="blue" opacity="1" tooltip="enable"><title>(1.66675,11)</title></rect><rect x="276" y="199.973" width="6" height="0.0270893" stroke="black" stroke-width="1" fill="blue" opacity="1" tooltip="enable"><title>(1.70379,7)</title></rect><rect x="282" y="199.961" width="6" height="0.0386989" stroke="black" stroke-width="1" fill="blue" opacity="1" tooltip="enable"><title>(1.74083,10)</title></rect><rect x="288" y="199.961" width="6" height="0.0386989" stroke="black" stroke-width="1" fill="blue" opacity="1" tooltip="enable"><title>(1.77787,10)</title></rect><rect x="294" y="199.973" width="6" height="0.0270893" stroke="black" stroke-width="1" fill="blue" opacity="1" tooltip="enable"><title>(1.81491,7)</title></rect><rect x="300" y="199.985" width="6" height="0.0154796" stroke="black" stroke-width="1" fill="blue" opacity="1" tooltip="enable"><title>(1.85195,4)</title></rect><rect x="306" y="199.969" width="6" height="0.0309592" stroke="black" stroke-width="1" fill="blue" opacity="1" tooltip="enable"><title>(1.88899,8)</title></rect><rect x="312" y="199.965" width="6" height="0.034829" stroke="black" stroke-width="1" fill="blue" opacity="1" tooltip="enable"><title>(1.92603,9)</title></rect><rect x="318" y="199.981" width="6" height="0.0193495" stroke="black" stroke-width="1" fill="blue" opacity="1" tooltip="enable"><title>(1.96307,5)</title></rect><rect x="324" y="199.985" width="6" height="0.0154796" stroke="black" stroke-width="1" fill="blue" opacity="1" tooltip="enable"><title>(2.0001,4)</title></rect><rect x="330" y="199.988" width="6" height="0.0116097" stroke="black" stroke-width="1" fill="blue" opacity="1" tooltip="enable"><title>(2.03714,3)</title></rect><rect x="336" y="199.988" width="6" height="0.0116097" stroke="black" stroke-width="1" fill="blue" opacity="1" tooltip="enable"><title>(2.07418,3)</title></rect><rect x="342" y="199.988" width="6" height="0.0116097" stroke="black" stroke-width="1" fill="blue" opacity="1" tooltip="enable"><title>(2.11122,3)</title></rect><rect x="348" y="199.996" width="6" height="0.00386989" stroke="black" stroke-width="1" fill="blue" opacity="1" tooltip="enable"><title>(2.14826,1)</title></rect><rect x="354" y="199.996" width="6" height="0.00386989" stroke="black" stroke-width="1" fill="blue" opacity="1" tooltip="enable"><title>(2.1853,1)</title></rect><rect x="360" y="199.988" width="6" height="0.0116097" stroke="black" stroke-width="1" fill="blue" opacity="1" tooltip="enable"><title>(2.22234,3)</title></rect><rect x="366" y="199.992" width="6" height="0.00773979" stroke="black" stroke-width="1" fill="blue" opacity="1" tooltip="enable"><title>(2.25938,2)</title></rect><rect x="372" y="199.985" width="6" height="0.0154796" stroke="black" stroke-width="1" fill="blue" opacity="1" tooltip="enable"><title>(2.29642,4)</title></rect><rect x="378" y="199.988" width="6" height="0.0116097" stroke="black" stroke-width="1" fill="blue" opacity="1" tooltip="enable"><title>(2.33346,3)</title></rect><rect x="384" y="199.988" width="6" height="0.0116097" stroke="black" stroke-width="1" fill="blue" opacity="1" tooltip="enable"><title>(2.37049,3)</title></rect><rect x="390" y="199.985" width="6" height="0.0154796" stroke="black" stroke-width="1" fill="blue" opacity="1" tooltip="enable"><title>(2.40753,4)</title></rect><rect x="396" y="199.992" width="6" height="0.00773979" stroke="black" stroke-width="1" fill="blue" opacity="1" tooltip="enable"><title>(2.44457,2)</title></rect><rect x="402" y="199.996" width="6" height="0.00386989" stroke="black" stroke-width="1" fill="blue" opacity="1" tooltip="enable"><title>(2.48161,1)</title></rect><rect x="408" y="199.996" width="6" height="0.00386989" stroke="black" stroke-width="1" fill="blue" opacity="1" tooltip="enable"><title>(2.51865,1)</title></rect><rect x="414" y="199.992" width="6" height="0.00773979" stroke="black" stroke-width="1" fill="blue" opacity="1" tooltip="enable"><title>(2.55569,2)</title></rect><rect x="420" y="199.988" width="6" height="0.0116097" stroke="black" stroke-width="1" fill="blue" opacity="1" tooltip="enable"><title>(2.59273,3)</title></rect><rect x="426" y="199.996" width="6" height="0.00386989" stroke="black" stroke-width="1" fill="blue" opacity="1" tooltip="enable"><title>(2.62977,1)</title></rect><rect x="432" y="199.992" width="6" height="0.00773979" stroke="black" stroke-width="1" fill="blue" opacity="1" tooltip="enable"><title>(2.66681,2)</title></rect><rect x="438" y="200" width="6" height="0" stroke="black" stroke-width="1" fill="blue" opacity="1" tooltip="enable"><title>(2.70385,0)</title></rect><rect x="444" y="200" width="6" height="0" stroke="black" stroke-width="1" fill="blue" opacity="1" tooltip="enable"><title>(2.74088,0)</title></rect><rect x="450" y="199.992" width="6" height="0.00773979" stroke="black" stroke-width="1" fill="blue" opacity="1" tooltip="enable"><title>(2.77792,2)</title></rect><rect x="456" y="199.988" width="6" height="0.0116097" stroke="black" stroke-width="1" fill="blue" opacity="1" tooltip="enable"><title>(2.81496,3)</title></rect><rect x="462" y="199.992" width="6" height="0.00773979" stroke="black" stroke-width="1" fill="blue" opacity="1" tooltip="enable"><title>(2.852,2)</title></rect><rect x="468" y="199.992" width="6" height="0.00773979" stroke="black" stroke-width="1" fill="blue" opacity="1" tooltip="enable"><title>(2.88904,2)</title></rect><rect x="474" y="200" width="6" height="0" stroke="black" stroke-width="1" fill="blue" opacity="1" tooltip="enable"><title>(2.92608,0)</title></rect><rect x="480" y="199.996" width="6" height="0.00386989" stroke="black" stroke-width="1" fill="blue" opacity="1" tooltip="enable"><title>(2.96312,1)</title></rect><rect x="486" y="200" width="6" height="0" stroke="black" stroke-width="1" fill="blue" opacity="1" tooltip="enable"><title>(3.00016,0)</title></rect><rect x="492" y="200" width="6" height="0" stroke="black" stroke-width="1" fill="blue" opacity="1" tooltip="enable"><title>(3.0372,0)</title></rect><rect x="498" y="199.996" width="6" height="0.00386989" stroke="black" stroke-width="1" fill="blue" opacity="1" tooltip="enable"><title>(3.07423,1)</title></rect><rect x="504" y="199.992" width="6" height="0.00773979" stroke="black" stroke-width="1" fill="blue" opacity="1" tooltip="enable"><title>(3.11127,2)</title></rect><rect x="510" y="200" width="6" height="0" stroke="black" stroke-width="1" fill="blue" opacity="1" tooltip="enable"><title>(3.14831,0)</title></rect><rect x="516" y="199.996" width="6" height="0.00386989" stroke="black" stroke-width="1" fill="blue" opacity="1" tooltip="enable"><title>(3.18535,1)</title></rect><rect x="522" y="200" width="6" height="0" stroke="black" stroke-width="1" fill="blue" opacity="1" tooltip="enable"><title>(3.22239,0)</title></rect><rect x="528" y="200" width="6" height="0" stroke="black" stroke-width="1" fill="blue" opacity="1" tooltip="enable"><title>(3.25943,0)</title></rect><rect x="534" y="199.992" width="6" height="0.00773979" stroke="black" stroke-width="1" fill="blue" opacity="1" tooltip="enable"><title>(3.29647,2)</title></rect><rect x="540" y="200" width="6" height="0" stroke="black" stroke-width="1" fill="blue" opacity="1" tooltip="enable"><title>(3.33351,0)</title></rect><rect x="546" y="199.996" width="6" height="0.00386989" stroke="black" stroke-width="1" fill="blue" opacity="1" tooltip="enable"><title>(3.37055,1)</title></rect><rect x="552" y="200" width="6" height="0" stroke="black" stroke-width="1" fill="blue" opacity="1" tooltip="enable"><title>(3.40759,0)</title></rect><rect x="558" y="199.996" width="6" height="0.00386989" stroke="black" stroke-width="1" fill="blue" opacity="1" tooltip="enable"><title>(3.44462,1)</title></rect><rect x="564" y="199.996" width="6" height="0.00386989" stroke="black" stroke-width="1" fill="blue" opacity="1" tooltip="enable"><title>(3.48166,1)</title></rect><rect x="570" y="200" width="6" height="0" stroke="black" stroke-width="1" fill="blue" opacity="1" tooltip="enable"><title>(3.5187,0)</title></rect><rect x="576" y="200" width="6" height="0" stroke="black" stroke-width="1" fill="blue" opacity="1" tooltip="enable"><title>(3.55574,0)</title></rect><rect x="582" y="200" width="6" height="0" stroke="black" stroke-width="1" fill="blue" opacity="1" tooltip="enable"><title>(3.59278,0)</title></rect><rect x="588" y="199.996" width="6" height="0.00386989" stroke="black" stroke-width="1" fill="blue" opacity="1" tooltip="enable"><title>(3.62982,1)</title></rect><rect x="594" y="200" width="6" height="0" stroke="black" stroke-width="1" fill="blue" opacity="1" tooltip="enable"><title>(3.66686,0)</title></rect><text x="30" y="240" font-size="20" fill="black">0</text>
<text x="600" y="240" font-size="20" fill="black">3.7039</text>
<polyline points="0,220,600,220" stroke="black" stroke-width="1" fill="none" opacity="1"/>
<text x="720" y="20" font-size="20" fill="black">51681</text>
<text x="720" y="200" font-size="20" fill="black">0</text>
<polyline points="660,0,660,200" stroke="black" stroke-width="1" fill="none" opacity="1"/>
</svg>