<?xml version="1.0" standalone="yes"?>
<!-- SVG graphic -->
<svg xmlns='http://www.w3.org/2000/svg' xmlns:xlink='http://www.w3.org/1999/xlink'
 version="1.1">
<rect x="0" y="0" width="6" height="200" stroke="black" stroke-width="1" fill="blue" opacity="1" tooltip="enable"><title>(0,47974)</title></rect><rect x="6" y="110.756" width="6" height="89.2442" stroke="black" stroke-width="1" fill="blue" opacity="1" tooltip="enable"><title>(0.0355336,21407)</title></rect><rect x="12" y="134.081" width="6" height="65.919" stroke="black" stroke-width="1" fill="blue" opacity="1" tooltip="enable"><title>(0.0710671,15812)</title></rect><rect x="18" y="148.043" width="6" height="51.9573" stroke="black" stroke-width="1" fill="blue" opacity="1" tooltip="enable"><title>(0.106601,12463)</title></rect><rect x="24" y="159.161" width="6" height="40.8388" stroke="black" stroke-width="1" fill="blue" opacity="1" tooltip="enable"><title>(0.142134,9796)</title></rect><rect x="30" y="167.578" width="6" height="32.4217" stroke="black" stroke-width="1" fill="blue" opacity="1" tooltip="enable"><title>(0.177668,7777)</title></rect><rect x="36" y="174.545" width="6" height="25.4555" stroke="black" stroke-width="1" fill="blue" opacity="1" tooltip="enable"><title>(0.213201,6106)</title></rect><rect x="42" y="179.847" width="6" height="20.1526" stroke="black" stroke-width="1" fill="blue" opacity="1" tooltip="enable"><title>(0.248735,4834)</title></rect><rect x="48" y="184.108" width="6" height="15.8919" stroke="black" stroke-width="1" fill="blue" opacity="1" tooltip="enable"><title>(0.284269,3812)</title></rect><rect x="54" y="187.472" width="6" height="12.5276" stroke="black" stroke-width="1" fill="blue" opacity="1" tooltip="enable"><title>(0.319802,3005)</title></rect><rect x="60" y="189.832" width="6" height="10.168" stroke="black" stroke-width="1" fill="blue" opacity="1" tooltip="enable"><title>(0.355336,2439)</title></rect><rect x="66" y="192.212" width="6" height="7.78755" stroke="black" stroke-width="1" fill="blue" opacity="1" tooltip="enable"><title>(0.390869,1868)</title></rect><rect x="72" y="193.984" width="6" height="6.01576" stroke="black" stroke-width="1" fill="blue" opacity="1" tooltip="enable"><title>(0.426403,1443)</title></rect><rect x="78" y="195.164" width="6" height="4.83595" stroke="black" stroke-width="1" fill="blue" opacity="1" tooltip="enable"><title>(0.461936,1160)</title></rect><rect x="84" y="196.206" width="6" height="3.79372" stroke="black" stroke-width="1" fill="blue" opacity="1" tooltip="enable"><title>(0.49747,910)</title></rect><rect x="90" y="197.123" width="6" height="2.87656" stroke="black" stroke-width="1" fill="blue" opacity="1" tooltip="enable"><title>(0.533004,690)</title></rect><rect x="96" y="197.611" width="6" height="2.38879" stroke="black" stroke-width="1" fill="blue" opacity="1" tooltip="enable"><title>(0.568537,573)</title></rect><rect x="102" y="198.111" width="6" height="1.88852" stroke="black" stroke-width="1" fill="blue" opacity="1" tooltip="enable"><title>(0.604071,453)</title></rect><rect x="108" y="198.387" width="6" height="1.61337" stroke="black" stroke-width="1" fill="blue" opacity="1" tooltip="enable"><title>(0.639604,387)</title></rect><rect x="114" y="198.653" width="6" height="1.34656" stroke="black" stroke-width="1" fill="blue" opacity="1" tooltip="enable"><title>(0.675138,323)</title></rect><rect x="120" y="198.899" width="6" height="1.1006" stroke="black" stroke-width="1" fill="blue" opacity="1" tooltip="enable"><title>(0.710671,264)</title></rect><rect x="126" y="199.066" width="6" height="0.933839" stroke="black" stroke-width="1" fill="blue" opacity="1" tooltip="enable"><title>(0.746205,224)</title></rect><rect x="132" y="199.204" width="6" height="0.796265" stroke="black" stroke-width="1" fill="blue" opacity="1" tooltip="enable"><title>(0.781739,191)</title></rect><rect x="138" y="199.416" width="6" height="0.583649" stroke="black" stroke-width="1" fill="blue" opacity="1" tooltip="enable"><title>(0.817272,140)</title></rect><rect x="144" y="199.512" width="6" height="0.487764" stroke="black" stroke-width="1" fill="blue" opacity="1" tooltip="enable"><title>(0.852806,117)</title></rect><rect x="150" y="199.479" width="6" height="0.521116" stroke="black" stroke-width="1" fill="blue" opacity="1" tooltip="enable"><title>(0.888339,125)</title></rect><rect x="156" y="199.571" width="6" height="0.429399" stroke="black" stroke-width="1" fill="blue" opacity="1" tooltip="enable"><title>(0.923873,103)</title></rect><rect x="162" y="199.737" width="6" height="0.262642" stroke="black" stroke-width="1" fill="blue" opacity="1" tooltip="enable"><title>(0.959406,63)</title></rect><rect x="168" y="199.712" width="6" height="0.287656" stroke="black" stroke-width="1" fill="blue" opacity="1" tooltip="enable"><title>(0.99494,69)</title></rect><rect x="174" y="199.721" width="6" height="0.279318" stroke="black" stroke-width="1" fill="blue" opacity="1" tooltip="enable"><title>(1.03047,67)</title></rect><rect x="180" y="199.712" width="6" height="0.287656" stroke="black" stroke-width="1" fill="blue" opacity="1" tooltip="enable"><title>(1.06601,69)</title></rect><rect x="186" y="199.787" width="6" height="0.212615" stroke="black" stroke-width="1" fill="blue" opacity="1" tooltip="enable"><title>(1.10154,51)</title></rect><rect x="192" y="199.833" width="6" height="0.166757" stroke="black" stroke-width="1" fill="blue" opacity="1" tooltip="enable"><title>(1.13707,40)</title></rect><rect x="198" y="199.871" width="6" height="0.129237" stroke="black" stroke-width="1" fill="blue" opacity="1" tooltip="enable"><title>(1.17261,31)</title></rect><rect x="204" y="199.842" width="6" height="0.158419" stroke="black" stroke-width="1" fill="blue" opacity="1" tooltip="enable"><title>(1.20814,38)</title></rect><rect x="210" y="199.837" width="6" height="0.162588" stroke="black" stroke-width="1" fill="blue" opacity="1" tooltip="enable"><title>(1.24367,39)</title></rect><rect x="216" y="199.875" width="6" height="0.125068" stroke="black" stroke-width="1" fill="blue" opacity="1" tooltip="enable"><title>(1.27921,30)</title></rect><rect x="222" y="199.879" width="6" height="0.120899" stroke="black" stroke-width="1" fill="blue" opacity="1" tooltip="enable"><title>(1.31474,29)</title></rect><rect x="228" y="199.925" width="6" height="0.0750406" stroke="black" stroke-width="1" fill="blue" opacity="1" tooltip="enable"><title>(1.35028,18)</title></rect><rect x="234" y="199.912" width="6" height="0.0875474" stroke="black" stroke-width="1" fill="blue" opacity="1" tooltip="enable"><title>(1.38581,21)</title></rect><rect x="240" y="199.925" width="6" height="0.0750406" stroke="black" stroke-width="1" fill="blue" opacity="1" tooltip="enable"><title>(1.42134,18)</title></rect><rect x="246" y="199.912" width="6" height="0.0875474" stroke="black" stroke-width="1" fill="blue" opacity="1" tooltip="enable"><title>(1.45688,21)</title></rect><rect x="252" y="199.908" width="6" height="0.0917163" stroke="black" stroke-width="1" fill="blue" opacity="1" tooltip="enable"><title>(1.49241,22)</title></rect><rect x="258" y="199.946" width="6" height="0.054196" stroke="black" stroke-width="1" fill="blue" opacity="1" tooltip="enable"><title>(1.52794,13)</title></rect><rect x="264" y="199.946" width="6" height="0.054196" stroke="black" stroke-width="1" fill="blue" opacity="1" tooltip="enable"><title>(1.56348,13)</title></rect><rect x="270" y="199.954" width="6" height="0.0458582" stroke="black" stroke-width="1" fill="blue" opacity="1" tooltip="enable"><title>(1.59901,11)</title></rect><rect x="276" y="199.967" width="6" height="0.0333514" stroke="black" stroke-width="1" fill="blue" opacity="1" tooltip="enable"><title>(1.63454,8)</title></rect><rect x="282" y="199.967" width="6" height="0.0333514" stroke="black" stroke-width="1" fill="blue" opacity="1" tooltip="enable"><title>(1.67008,8)</title></rect><rect x="288" y="199.967" width="6" height="0.0333514" stroke="black" stroke-width="1" fill="blue" opacity="1" tooltip="enable"><title>(1.70561,8)</title></rect><rect x="294" y="199.954" width="6" height="0.0458582" stroke="black" stroke-width="1" fill="blue" opacity="1" tooltip="enable"><title>(1.74114,11)</title></rect><rect x="300" y="199.971" width="6" height="0.0291825" stroke="black" stroke-width="1" fill="blue" opacity="1" tooltip="enable"><title>(1.77668,7)</title></rect><rect x="306" y="199.933" width="6" height="0.0667028" stroke="black" stroke-width="1" fill="blue" opacity="1" tooltip="enable"><title>(1.81221,16)</title></rect><rect x="312" y="199.979" width="6" height="0.0208446" stroke="black" stroke-width="1" fill="blue" opacity="1" tooltip="enable"><title>(1.84775,5)</title></rect><rect x="318" y="199.992" width="6" height="0.00833785" stroke="black" stroke-width="1" fill="blue" opacity="1" tooltip="enable"><title>(1.88328,2)</title></rect><rect x="324" y="199.967" width="6" height="0.0333514" stroke="black" stroke-width="1" fill="blue" opacity="1" tooltip="enable"><title>(1.91881,8)</title></rect><rect x="330" y="199.975" width="6" height="0.0250135" stroke="black" stroke-width="1" fill="blue" opacity="1" tooltip="enable"><title>(1.95435,6)</title></rect><rect x="336" y="199.975" width="6" height="0.0250135" stroke="black" stroke-width="1" fill="blue" opacity="1" tooltip="enable"><title>(1.98988,6)</title></rect><rect x="342" y="199.979" width="6" height="0.0208446" stroke="black" stroke-width="1" fill="blue" opacity="1" tooltip="enable"><title>(2.02541,5)</title></rect><rect x="348" y="199.992" width="6" height="0.00833785" stroke="black" stroke-width="1" fill="blue" opacity="1" tooltip="enable"><title>(2.06095,2)</title></rect><rect x="354" y="199.992" width="6" height="0.00833785" stroke="black" stroke-width="1" fill="blue" opacity="1" tooltip="enable"><title>(2.09648,2)</title></rect><rect x="360" y="199.987" width="6" height="0.0125068" stroke="black" stroke-width="1" fill="blue" opacity="1" tooltip="enable"><title>(2.13201,3)</title></rect><rect x="366" y="199.987" width="6" height="0.0125068" stroke="black" stroke-width="1" fill="blue" opacity="1" tooltip="enable"><title>(2.16755,3)</title></rect><rect x="372" y="199.992" width="6" height="0.00833785" stroke="black" stroke-width="1" fill="blue" opacity="1" tooltip="enable"><title>(2.20308,2)</title></rect><rect x="378" y="199.992" width="6" height="0.00833785" stroke="black" stroke-width="1" fill="blue" opacity="1" tooltip="enable"><title>(2.23861,2)</title></rect><rect x="384" y="199.996" width="6" height="0.00416892" stroke="black" stroke-width="1" fill="blue" opacity="1" tooltip="enable"><title>(2.27415,1)</title></rect><rect x="390" y="199.987" width="6" height="0.0125068" stroke="black" stroke-width="1" fill="blue" opacity="1" tooltip="enable"><title>(2.30968,3)</title></rect><rect x="396" y="199.987" width="6" height="0.0125068" stroke="black" stroke-width="1" fill="blue" opacity="1" tooltip="enable"><title>(2.34522,3)</title></rect><rect x="402" y="199.987" width="6" height="0.0125068" stroke="black" stroke-width="1" fill="blue" opacity="1" tooltip="enable"><title>(2.38075,3)</title></rect><rect x="408" y="199.996" width="6" height="0.00416892" stroke="black" stroke-width="1" fill="blue" opacity="1" tooltip="enable"><title>(2.41628,1)</title></rect><rect x="414" y="199.996" width="6" height="0.00416892" stroke="black" stroke-width="1" fill="blue" opacity="1" tooltip="enable"><title>(2.45182,1)</title></rect><rect x="420" y="199.992" width="6" height="0.00833785" stroke="black" stroke-width="1" fill="blue" opacity="1" tooltip="enable"><title>(2.48735,2)</title></rect><rect x="426" y="200" width="6" height="0" stroke="black" stroke-width="1" fill="blue" opacity="1" tooltip="enable"><title>(2.52288,0)</title></rect><rect x="432" y="199.996" width="6" height="0.00416892" stroke="black" stroke-width="1" fill="blue" opacity="1" tooltip="enable"><title>(2.55842,1)</title></rect><rect x="438" y="199.987" width="6" height="0.0125068" stroke="black" stroke-width="1" fill="blue" opacity="1" tooltip="enable"><title>(2.59395,3)</title></rect><rect x="444" y="199.992" width="6" height="0.00833785" stroke="black" stroke-width="1" fill="blue" opacity="1" tooltip="enable"><title>(2.62948,2)</title></rect><rect x="450" y="199.983" width="6" height="0.0166757" stroke="black" stroke-width="1" fill="blue" opacity="1" tooltip="enable"><title>(2.66502,4)</title></rect><rect x="456" y="199.992" width="6" height="0.00833785" stroke="black" stroke-width="1" fill="blue" opacity="1" tooltip="enable"><title>(2.70055,2)</title></rect><rect x="462" y="199.992" width="6" height="0.00833785" stroke="black" stroke-width="1" fill="blue" opacity="1" tooltip="enable"><title>(2.73608,2)</title></rect><rect x="468" y="199.987" width="6" height="0.0125068" stroke="black" stroke-width="1" fill="blue" opacity="1" tooltip="enable"><title>(2.77162,3)</title></rect><rect x="474" y="199.996" width="6" height="0.00416892" stroke="black" stroke-width="1" fill="blue" opacity="1" tooltip="enable"><title>(2.80715,1)</title></rect><rect x="480" y="199.996" width="6" height="0.00416892" stroke="black" stroke-width="1" fill="blue" opacity="1" tooltip="enable"><title>(2.84269,1)</title></rect><rect x="486" y="199.996" width="6" height="0.00416892" stroke="black" stroke-width="1" fill="blue" opacity="1" tooltip="enable"><title>(2.87822,1)</title></rect><rect x="492" y="199.992" width="6" height="0.00833785" stroke="black" stroke-width="1" fill="blue" opacity="1" tooltip="enable"><title>(2.91375,2)</title></rect><rect x="498" y="199.996" width="6" height="0.00416892" stroke="black" stroke-width="1" fill="blue" opacity="1" tooltip="enable"><title>(2.94929,1)</title></rect><rect x="504" y="199.992" width="6" height="0.00833785" stroke="black" stroke-width="1" fill="blue" opacity="1" tooltip="enable"><title>(2.98482,2)</title></rect><rect x="510" y="199.996" width="6" height="0.00416892" stroke="black" stroke-width="1" fill="blue" opacity="1" tooltip="enable"><title>(3.02035,1)</title></rect><rect x="516" y="199.992" width="6" height="0.00833785" stroke="black" stroke-width="1" fill="blue" opacity="1" tooltip="enable"><title>(3.05589,2)</title></rect><rect x="522" y="199.992" width="6" height="0.00833785" stroke="black" stroke-width="1" fill="blue" opacity="1" tooltip="enable"><title>(3.09142,2)</title></rect><rect x="528" y="200" width="6" height="0" stroke="black" stroke-width="1" fill="blue" opacity="1" tooltip="enable"><title>(3.12695,0)</title></rect><rect x="534" y="200" width="6" height="0" stroke="black" stroke-width="1" fill="blue" opacity="1" tooltip="enable"><title>(3.16249,0)</title></rect><rect x="540" y="200" width="6" height="0" stroke="black" stroke-width="1" fill="blue" opacity="1" tooltip="enable"><title>(3.19802,0)</title></rect><rect x="546" y="199.996" width="6" height="0.00416892" stroke="black" stroke-width="1" fill="blue" opacity="1" tooltip="enable"><title>(3.23355,1)</title></rect><rect x="552" y="200" width="6" height="0" stroke="black" stroke-width="1" fill="blue" opacity="1" tooltip="enable"><title>(3.26909,0)</title></rect><rect x="558" y="200" width="6" height="0" stroke="black" stroke-width="1" fill="blue" opacity="1" tooltip="enable"><title>(3.30462,0)</title></rect><rect x="564" y="200" width="6" height="0" stroke="black" stroke-width="1" fill="blue" opacity="1" tooltip="enable"><title>(3.34016,0)</title></rect><rect x="570" y="200" width="6" height="0" stroke="black" stroke-width="1" fill="blue" opacity="1" tooltip="enable"><title>(3.37569,0)</title></rect><rect x="576" y="200" width="6" height="0" stroke="black" stroke-width="1" fill="blue" opacity="1" tooltip="enable"><title>(3.41122,0)</title></rect><rect x="582" y="200" width="6" height="0" stroke="black" stroke-width="1" fill="blue" opacity="1" tooltip="enable"><title>(3.44676,0)</title></rect><rect x="588" y="199.996" width="6" height="0.00416892" stroke="black" stroke-width="1" fill="blue" opacity="1" tooltip="enable"><title>(3.48229,1)</title></rect><rect x="594" y="200" width="6" height="0" stroke="black" stroke-width="1" fill="blue" opacity="1" tooltip="enable"><title>(3.51782,0)</title></rect><text x="30" y="240" font-size="20" fill="black">0</text>
<text x="600" y="240" font-size="20" fill="black">3.55336</text>
<polyline points="0,220,600,220" stroke="black" stroke-width="1" fill="none" opacity="1"/>
<text x="720" y="20" font-size="20" fill="black">47974</text>
<text x="720" y="200" font-size="20" fill="black">0</text>
<polyline points="660,0,660,200" stroke="black" stroke-width="1" fill="none" opacity="1"/>
</svg>