<?xml version="1.0" standalone="yes"?>
<!-- SVG graphic -->
<svg xmlns='http://www.w3.org/2000/svg' xmlns:xlink='http://www.w3.org/1999/xlink'
 version="1.1">
<rect x="0" y="0" width="6" height="200" stroke="black" stroke-width="1" fill="blue" opacity="1" tooltip="enable"><title>(0,28592)</title></rect><rect x="6" y="102.399" width="6" height="97.6007" stroke="black" stroke-width="1" fill="blue" opacity="1" tooltip="enable"><title>(0.0387873,13953)</title></rect><rect x="12" y="125.28" width="6" height="74.7202" stroke="black" stroke-width="1" fill="blue" opacity="1" tooltip="enable"><title>(0.0775747,10682)</title></rect><rect x="18" y="142.138" width="6" height="57.8623" stroke="black" stroke-width="1" fill="blue" opacity="1" tooltip="enable"><title>(0.116362,8272)</title></rect><rect x="24" y="155.932" width="6" height="44.0683" stroke="black" stroke-width="1" fill="blue" opacity="1" tooltip="enable"><title>(0.155149,6300)</title></rect><rect x="30" y="165.487" width="6" height="34.5131" stroke="black" stroke-width="1" fill="blue" opacity="1" tooltip="enable"><title>(0.193937,4934)</title></rect><rect x="36" y="174" width="6" height="26.0003" stroke="black" stroke-width="1" fill="blue" opacity="1" tooltip="enable"><title>(0.232724,3717)</title></rect><rect x="42" y="179.267" width="6" height="20.7331" stroke="black" stroke-width="1" fill="blue" opacity="1" tooltip="enable"><title>(0.271511,2964)</title></rect><rect x="48" y="183.163" width="6" height="16.8369" stroke="black" stroke-width="1" fill="blue" opacity="1" tooltip="enable"><title>(0.310299,2407)</title></rect><rect x="54" y="187.052" width="6" height="12.9477" stroke="black" stroke-width="1" fill="blue" opacity="1" tooltip="enable"><title>(0.349086,1851)</title></rect><rect x="60" y="189.745" width="6" height="10.2546" stroke="black" stroke-width="1" fill="blue" opacity="1" tooltip="enable"><title>(0.387873,1466)</title></rect><rect x="66" y="192.005" width="6" height="7.99524" stroke="black" stroke-width="1" fill="blue" opacity="1" tooltip="enable"><title>(0.426661,1143)</title></rect><rect x="72" y="193.502" width="6" height="6.49832" stroke="black" stroke-width="1" fill="blue" opacity="1" tooltip="enable"><title>(0.465448,929)</title></rect><rect x="78" y="194.649" width="6" height="5.35115" stroke="black" stroke-width="1" fill="blue" opacity="1" tooltip="enable"><title>(0.504235,765)</title></rect><rect x="84" y="195.523" width="6" height="4.47678" stroke="black" stroke-width="1" fill="blue" opacity="1" tooltip="enable"><title>(0.543023,640)</title></rect><rect x="90" y="196.607" width="6" height="3.39256" stroke="black" stroke-width="1" fill="blue" opacity="1" tooltip="enable"><title>(0.58181,485)</title></rect><rect x="96" y="196.929" width="6" height="3.07079" stroke="black" stroke-width="1" fill="blue" opacity="1" tooltip="enable"><title>(0.620597,439)</title></rect><rect x="102" y="197.51" width="6" height="2.49021" stroke="black" stroke-width="1" fill="blue" opacity="1" tooltip="enable"><title>(0.659385,356)</title></rect><rect x="108" y="197.748" width="6" height="2.25238" stroke="black" stroke-width="1" fill="blue" opacity="1" tooltip="enable"><title>(0.698172,322)</title></rect><rect x="114" y="198.069" width="6" height="1.93061" stroke="black" stroke-width="1" fill="blue" opacity="1" tooltip="enable"><title>(0.736959,276)</title></rect><rect x="120" y="198.489" width="6" height="1.51091" stroke="black" stroke-width="1" fill="blue" opacity="1" tooltip="enable"><title>(0.775747,216)</title></rect><rect x="126" y="198.664" width="6" height="1.33604" stroke="black" stroke-width="1" fill="blue" opacity="1" tooltip="enable"><title>(0.814534,191)</title></rect><rect x="132" y="198.846" width="6" height="1.15417" stroke="black" stroke-width="1" fill="blue" opacity="1" tooltip="enable"><title>(0.853321,165)</title></rect><rect x="138" y="198.909" width="6" height="1.09121" stroke="black" stroke-width="1" fill="blue" opacity="1" tooltip="enable"><title>(0.892109,156)</title></rect><rect x="144" y="199.189" width="6" height="0.811416" stroke="black" stroke-width="1" fill="blue" opacity="1" tooltip="enable"><title>(0.930896,116)</title></rect><rect x="150" y="199.147" width="6" height="0.853386" stroke="black" stroke-width="1" fill="blue" opacity="1" tooltip="enable"><title>(0.969683,122)</title></rect><rect x="156" y="199.412" width="6" height="0.587577" stroke="black" stroke-width="1" fill="blue" opacity="1" tooltip="enable"><title>(1.00847,84)</title></rect><rect x="162" y="199.44" width="6" height="0.559597" stroke="black" stroke-width="1" fill="blue" opacity="1" tooltip="enable"><title>(1.04726,80)</title></rect><rect x="168" y="199.44" width="6" height="0.559597" stroke="black" stroke-width="1" fill="blue" opacity="1" tooltip="enable"><title>(1.08605,80)</title></rect><rect x="174" y="199.573" width="6" height="0.426693" stroke="black" stroke-width="1" fill="blue" opacity="1" tooltip="enable"><title>(1.12483,61)</title></rect><rect x="180" y="199.636" width="6" height="0.363738" stroke="black" stroke-width="1" fill="blue" opacity="1" tooltip="enable"><title>(1.16362,52)</title></rect><rect x="186" y="199.636" width="6" height="0.363738" stroke="black" stroke-width="1" fill="blue" opacity="1" tooltip="enable"><title>(1.20241,52)</title></rect><rect x="192" y="199.671" width="6" height="0.328763" stroke="black" stroke-width="1" fill="blue" opacity="1" tooltip="enable"><title>(1.24119,47)</title></rect><rect x="198" y="199.727" width="6" height="0.272804" stroke="black" stroke-width="1" fill="blue" opacity="1" tooltip="enable"><title>(1.27998,39)</title></rect><rect x="204" y="199.741" width="6" height="0.258814" stroke="black" stroke-width="1" fill="blue" opacity="1" tooltip="enable"><title>(1.31877,37)</title></rect><rect x="210" y="199.748" width="6" height="0.251819" stroke="black" stroke-width="1" fill="blue" opacity="1" tooltip="enable"><title>(1.35756,36)</title></rect><rect x="216" y="199.846" width="6" height="0.153889" stroke="black" stroke-width="1" fill="blue" opacity="1" tooltip="enable"><title>(1.39634,22)</title></rect><rect x="222" y="199.776" width="6" height="0.223839" stroke="black" stroke-width="1" fill="blue" opacity="1" tooltip="enable"><title>(1.43513,32)</title></rect><rect x="228" y="199.881" width="6" height="0.118914" stroke="black" stroke-width="1" fill="blue" opacity="1" tooltip="enable"><title>(1.47392,17)</title></rect><rect x="234" y="199.783" width="6" height="0.216844" stroke="black" stroke-width="1" fill="blue" opacity="1" tooltip="enable"><title>(1.51271,31)</title></rect><rect x="240" y="199.895" width="6" height="0.104924" stroke="black" stroke-width="1" fill="blue" opacity="1" tooltip="enable"><title>(1.55149,15)</title></rect><rect x="246" y="199.916" width="6" height="0.0839396" stroke="black" stroke-width="1" fill="blue" opacity="1" tooltip="enable"><title>(1.59028,12)</title></rect><rect x="252" y="199.874" width="6" height="0.125909" stroke="black" stroke-width="1" fill="blue" opacity="1" tooltip="enable"><title>(1.62907,18)</title></rect><rect x="258" y="199.909" width="6" height="0.0909345" stroke="black" stroke-width="1" fill="blue" opacity="1" tooltip="enable"><title>(1.66786,13)</title></rect><rect x="264" y="199.916" width="6" height="0.0839396" stroke="black" stroke-width="1" fill="blue" opacity="1" tooltip="enable"><title>(1.70664,12)</title></rect><rect x="270" y="199.902" width="6" height="0.0979295" stroke="black" stroke-width="1" fill="blue" opacity="1" tooltip="enable"><title>(1.74543,14)</title></rect><rect x="276" y="199.909" width="6" height="0.0909345" stroke="black" stroke-width="1" fill="blue" opacity="1" tooltip="enable"><title>(1.78422,13)</title></rect><rect x="282" y="199.909" width="6" height="0.0909345" stroke="black" stroke-width="1" fill="blue" opacity="1" tooltip="enable"><title>(1.823,13)</title></rect><rect x="288" y="199.916" width="6" height="0.0839396" stroke="black" stroke-width="1" fill="blue" opacity="1" tooltip="enable"><title>(1.86179,12)</title></rect><rect x="294" y="199.93" width="6" height="0.0699496" stroke="black" stroke-width="1" fill="blue" opacity="1" tooltip="enable"><title>(1.90058,10)</title></rect><rect x="300" y="199.958" width="6" height="0.0419698" stroke="black" stroke-width="1" fill="blue" opacity="1" tooltip="enable"><title>(1.93937,6)</title></rect><rect x="306" y="199.93" width="6" height="0.0699496" stroke="black" stroke-width="1" fill="blue" opacity="1" tooltip="enable"><title>(1.97815,10)</title></rect><rect x="312" y="199.965" width="6" height="0.0349748" stroke="black" stroke-width="1" fill="blue" opacity="1" tooltip="enable"><title>(2.01694,5)</title></rect><rect x="318" y="199.93" width="6" height="0.0699496" stroke="black" stroke-width="1" fill="blue" opacity="1" tooltip="enable"><title>(2.05573,10)</title></rect><rect x="324" y="199.958" width="6" height="0.0419698" stroke="black" stroke-width="1" fill="blue" opacity="1" tooltip="enable"><title>(2.09452,6)</title></rect><rect x="330" y="199.923" width="6" height="0.0769446" stroke="black" stroke-width="1" fill="blue" opacity="1" tooltip="enable"><title>(2.1333,11)</title></rect><rect x="336" y="199.909" width="6" height="0.0909345" stroke="black" stroke-width="1" fill="blue" opacity="1" tooltip="enable"><title>(2.17209,13)</title></rect><rect x="342" y="199.958" width="6" height="0.0419698" stroke="black" stroke-width="1" fill="blue" opacity="1" tooltip="enable"><title>(2.21088,6)</title></rect><rect x="348" y="199.965" width="6" height="0.0349748" stroke="black" stroke-width="1" fill="blue" opacity="1" tooltip="enable"><title>(2.24967,5)</title></rect><rect x="354" y="199.972" width="6" height="0.0279799" stroke="black" stroke-width="1" fill="blue" opacity="1" tooltip="enable"><title>(2.28845,4)</title></rect><rect x="360" y="199.965" width="6" height="0.0349748" stroke="black" stroke-width="1" fill="blue" opacity="1" tooltip="enable"><title>(2.32724,5)</title></rect><rect x="366" y="199.986" width="6" height="0.0139899" stroke="black" stroke-width="1" fill="blue" opacity="1" tooltip="enable"><title>(2.36603,2)</title></rect><rect x="372" y="199.965" width="6" height="0.0349748" stroke="black" stroke-width="1" fill="blue" opacity="1" tooltip="enable"><title>(2.40481,5)</title></rect><rect x="378" y="199.979" width="6" height="0.0209849" stroke="black" stroke-width="1" fill="blue" opacity="1" tooltip="enable"><title>(2.4436,3)</title></rect><rect x="384" y="199.986" width="6" height="0.0139899" stroke="black" stroke-width="1" fill="blue" opacity="1" tooltip="enable"><title>(2.48239,2)</title></rect><rect x="390" y="199.986" width="6" height="0.0139899" stroke="black" stroke-width="1" fill="blue" opacity="1" tooltip="enable"><title>(2.52118,2)</title></rect><rect x="396" y="199.972" width="6" height="0.0279799" stroke="black" stroke-width="1" fill="blue" opacity="1" tooltip="enable"><title>(2.55996,4)</title></rect><rect x="402" y="199.958" width="6" height="0.0419698" stroke="black" stroke-width="1" fill="blue" opacity="1" tooltip="enable"><title>(2.59875,6)</title></rect><rect x="408" y="199.979" width="6" height="0.0209849" stroke="black" stroke-width="1" fill="blue" opacity="1" tooltip="enable"><title>(2.63754,3)</title></rect><rect x="414" y="199.993" width="6" height="0.00699496" stroke="black" stroke-width="1" fill="blue" opacity="1" tooltip="enable"><title>(2.67633,1)</title></rect><rect x="420" y="199.979" width="6" height="0.0209849" stroke="black" stroke-width="1" fill="blue" opacity="1" tooltip="enable"><title>(2.71511,3)</title></rect><rect x="426" y="199.965" width="6" height="0.0349748" stroke="black" stroke-width="1" fill="blue" opacity="1" tooltip="enable"><title>(2.7539,5)</title></rect><rect x="432" y="199.986" width="6" height="0.0139899" stroke="black" stroke-width="1" fill="blue" opacity="1" tooltip="enable"><title>(2.79269,2)</title></rect><rect x="438" y="199.972" width="6" height="0.0279799" stroke="black" stroke-width="1" fill="blue" opacity="1" tooltip="enable"><title>(2.83148,4)</title></rect><rect x="444" y="199.965" width="6" height="0.0349748" stroke="black" stroke-width="1" fill="blue" opacity="1" tooltip="enable"><title>(2.87026,5)</title></rect><rect x="450" y="199.986" width="6" height="0.0139899" stroke="black" stroke-width="1" fill="blue" opacity="1" tooltip="enable"><title>(2.90905,2)</title></rect><rect x="456" y="199.986" width="6" height="0.0139899" stroke="black" stroke-width="1" fill="blue" opacity="1" tooltip="enable"><title>(2.94784,2)</title></rect><rect x="462" y="200" width="6" height="0" stroke="black" stroke-width="1" fill="blue" opacity="1" tooltip="enable"><title>(2.98662,0)</title></rect><rect x="468" y="199.972" width="6" height="0.0279799" stroke="black" stroke-width="1" fill="blue" opacity="1" tooltip="enable"><title>(3.02541,4)</title></rect><rect x="474" y="199.972" width="6" height="0.0279799" stroke="black" stroke-width="1" fill="blue" opacity="1" tooltip="enable"><title>(3.0642,4)</title></rect><rect x="480" y="199.986" width="6" height="0.0139899" stroke="black" stroke-width="1" fill="blue" opacity="1" tooltip="enable"><title>(3.10299,2)</title></rect><rect x="486" y="199.979" width="6" height="0.0209849" stroke="black" stroke-width="1" fill="blue" opacity="1" tooltip="enable"><title>(3.14177,3)</title></rect><rect x="492" y="199.993" width="6" height="0.00699496" stroke="black" stroke-width="1" fill="blue" opacity="1" tooltip="enable"><title>(3.18056,1)</title></rect><rect x="498" y="200" width="6" height="0" stroke="black" stroke-width="1" fill="blue" opacity="1" tooltip="enable"><title>(3.21935,0)</title></rect><rect x="504" y="199.979" width="6" height="0.0209849" stroke="black" stroke-width="1" fill="blue" opacity="1" tooltip="enable"><title>(3.25814,3)</title></rect><rect x="510" y="199.979" width="6" height="0.0209849" stroke="black" stroke-width="1" fill="blue" opacity="1" tooltip="enable"><title>(3.29692,3)</title></rect><rect x="516" y="199.993" width="6" height="0.00699496" stroke="black" stroke-width="1" fill="blue" opacity="1" tooltip="enable"><title>(3.33571,1)</title></rect><rect x="522" y="199.986" width="6" height="0.0139899" stroke="black" stroke-width="1" fill="blue" opacity="1" tooltip="enable"><title>(3.3745,2)</title></rect><rect x="528" y="199.986" width="6" height="0.0139899" stroke="black" stroke-width="1" fill="blue" opacity="1" tooltip="enable"><title>(3.41329,2)</title></rect><rect x="534" y="199.993" width="6" height="0.00699496" stroke="black" stroke-width="1" fill="blue" opacity="1" tooltip="enable"><title>(3.45207,1)</title></rect><rect x="540" y="199.986" width="6" height="0.0139899" stroke="black" stroke-width="1" fill="blue" opacity="1" tooltip="enable"><title>(3.49086,2)</title></rect><rect x="546" y="199.993" width="6" height="0.00699496" stroke="black" stroke-width="1" fill="blue" opacity="1" tooltip="enable"><title>(3.52965,1)</title></rect><rect x="552" y="200" width="6" height="0" stroke="black" stroke-width="1" fill="blue" opacity="1" tooltip="enable"><title>(3.56844,0)</title></rect><rect x="558" y="199.979" width="6" height="0.0209849" stroke="black" stroke-width="1" fill="blue" opacity="1" tooltip="enable"><title>(3.60722,3)</title></rect><rect x="564" y="199.986" width="6" height="0.0139899" stroke="black" stroke-width="1" fill="blue" opacity="1" tooltip="enable"><title>(3.64601,2)</title></rect><rect x="570" y="199.993" width="6" height="0.00699496" stroke="black" stroke-width="1" fill="blue" opacity="1" tooltip="enable"><title>(3.6848,1)</title></rect><rect x="576" y="199.993" width="6" height="0.00699496" stroke="black" stroke-width="1" fill="blue" opacity="1" tooltip="enable"><title>(3.72358,1)</title></rect><rect x="582" y="199.986" width="6" height="0.0139899" stroke="black" stroke-width="1" fill="blue" opacity="1" tooltip="enable"><title>(3.76237,2)</title></rect><rect x="588" y="200" width="6" height="0" stroke="black" stroke-width="1" fill="blue" opacity="1" tooltip="enable"><title>(3.80116,0)</title></rect><rect x="594" y="200" width="6" height="0" stroke="black" stroke-width="1" fill="blue" opacity="1" tooltip="enable"><title>(3.83995,0)</title></rect><text x="30" y="240" font-size="20" fill="black">0</text>
<text x="600" y="240" font-size="20" fill="black">3.87873</text>
<polyline points="0,220,600,220" stroke="black" stroke-width="1" fill="none" opacity="1"/>
<text x="720" y="20" font-size="20" fill="black">28592</text>
<text x="720" y="200" font-size="20" fill="black">0</text>
<polyline points="660,0,660,200" stroke="black" stroke-width="1" fill="none" opacity="1"/>
</svg>