<?xml version="1.0" standalone="yes"?>
<!-- SVG graphic -->
<svg xmlns='http://www.w3.org/2000/svg' xmlns:xlink='http://www.w3.org/1999/xlink'
 version="1.1">
<rect x="0" y="0" width="6" height="200" stroke="black" stroke-width="1" fill="blue" opacity="1" tooltip="enable"><title>(0,29004)</title></rect><rect x="6" y="102.517" width="6" height="97.4831" stroke="black" stroke-width="1" fill="blue" opacity="1" tooltip="enable"><title>(0.0391456,14137)</title></rect><rect x="12" y="125.617" width="6" height="74.3828" stroke="black" stroke-width="1" fill="blue" opacity="1" tooltip="enable"><title>(0.0782912,10787)</title></rect><rect x="18" y="142.353" width="6" height="57.6472" stroke="black" stroke-width="1" fill="blue" opacity="1" tooltip="enable"><title>(0.117437,8360)</title></rect><rect x="24" y="155.379" width="6" height="44.6214" stroke="black" stroke-width="1" fill="blue" opacity="1" tooltip="enable"><title>(0.156582,6471)</title></rect><rect x="30" y="166.867" width="6" height="33.1334" stroke="black" stroke-width="1" fill="blue" opacity="1" tooltip="enable"><title>(0.195728,4805)</title></rect><rect x="36" y="173.438" width="6" height="26.5619" stroke="black" stroke-width="1" fill="blue" opacity="1" tooltip="enable"><title>(0.234874,3852)</title></rect><rect x="42" y="179.355" width="6" height="20.6454" stroke="black" stroke-width="1" fill="blue" opacity="1" tooltip="enable"><title>(0.274019,2994)</title></rect><rect x="48" y="183.292" width="6" height="16.708" stroke="black" stroke-width="1" fill="blue" opacity="1" tooltip="enable"><title>(0.313165,2423)</title></rect><rect x="54" y="187.367" width="6" height="12.6327" stroke="black" stroke-width="1" fill="blue" opacity="1" tooltip="enable"><title>(0.35231,1832)</title></rect><rect x="60" y="189.76" width="6" height="10.24" stroke="black" stroke-width="1" fill="blue" opacity="1" tooltip="enable"><title>(0.391456,1485)</title></rect><rect x="66" y="192.146" width="6" height="7.85409" stroke="black" stroke-width="1" fill="blue" opacity="1" tooltip="enable"><title>(0.430602,1139)</title></rect><rect x="72" y="193.58" width="6" height="6.4198" stroke="black" stroke-width="1" fill="blue" opacity="1" tooltip="enable"><title>(0.469747,931)</title></rect><rect x="78" y="194.539" width="6" height="5.46132" stroke="black" stroke-width="1" fill="blue" opacity="1" tooltip="enable"><title>(0.508893,792)</title></rect><rect x="84" y="195.821" width="6" height="4.17873" stroke="black" stroke-width="1" fill="blue" opacity="1" tooltip="enable"><title>(0.548039,606)</title></rect><rect x="90" y="196.414" width="6" height="3.58571" stroke="black" stroke-width="1" fill="blue" opacity="1" tooltip="enable"><title>(0.587184,520)</title></rect><rect x="96" y="196.938" width="6" height="3.06165" stroke="black" stroke-width="1" fill="blue" opacity="1" tooltip="enable"><title>(0.62633,444)</title></rect><rect x="102" y="197.649" width="6" height="2.3514" stroke="black" stroke-width="1" fill="blue" opacity="1" tooltip="enable"><title>(0.665475,341)</title></rect><rect x="108" y="197.828" width="6" height="2.17211" stroke="black" stroke-width="1" fill="blue" opacity="1" tooltip="enable"><title>(0.704621,315)</title></rect><rect x="114" y="198.104" width="6" height="1.89629" stroke="black" stroke-width="1" fill="blue" opacity="1" tooltip="enable"><title>(0.743767,275)</title></rect><rect x="120" y="198.38" width="6" height="1.62047" stroke="black" stroke-width="1" fill="blue" opacity="1" tooltip="enable"><title>(0.782912,235)</title></rect><rect x="126" y="198.497" width="6" height="1.50324" stroke="black" stroke-width="1" fill="blue" opacity="1" tooltip="enable"><title>(0.822058,218)</title></rect><rect x="132" y="198.869" width="6" height="1.13088" stroke="black" stroke-width="1" fill="blue" opacity="1" tooltip="enable"><title>(0.861203,164)</title></rect><rect x="138" y="199" width="6" height="0.999862" stroke="black" stroke-width="1" fill="blue" opacity="1" tooltip="enable"><title>(0.900349,145)</title></rect><rect x="144" y="199.145" width="6" height="0.855054" stroke="black" stroke-width="1" fill="blue" opacity="1" tooltip="enable"><title>(0.939495,124)</title></rect><rect x="150" y="199.297" width="6" height="0.703351" stroke="black" stroke-width="1" fill="blue" opacity="1" tooltip="enable"><title>(0.97864,102)</title></rect><rect x="156" y="199.421" width="6" height="0.57923" stroke="black" stroke-width="1" fill="blue" opacity="1" tooltip="enable"><title>(1.01779,84)</title></rect><rect x="162" y="199.421" width="6" height="0.57923" stroke="black" stroke-width="1" fill="blue" opacity="1" tooltip="enable"><title>(1.05693,84)</title></rect><rect x="168" y="199.559" width="6" height="0.441318" stroke="black" stroke-width="1" fill="blue" opacity="1" tooltip="enable"><title>(1.09608,64)</title></rect><rect x="174" y="199.614" width="6" height="0.386154" stroke="black" stroke-width="1" fill="blue" opacity="1" tooltip="enable"><title>(1.13522,56)</title></rect><rect x="180" y="199.566" width="6" height="0.434423" stroke="black" stroke-width="1" fill="blue" opacity="1" tooltip="enable"><title>(1.17437,63)</title></rect><rect x="186" y="199.662" width="6" height="0.337884" stroke="black" stroke-width="1" fill="blue" opacity="1" tooltip="enable"><title>(1.21351,49)</title></rect><rect x="192" y="199.648" width="6" height="0.351676" stroke="black" stroke-width="1" fill="blue" opacity="1" tooltip="enable"><title>(1.25266,51)</title></rect><rect x="198" y="199.717" width="6" height="0.28272" stroke="black" stroke-width="1" fill="blue" opacity="1" tooltip="enable"><title>(1.29181,41)</title></rect><rect x="204" y="199.779" width="6" height="0.220659" stroke="black" stroke-width="1" fill="blue" opacity="1" tooltip="enable"><title>(1.33095,32)</title></rect><rect x="210" y="199.869" width="6" height="0.131016" stroke="black" stroke-width="1" fill="blue" opacity="1" tooltip="enable"><title>(1.3701,19)</title></rect><rect x="216" y="199.779" width="6" height="0.220659" stroke="black" stroke-width="1" fill="blue" opacity="1" tooltip="enable"><title>(1.40924,32)</title></rect><rect x="222" y="199.786" width="6" height="0.213764" stroke="black" stroke-width="1" fill="blue" opacity="1" tooltip="enable"><title>(1.44839,31)</title></rect><rect x="228" y="199.848" width="6" height="0.151703" stroke="black" stroke-width="1" fill="blue" opacity="1" tooltip="enable"><title>(1.48753,22)</title></rect><rect x="234" y="199.848" width="6" height="0.151703" stroke="black" stroke-width="1" fill="blue" opacity="1" tooltip="enable"><title>(1.52668,22)</title></rect><rect x="240" y="199.869" width="6" height="0.131016" stroke="black" stroke-width="1" fill="blue" opacity="1" tooltip="enable"><title>(1.56582,19)</title></rect><rect x="246" y="199.897" width="6" height="0.103434" stroke="black" stroke-width="1" fill="blue" opacity="1" tooltip="enable"><title>(1.60497,15)</title></rect><rect x="252" y="199.89" width="6" height="0.11033" stroke="black" stroke-width="1" fill="blue" opacity="1" tooltip="enable"><title>(1.64412,16)</title></rect><rect x="258" y="199.883" width="6" height="0.117225" stroke="black" stroke-width="1" fill="blue" opacity="1" tooltip="enable"><title>(1.68326,17)</title></rect><rect x="264" y="199.903" width="6" height="0.0965384" stroke="black" stroke-width="1" fill="blue" opacity="1" tooltip="enable"><title>(1.72241,14)</title></rect><rect x="270" y="199.89" width="6" height="0.11033" stroke="black" stroke-width="1" fill="blue" opacity="1" tooltip="enable"><title>(1.76155,16)</title></rect><rect x="276" y="199.931" width="6" height="0.068956" stroke="black" stroke-width="1" fill="blue" opacity="1" tooltip="enable"><title>(1.8007,10)</title></rect><rect x="282" y="199.903" width="6" height="0.0965384" stroke="black" stroke-width="1" fill="blue" opacity="1" tooltip="enable"><title>(1.83984,14)</title></rect><rect x="288" y="199.91" width="6" height="0.0896428" stroke="black" stroke-width="1" fill="blue" opacity="1" tooltip="enable"><title>(1.87899,13)</title></rect><rect x="294" y="199.924" width="6" height="0.0758516" stroke="black" stroke-width="1" fill="blue" opacity="1" tooltip="enable"><title>(1.91813,11)</title></rect><rect x="300" y="199.959" width="6" height="0.0413736" stroke="black" stroke-width="1" fill="blue" opacity="1" tooltip="enable"><title>(1.95728,6)</title></rect><rect x="306" y="199.945" width="6" height="0.0551648" stroke="black" stroke-width="1" fill="blue" opacity="1" tooltip="enable"><title>(1.99643,8)</title></rect><rect x="312" y="199.952" width="6" height="0.0482692" stroke="black" stroke-width="1" fill="blue" opacity="1" tooltip="enable"><title>(2.03557,7)</title></rect><rect x="318" y="199.945" width="6" height="0.0551648" stroke="black" stroke-width="1" fill="blue" opacity="1" tooltip="enable"><title>(2.07472,8)</title></rect><rect x="324" y="199.966" width="6" height="0.034478" stroke="black" stroke-width="1" fill="blue" opacity="1" tooltip="enable"><title>(2.11386,5)</title></rect><rect x="330" y="199.924" width="6" height="0.0758516" stroke="black" stroke-width="1" fill="blue" opacity="1" tooltip="enable"><title>(2.15301,11)</title></rect><rect x="336" y="199.972" width="6" height="0.0275824" stroke="black" stroke-width="1" fill="blue" opacity="1" tooltip="enable"><title>(2.19215,4)</title></rect><rect x="342" y="199.966" width="6" height="0.034478" stroke="black" stroke-width="1" fill="blue" opacity="1" tooltip="enable"><title>(2.2313,5)</title></rect><rect x="348" y="199.972" width="6" height="0.0275824" stroke="black" stroke-width="1" fill="blue" opacity="1" tooltip="enable"><title>(2.27045,4)</title></rect><rect x="354" y="199.966" width="6" height="0.034478" stroke="black" stroke-width="1" fill="blue" opacity="1" tooltip="enable"><title>(2.30959,5)</title></rect><rect x="360" y="199.979" width="6" height="0.0206868" stroke="black" stroke-width="1" fill="blue" opacity="1" tooltip="enable"><title>(2.34874,3)</title></rect><rect x="366" y="199.972" width="6" height="0.0275824" stroke="black" stroke-width="1" fill="blue" opacity="1" tooltip="enable"><title>(2.38788,4)</title></rect><rect x="372" y="200" width="6" height="0" stroke="black" stroke-width="1" fill="blue" opacity="1" tooltip="enable"><title>(2.42703,0)</title></rect><rect x="378" y="199.979" width="6" height="0.0206868" stroke="black" stroke-width="1" fill="blue" opacity="1" tooltip="enable"><title>(2.46617,3)</title></rect><rect x="384" y="199.979" width="6" height="0.0206868" stroke="black" stroke-width="1" fill="blue" opacity="1" tooltip="enable"><title>(2.50532,3)</title></rect><rect x="390" y="199.972" width="6" height="0.0275824" stroke="black" stroke-width="1" fill="blue" opacity="1" tooltip="enable"><title>(2.54446,4)</title></rect><rect x="396" y="199.966" width="6" height="0.034478" stroke="black" stroke-width="1" fill="blue" opacity="1" tooltip="enable"><title>(2.58361,5)</title></rect><rect x="402" y="199.972" width="6" height="0.0275824" stroke="black" stroke-width="1" fill="blue" opacity="1" tooltip="enable"><title>(2.62276,4)</title></rect><rect x="408" y="199.972" width="6" height="0.0275824" stroke="black" stroke-width="1" fill="blue" opacity="1" tooltip="enable"><title>(2.6619,4)</title></rect><rect x="414" y="199.986" width="6" height="0.0137912" stroke="black" stroke-width="1" fill="blue" opacity="1" tooltip="enable"><title>(2.70105,2)</title></rect><rect x="420" y="199.979" width="6" height="0.0206868" stroke="black" stroke-width="1" fill="blue" opacity="1" tooltip="enable"><title>(2.74019,3)</title></rect><rect x="426" y="199.945" width="6" height="0.0551648" stroke="black" stroke-width="1" fill="blue" opacity="1" tooltip="enable"><title>(2.77934,8)</title></rect><rect x="432" y="199.959" width="6" height="0.0413736" stroke="black" stroke-width="1" fill="blue" opacity="1" tooltip="enable"><title>(2.81848,6)</title></rect><rect x="438" y="199.979" width="6" height="0.0206868" stroke="black" stroke-width="1" fill="blue" opacity="1" tooltip="enable"><title>(2.85763,3)</title></rect><rect x="444" y="199.972" width="6" height="0.0275824" stroke="black" stroke-width="1" fill="blue" opacity="1" tooltip="enable"><title>(2.89678,4)</title></rect><rect x="450" y="199.986" width="6" height="0.0137912" stroke="black" stroke-width="1" fill="blue" opacity="1" tooltip="enable"><title>(2.93592,2)</title></rect><rect x="456" y="199.966" width="6" height="0.034478" stroke="black" stroke-width="1" fill="blue" opacity="1" tooltip="enable"><title>(2.97507,5)</title></rect><rect x="462" y="199.972" width="6" height="0.0275824" stroke="black" stroke-width="1" fill="blue" opacity="1" tooltip="enable"><title>(3.01421,4)</title></rect><rect x="468" y="199.959" width="6" height="0.0413736" stroke="black" stroke-width="1" fill="blue" opacity="1" tooltip="enable"><title>(3.05336,6)</title></rect><rect x="474" y="199.979" width="6" height="0.0206868" stroke="black" stroke-width="1" fill="blue" opacity="1" tooltip="enable"><title>(3.0925,3)</title></rect><rect x="480" y="199.993" width="6" height="0.0068956" stroke="black" stroke-width="1" fill="blue" opacity="1" tooltip="enable"><title>(3.13165,1)</title></rect><rect x="486" y="199.993" width="6" height="0.0068956" stroke="black" stroke-width="1" fill="blue" opacity="1" tooltip="enable"><title>(3.17079,1)</title></rect><rect x="492" y="200" width="6" height="0" stroke="black" stroke-width="1" fill="blue" opacity="1" tooltip="enable"><title>(3.20994,0)</title></rect><rect x="498" y="199.972" width="6" height="0.0275824" stroke="black" stroke-width="1" fill="blue" opacity="1" tooltip="enable"><title>(3.24909,4)</title></rect><rect x="504" y="199.986" width="6" height="0.0137912" stroke="black" stroke-width="1" fill="blue" opacity="1" tooltip="enable"><title>(3.28823,2)</title></rect><rect x="510" y="199.986" width="6" height="0.0137912" stroke="black" stroke-width="1" fill="blue" opacity="1" tooltip="enable"><title>(3.32738,2)</title></rect><rect x="516" y="199.993" width="6" height="0.0068956" stroke="black" stroke-width="1" fill="blue" opacity="1" tooltip="enable"><title>(3.36652,1)</title></rect><rect x="522" y="199.972" width="6" height="0.0275824" stroke="black" stroke-width="1" fill="blue" opacity="1" tooltip="enable"><title>(3.40567,4)</title></rect><rect x="528" y="199.979" width="6" height="0.0206868" stroke="black" stroke-width="1" fill="blue" opacity="1" tooltip="enable"><title>(3.44481,3)</title></rect><rect x="534" y="199.979" width="6" height="0.0206868" stroke="black" stroke-width="1" fill="blue" opacity="1" tooltip="enable"><title>(3.48396,3)</title></rect><rect x="540" y="199.986" width="6" height="0.0137912" stroke="black" stroke-width="1" fill="blue" opacity="1" tooltip="enable"><title>(3.5231,2)</title></rect><rect x="546" y="199.993" width="6" height="0.0068956" stroke="black" stroke-width="1" fill="blue" opacity="1" tooltip="enable"><title>(3.56225,1)</title></rect><rect x="552" y="199.993" width="6" height="0.0068956" stroke="black" stroke-width="1" fill="blue" opacity="1" tooltip="enable"><title>(3.6014,1)</title></rect><rect x="558" y="199.993" width="6" height="0.0068956" stroke="black" stroke-width="1" fill="blue" opacity="1" tooltip="enable"><title>(3.64054,1)</title></rect><rect x="564" y="199.993" width="6" height="0.0068956" stroke="black" stroke-width="1" fill="blue" opacity="1" tooltip="enable"><title>(3.67969,1)</title></rect><rect x="570" y="200" width="6" height="0" stroke="black" stroke-width="1" fill="blue" opacity="1" tooltip="enable"><title>(3.71883,0)</title></rect><rect x="576" y="200" width="6" height="0" stroke="black" stroke-width="1" fill="blue" opacity="1" tooltip="enable"><title>(3.75798,0)</title></rect><rect x="582" y="199.986" width="6" height="0.0137912" stroke="black" stroke-width="1" fill="blue" opacity="1" tooltip="enable"><title>(3.79712,2)</title></rect><rect x="588" y="199.993" width="6" height="0.0068956" stroke="black" stroke-width="1" fill="blue" opacity="1" tooltip="enable"><title>(3.83627,1)</title></rect><rect x="594" y="199.986" width="6" height="0.0137912" stroke="black" stroke-width="1" fill="blue" opacity="1" tooltip="enable"><title>(3.87542,2)</title></rect><text x="30" y="240" font-size="20" fill="black">0</text>
<text x="600" y="240" font-size="20" fill="black">3.91456</text>
<polyline points="0,220,600,220" stroke="black" stroke-width="1" fill="none" opacity="1"/>
<text x="720" y="20" font-size="20" fill="black">29004</text>
<text x="720" y="200" font-size="20" fill="black">0</text>
<polyline points="660,0,660,200" stroke="black" stroke-width="1" fill="none" opacity="1"/>
</svg>