<?xml version="1.0" standalone="yes"?>
<!-- SVG graphic -->
<svg xmlns='http://www.w3.org/2000/svg' xmlns:xlink='http://www.w3.org/1999/xlink'
 version="1.1">
<rect x="0" y="0" width="6" height="200" stroke="black" stroke-width="1" fill="blue" opacity="1" tooltip="enable"><title>(0,10093)</title></rect><rect x="6" y="103.398" width="6" height="96.6016" stroke="black" stroke-width="1" fill="blue" opacity="1" tooltip="enable"><title>(0.0352339,4875)</title></rect><rect x="12" y="127.494" width="6" height="72.5057" stroke="black" stroke-width="1" fill="blue" opacity="1" tooltip="enable"><title>(0.0704679,3659)</title></rect><rect x="18" y="139.522" width="6" height="60.4776" stroke="black" stroke-width="1" fill="blue" opacity="1" tooltip="enable"><title>(0.105702,3052)</title></rect><rect x="24" y="152.363" width="6" height="47.637" stroke="black" stroke-width="1" fill="blue" opacity="1" tooltip="enable"><title>(0.140936,2404)</title></rect><rect x="30" y="161.657" width="6" height="38.3434" stroke="black" stroke-width="1" fill="blue" opacity="1" tooltip="enable"><title>(0.17617,1935)</title></rect><rect x="36" y="169.187" width="6" height="30.8134" stroke="black" stroke-width="1" fill="blue" opacity="1" tooltip="enable"><title>(0.211404,1555)</title></rect><rect x="42" y="175.349" width="6" height="24.6507" stroke="black" stroke-width="1" fill="blue" opacity="1" tooltip="enable"><title>(0.246638,1244)</title></rect><rect x="48" y="180.462" width="6" height="19.5383" stroke="black" stroke-width="1" fill="blue" opacity="1" tooltip="enable"><title>(0.281871,986)</title></rect><rect x="54" y="184.682" width="6" height="15.3175" stroke="black" stroke-width="1" fill="blue" opacity="1" tooltip="enable"><title>(0.317105,773)</title></rect><rect x="60" y="186.783" width="6" height="13.2171" stroke="black" stroke-width="1" fill="blue" opacity="1" tooltip="enable"><title>(0.352339,667)</title></rect><rect x="66" y="189.478" width="6" height="10.5221" stroke="black" stroke-width="1" fill="blue" opacity="1" tooltip="enable"><title>(0.387573,531)</title></rect><rect x="72" y="191.301" width="6" height="8.6991" stroke="black" stroke-width="1" fill="blue" opacity="1" tooltip="enable"><title>(0.422807,439)</title></rect><rect x="78" y="193.005" width="6" height="6.99495" stroke="black" stroke-width="1" fill="blue" opacity="1" tooltip="enable"><title>(0.458041,353)</title></rect><rect x="84" y="194.392" width="6" height="5.60785" stroke="black" stroke-width="1" fill="blue" opacity="1" tooltip="enable"><title>(0.493275,283)</title></rect><rect x="90" y="195.68" width="6" height="4.31983" stroke="black" stroke-width="1" fill="blue" opacity="1" tooltip="enable"><title>(0.528509,218)</title></rect><rect x="96" y="196.612" width="6" height="3.38849" stroke="black" stroke-width="1" fill="blue" opacity="1" tooltip="enable"><title>(0.563743,171)</title></rect><rect x="102" y="197.067" width="6" height="2.93273" stroke="black" stroke-width="1" fill="blue" opacity="1" tooltip="enable"><title>(0.598977,148)</title></rect><rect x="108" y="197.622" width="6" height="2.37789" stroke="black" stroke-width="1" fill="blue" opacity="1" tooltip="enable"><title>(0.634211,120)</title></rect><rect x="114" y="197.662" width="6" height="2.33825" stroke="black" stroke-width="1" fill="blue" opacity="1" tooltip="enable"><title>(0.669445,118)</title></rect><rect x="120" y="198.157" width="6" height="1.84286" stroke="black" stroke-width="1" fill="blue" opacity="1" tooltip="enable"><title>(0.704679,93)</title></rect><rect x="126" y="198.653" width="6" height="1.34747" stroke="black" stroke-width="1" fill="blue" opacity="1" tooltip="enable"><title>(0.739913,68)</title></rect><rect x="132" y="198.89" width="6" height="1.10968" stroke="black" stroke-width="1" fill="blue" opacity="1" tooltip="enable"><title>(0.775147,56)</title></rect><rect x="138" y="199.148" width="6" height="0.852076" stroke="black" stroke-width="1" fill="blue" opacity="1" tooltip="enable"><title>(0.810381,43)</title></rect><rect x="144" y="199.088" width="6" height="0.911523" stroke="black" stroke-width="1" fill="blue" opacity="1" tooltip="enable"><title>(0.845614,46)</title></rect><rect x="150" y="199.544" width="6" height="0.455761" stroke="black" stroke-width="1" fill="blue" opacity="1" tooltip="enable"><title>(0.880848,23)</title></rect><rect x="156" y="199.306" width="6" height="0.69355" stroke="black" stroke-width="1" fill="blue" opacity="1" tooltip="enable"><title>(0.916082,35)</title></rect><rect x="162" y="199.564" width="6" height="0.435946" stroke="black" stroke-width="1" fill="blue" opacity="1" tooltip="enable"><title>(0.951316,22)</title></rect><rect x="168" y="199.544" width="6" height="0.455761" stroke="black" stroke-width="1" fill="blue" opacity="1" tooltip="enable"><title>(0.98655,23)</title></rect><rect x="174" y="199.564" width="6" height="0.435946" stroke="black" stroke-width="1" fill="blue" opacity="1" tooltip="enable"><title>(1.02178,22)</title></rect><rect x="180" y="199.683" width="6" height="0.317051" stroke="black" stroke-width="1" fill="blue" opacity="1" tooltip="enable"><title>(1.05702,16)</title></rect><rect x="186" y="199.703" width="6" height="0.297236" stroke="black" stroke-width="1" fill="blue" opacity="1" tooltip="enable"><title>(1.09225,15)</title></rect><rect x="192" y="199.782" width="6" height="0.217973" stroke="black" stroke-width="1" fill="blue" opacity="1" tooltip="enable"><title>(1.12749,11)</title></rect><rect x="198" y="199.782" width="6" height="0.217973" stroke="black" stroke-width="1" fill="blue" opacity="1" tooltip="enable"><title>(1.16272,11)</title></rect><rect x="204" y="199.742" width="6" height="0.257604" stroke="black" stroke-width="1" fill="blue" opacity="1" tooltip="enable"><title>(1.19795,13)</title></rect><rect x="210" y="199.841" width="6" height="0.158526" stroke="black" stroke-width="1" fill="blue" opacity="1" tooltip="enable"><title>(1.23319,8)</title></rect><rect x="216" y="199.723" width="6" height="0.27742" stroke="black" stroke-width="1" fill="blue" opacity="1" tooltip="enable"><title>(1.26842,14)</title></rect><rect x="222" y="199.881" width="6" height="0.118894" stroke="black" stroke-width="1" fill="blue" opacity="1" tooltip="enable"><title>(1.30366,6)</title></rect><rect x="228" y="199.861" width="6" height="0.13871" stroke="black" stroke-width="1" fill="blue" opacity="1" tooltip="enable"><title>(1.33889,7)</title></rect><rect x="234" y="199.822" width="6" height="0.178341" stroke="black" stroke-width="1" fill="blue" opacity="1" tooltip="enable"><title>(1.37412,9)</title></rect><rect x="240" y="199.901" width="6" height="0.0990786" stroke="black" stroke-width="1" fill="blue" opacity="1" tooltip="enable"><title>(1.40936,5)</title></rect><rect x="246" y="199.841" width="6" height="0.158526" stroke="black" stroke-width="1" fill="blue" opacity="1" tooltip="enable"><title>(1.44459,8)</title></rect><rect x="252" y="199.841" width="6" height="0.158526" stroke="black" stroke-width="1" fill="blue" opacity="1" tooltip="enable"><title>(1.47983,8)</title></rect><rect x="258" y="199.941" width="6" height="0.0594471" stroke="black" stroke-width="1" fill="blue" opacity="1" tooltip="enable"><title>(1.51506,3)</title></rect><rect x="264" y="199.941" width="6" height="0.0594471" stroke="black" stroke-width="1" fill="blue" opacity="1" tooltip="enable"><title>(1.55029,3)</title></rect><rect x="270" y="199.881" width="6" height="0.118894" stroke="black" stroke-width="1" fill="blue" opacity="1" tooltip="enable"><title>(1.58553,6)</title></rect><rect x="276" y="199.96" width="6" height="0.0396314" stroke="black" stroke-width="1" fill="blue" opacity="1" tooltip="enable"><title>(1.62076,2)</title></rect><rect x="282" y="199.941" width="6" height="0.0594471" stroke="black" stroke-width="1" fill="blue" opacity="1" tooltip="enable"><title>(1.65599,3)</title></rect><rect x="288" y="199.941" width="6" height="0.0594471" stroke="black" stroke-width="1" fill="blue" opacity="1" tooltip="enable"><title>(1.69123,3)</title></rect><rect x="294" y="199.901" width="6" height="0.0990786" stroke="black" stroke-width="1" fill="blue" opacity="1" tooltip="enable"><title>(1.72646,5)</title></rect><rect x="300" y="199.901" width="6" height="0.0990786" stroke="black" stroke-width="1" fill="blue" opacity="1" tooltip="enable"><title>(1.7617,5)</title></rect><rect x="306" y="199.96" width="6" height="0.0396314" stroke="black" stroke-width="1" fill="blue" opacity="1" tooltip="enable"><title>(1.79693,2)</title></rect><rect x="312" y="199.98" width="6" height="0.0198157" stroke="black" stroke-width="1" fill="blue" opacity="1" tooltip="enable"><title>(1.83216,1)</title></rect><rect x="318" y="199.98" width="6" height="0.0198157" stroke="black" stroke-width="1" fill="blue" opacity="1" tooltip="enable"><title>(1.8674,1)</title></rect><rect x="324" y="200" width="6" height="0" stroke="black" stroke-width="1" fill="blue" opacity="1" tooltip="enable"><title>(1.90263,0)</title></rect><rect x="330" y="199.921" width="6" height="0.0792629" stroke="black" stroke-width="1" fill="blue" opacity="1" tooltip="enable"><title>(1.93787,4)</title></rect><rect x="336" y="199.98" width="6" height="0.0198157" stroke="black" stroke-width="1" fill="blue" opacity="1" tooltip="enable"><title>(1.9731,1)</title></rect><rect x="342" y="199.98" width="6" height="0.0198157" stroke="black" stroke-width="1" fill="blue" opacity="1" tooltip="enable"><title>(2.00833,1)</title></rect><rect x="348" y="199.98" width="6" height="0.0198157" stroke="black" stroke-width="1" fill="blue" opacity="1" tooltip="enable"><title>(2.04357,1)</title></rect><rect x="354" y="200" width="6" height="0" stroke="black" stroke-width="1" fill="blue" opacity="1" tooltip="enable"><title>(2.0788,0)</title></rect><rect x="360" y="200" width="6" height="0" stroke="black" stroke-width="1" fill="blue" opacity="1" tooltip="enable"><title>(2.11404,0)</title></rect><rect x="366" y="199.96" width="6" height="0.0396314" stroke="black" stroke-width="1" fill="blue" opacity="1" tooltip="enable"><title>(2.14927,2)</title></rect><rect x="372" y="200" width="6" height="0" stroke="black" stroke-width="1" fill="blue" opacity="1" tooltip="enable"><title>(2.1845,0)</title></rect><rect x="378" y="199.96" width="6" height="0.0396314" stroke="black" stroke-width="1" fill="blue" opacity="1" tooltip="enable"><title>(2.21974,2)</title></rect><rect x="384" y="199.96" width="6" height="0.0396314" stroke="black" stroke-width="1" fill="blue" opacity="1" tooltip="enable"><title>(2.25497,2)</title></rect><rect x="390" y="199.96" width="6" height="0.0396314" stroke="black" stroke-width="1" fill="blue" opacity="1" tooltip="enable"><title>(2.29021,2)</title></rect><rect x="396" y="199.98" width="6" height="0.0198157" stroke="black" stroke-width="1" fill="blue" opacity="1" tooltip="enable"><title>(2.32544,1)</title></rect><rect x="402" y="200" width="6" height="0" stroke="black" stroke-width="1" fill="blue" opacity="1" tooltip="enable"><title>(2.36067,0)</title></rect><rect x="408" y="199.98" width="6" height="0.0198157" stroke="black" stroke-width="1" fill="blue" opacity="1" tooltip="enable"><title>(2.39591,1)</title></rect><rect x="414" y="199.98" width="6" height="0.0198157" stroke="black" stroke-width="1" fill="blue" opacity="1" tooltip="enable"><title>(2.43114,1)</title></rect><rect x="420" y="200" width="6" height="0" stroke="black" stroke-width="1" fill="blue" opacity="1" tooltip="enable"><title>(2.46638,0)</title></rect><rect x="426" y="200" width="6" height="0" stroke="black" stroke-width="1" fill="blue" opacity="1" tooltip="enable"><title>(2.50161,0)</title></rect><rect x="432" y="200" width="6" height="0" stroke="black" stroke-width="1" fill="blue" opacity="1" tooltip="enable"><title>(2.53684,0)</title></rect><rect x="438" y="199.96" width="6" height="0.0396314" stroke="black" stroke-width="1" fill="blue" opacity="1" tooltip="enable"><title>(2.57208,2)</title></rect><rect x="444" y="200" width="6" height="0" stroke="black" stroke-width="1" fill="blue" opacity="1" tooltip="enable"><title>(2.60731,0)</title></rect><rect x="450" y="199.98" width="6" height="0.0198157" stroke="black" stroke-width="1" fill="blue" opacity="1" tooltip="enable"><title>(2.64254,1)</title></rect><rect x="456" y="200" width="6" height="0" stroke="black" stroke-width="1" fill="blue" opacity="1" tooltip="enable"><title>(2.67778,0)</title></rect><rect x="462" y="200" width="6" height="0" stroke="black" stroke-width="1" fill="blue" opacity="1" tooltip="enable"><title>(2.71301,0)</title></rect><rect x="468" y="199.98" width="6" height="0.0198157" stroke="black" stroke-width="1" fill="blue" opacity="1" tooltip="enable"><title>(2.74825,1)</title></rect><rect x="474" y="199.96" width="6" height="0.0396314" stroke="black" stroke-width="1" fill="blue" opacity="1" tooltip="enable"><title>(2.78348,2)</title></rect><rect x="480" y="200" width="6" height="0" stroke="black" stroke-width="1" fill="blue" opacity="1" tooltip="enable"><title>(2.81871,0)</title></rect><rect x="486" y="200" width="6" height="0" stroke="black" stroke-width="1" fill="blue" opacity="1" tooltip="enable"><title>(2.85395,0)</title></rect><rect x="492" y="199.98" width="6" height="0.0198157" stroke="black" stroke-width="1" fill="blue" opacity="1" tooltip="enable"><title>(2.88918,1)</title></rect><rect x="498" y="200" width="6" height="0" stroke="black" stroke-width="1" fill="blue" opacity="1" tooltip="enable"><title>(2.92442,0)</title></rect><rect x="504" y="200" width="6" height="0" stroke="black" stroke-width="1" fill="blue" opacity="1" tooltip="enable"><title>(2.95965,0)</title></rect><rect x="510" y="200" width="6" height="0" stroke="black" stroke-width="1" fill="blue" opacity="1" tooltip="enable"><title>(2.99488,0)</title></rect><rect x="516" y="200" width="6" height="0" stroke="black" stroke-width="1" fill="blue" opacity="1" tooltip="enable"><title>(3.03012,0)</title></rect><rect x="522" y="200" width="6" height="0" stroke="black" stroke-width="1" fill="blue" opacity="1" tooltip="enable"><title>(3.06535,0)</title></rect><rect x="528" y="200" width="6" height="0" stroke="black" stroke-width="1" fill="blue" opacity="1" tooltip="enable"><title>(3.10059,0)</title></rect><rect x="534" y="200" width="6" height="0" stroke="black" stroke-width="1" fill="blue" opacity="1" tooltip="enable"><title>(3.13582,0)</title></rect><rect x="540" y="200" width="6" height="0" stroke="black" stroke-width="1" fill="blue" opacity="1" tooltip="enable"><title>(3.17105,0)</title></rect><rect x="546" y="200" width="6" height="0" stroke="black" stroke-width="1" fill="blue" opacity="1" tooltip="enable"><title>(3.20629,0)</title></rect><rect x="552" y="200" width="6" height="0" stroke="black" stroke-width="1" fill="blue" opacity="1" tooltip="enable"><title>(3.24152,0)</title></rect><rect x="558" y="200" width="6" height="0" stroke="black" stroke-width="1" fill="blue" opacity="1" tooltip="enable"><title>(3.27676,0)</title></rect><rect x="564" y="200" width="6" height="0" stroke="black" stroke-width="1" fill="blue" opacity="1" tooltip="enable"><title>(3.31199,0)</title></rect><rect x="570" y="200" width="6" height="0" stroke="black" stroke-width="1" fill="blue" opacity="1" tooltip="enable"><title>(3.34722,0)</title></rect><rect x="576" y="200" width="6" height="0" stroke="black" stroke-width="1" fill="blue" opacity="1" tooltip="enable"><title>(3.38246,0)</title></rect><rect x="582" y="200" width="6" height="0" stroke="black" stroke-width="1" fill="blue" opacity="1" tooltip="enable"><title>(3.41769,0)</title></rect><rect x="588" y="200" width="6" height="0" stroke="black" stroke-width="1" fill="blue" opacity="1" tooltip="enable"><title>(3.45293,0)</title></rect><rect x="594" y="200" width="6" height="0" stroke="black" stroke-width="1" fill="blue" opacity="1" tooltip="enable"><title>(3.48816,0)</title></rect><text x="30" y="240" font-size="20" fill="black">0</text>
<text x="600" y="240" font-size="20" fill="black">3.52339</text>
<polyline points="0,220,600,220" stroke="black" stroke-width="1" fill="none" opacity="1"/>
<text x="720" y="20" font-size="20" fill="black">10093</text>
<text x="720" y="200" font-size="20" fill="black">0</text>
<polyline points="660,0,660,200" stroke="black" stroke-width="1" fill="none" opacity="1"/>
</svg>