<?xml version="1.0" standalone="yes"?>
<!-- SVG graphic -->
<svg xmlns='http://www.w3.org/2000/svg' xmlns:xlink='http://www.w3.org/1999/xlink'
 version="1.1">
<rect x="0" y="0" width="6" height="200" stroke="black" stroke-width="1" fill="blue" opacity="1" tooltip="enable"><title>(0,9367)</title></rect><rect x="6" y="100.502" width="6" height="99.4982" stroke="black" stroke-width="1" fill="blue" opacity="1" tooltip="enable"><title>(0.031055,4660)</title></rect><rect x="12" y="125.355" width="6" height="74.645" stroke="black" stroke-width="1" fill="blue" opacity="1" tooltip="enable"><title>(0.06211,3496)</title></rect><rect x="18" y="137.269" width="6" height="62.7309" stroke="black" stroke-width="1" fill="blue" opacity="1" tooltip="enable"><title>(0.093165,2938)</title></rect><rect x="24" y="148.5" width="6" height="51.4999" stroke="black" stroke-width="1" fill="blue" opacity="1" tooltip="enable"><title>(0.12422,2412)</title></rect><rect x="30" y="156.806" width="6" height="43.1942" stroke="black" stroke-width="1" fill="blue" opacity="1" tooltip="enable"><title>(0.155275,2023)</title></rect><rect x="36" y="165.453" width="6" height="34.5468" stroke="black" stroke-width="1" fill="blue" opacity="1" tooltip="enable"><title>(0.18633,1618)</title></rect><rect x="42" y="171.816" width="6" height="28.1841" stroke="black" stroke-width="1" fill="blue" opacity="1" tooltip="enable"><title>(0.217385,1320)</title></rect><rect x="48" y="175.681" width="6" height="24.3194" stroke="black" stroke-width="1" fill="blue" opacity="1" tooltip="enable"><title>(0.24844,1139)</title></rect><rect x="54" y="180.421" width="6" height="19.5794" stroke="black" stroke-width="1" fill="blue" opacity="1" tooltip="enable"><title>(0.279495,917)</title></rect><rect x="60" y="184.2" width="6" height="15.8001" stroke="black" stroke-width="1" fill="blue" opacity="1" tooltip="enable"><title>(0.31055,740)</title></rect><rect x="66" y="187.168" width="6" height="12.8323" stroke="black" stroke-width="1" fill="blue" opacity="1" tooltip="enable"><title>(0.341605,601)</title></rect><rect x="72" y="188.342" width="6" height="11.6579" stroke="black" stroke-width="1" fill="blue" opacity="1" tooltip="enable"><title>(0.37266,546)</title></rect><rect x="78" y="190.755" width="6" height="9.24522" stroke="black" stroke-width="1" fill="blue" opacity="1" tooltip="enable"><title>(0.403715,433)</title></rect><rect x="84" y="191.908" width="6" height="8.09224" stroke="black" stroke-width="1" fill="blue" opacity="1" tooltip="enable"><title>(0.43477,379)</title></rect><rect x="90" y="193.723" width="6" height="6.27736" stroke="black" stroke-width="1" fill="blue" opacity="1" tooltip="enable"><title>(0.465825,294)</title></rect><rect x="96" y="194.961" width="6" height="5.03897" stroke="black" stroke-width="1" fill="blue" opacity="1" tooltip="enable"><title>(0.49688,236)</title></rect><rect x="102" y="195.751" width="6" height="4.24896" stroke="black" stroke-width="1" fill="blue" opacity="1" tooltip="enable"><title>(0.527935,199)</title></rect><rect x="108" y="196.285" width="6" height="3.71517" stroke="black" stroke-width="1" fill="blue" opacity="1" tooltip="enable"><title>(0.55899,174)</title></rect><rect x="114" y="197.182" width="6" height="2.81841" stroke="black" stroke-width="1" fill="blue" opacity="1" tooltip="enable"><title>(0.590045,132)</title></rect><rect x="120" y="197.203" width="6" height="2.79705" stroke="black" stroke-width="1" fill="blue" opacity="1" tooltip="enable"><title>(0.6211,131)</title></rect><rect x="126" y="197.908" width="6" height="2.09245" stroke="black" stroke-width="1" fill="blue" opacity="1" tooltip="enable"><title>(0.652155,98)</title></rect><rect x="132" y="198.484" width="6" height="1.51596" stroke="black" stroke-width="1" fill="blue" opacity="1" tooltip="enable"><title>(0.68321,71)</title></rect><rect x="138" y="198.271" width="6" height="1.72948" stroke="black" stroke-width="1" fill="blue" opacity="1" tooltip="enable"><title>(0.714265,81)</title></rect><rect x="144" y="198.591" width="6" height="1.4092" stroke="black" stroke-width="1" fill="blue" opacity="1" tooltip="enable"><title>(0.74532,66)</title></rect><rect x="150" y="198.975" width="6" height="1.02487" stroke="black" stroke-width="1" fill="blue" opacity="1" tooltip="enable"><title>(0.776375,48)</title></rect><rect x="156" y="199.103" width="6" height="0.896765" stroke="black" stroke-width="1" fill="blue" opacity="1" tooltip="enable"><title>(0.80743,42)</title></rect><rect x="162" y="199.061" width="6" height="0.939468" stroke="black" stroke-width="1" fill="blue" opacity="1" tooltip="enable"><title>(0.838485,44)</title></rect><rect x="168" y="199.253" width="6" height="0.747304" stroke="black" stroke-width="1" fill="blue" opacity="1" tooltip="enable"><title>(0.86954,35)</title></rect><rect x="174" y="199.381" width="6" height="0.619195" stroke="black" stroke-width="1" fill="blue" opacity="1" tooltip="enable"><title>(0.900595,29)</title></rect><rect x="180" y="199.424" width="6" height="0.576492" stroke="black" stroke-width="1" fill="blue" opacity="1" tooltip="enable"><title>(0.93165,27)</title></rect><rect x="186" y="199.552" width="6" height="0.448383" stroke="black" stroke-width="1" fill="blue" opacity="1" tooltip="enable"><title>(0.962705,21)</title></rect><rect x="192" y="199.616" width="6" height="0.384328" stroke="black" stroke-width="1" fill="blue" opacity="1" tooltip="enable"><title>(0.99376,18)</title></rect><rect x="198" y="199.616" width="6" height="0.384328" stroke="black" stroke-width="1" fill="blue" opacity="1" tooltip="enable"><title>(1.02482,18)</title></rect><rect x="204" y="199.637" width="6" height="0.362976" stroke="black" stroke-width="1" fill="blue" opacity="1" tooltip="enable"><title>(1.05587,17)</title></rect><rect x="210" y="199.722" width="6" height="0.27757" stroke="black" stroke-width="1" fill="blue" opacity="1" tooltip="enable"><title>(1.08693,13)</title></rect><rect x="216" y="199.744" width="6" height="0.256219" stroke="black" stroke-width="1" fill="blue" opacity="1" tooltip="enable"><title>(1.11798,12)</title></rect><rect x="222" y="199.701" width="6" height="0.298922" stroke="black" stroke-width="1" fill="blue" opacity="1" tooltip="enable"><title>(1.14903,14)</title></rect><rect x="228" y="199.829" width="6" height="0.170812" stroke="black" stroke-width="1" fill="blue" opacity="1" tooltip="enable"><title>(1.18009,8)</title></rect><rect x="234" y="199.808" width="6" height="0.192164" stroke="black" stroke-width="1" fill="blue" opacity="1" tooltip="enable"><title>(1.21114,9)</title></rect><rect x="240" y="199.829" width="6" height="0.170812" stroke="black" stroke-width="1" fill="blue" opacity="1" tooltip="enable"><title>(1.2422,8)</title></rect><rect x="246" y="199.851" width="6" height="0.149461" stroke="black" stroke-width="1" fill="blue" opacity="1" tooltip="enable"><title>(1.27325,7)</title></rect><rect x="252" y="199.872" width="6" height="0.128109" stroke="black" stroke-width="1" fill="blue" opacity="1" tooltip="enable"><title>(1.30431,6)</title></rect><rect x="258" y="199.872" width="6" height="0.128109" stroke="black" stroke-width="1" fill="blue" opacity="1" tooltip="enable"><title>(1.33537,6)</title></rect><rect x="264" y="199.829" width="6" height="0.170812" stroke="black" stroke-width="1" fill="blue" opacity="1" tooltip="enable"><title>(1.36642,8)</title></rect><rect x="270" y="199.936" width="6" height="0.0640547" stroke="black" stroke-width="1" fill="blue" opacity="1" tooltip="enable"><title>(1.39748,3)</title></rect><rect x="276" y="199.851" width="6" height="0.149461" stroke="black" stroke-width="1" fill="blue" opacity="1" tooltip="enable"><title>(1.42853,7)</title></rect><rect x="282" y="199.893" width="6" height="0.106758" stroke="black" stroke-width="1" fill="blue" opacity="1" tooltip="enable"><title>(1.45958,5)</title></rect><rect x="288" y="199.808" width="6" height="0.192164" stroke="black" stroke-width="1" fill="blue" opacity="1" tooltip="enable"><title>(1.49064,9)</title></rect><rect x="294" y="199.893" width="6" height="0.106758" stroke="black" stroke-width="1" fill="blue" opacity="1" tooltip="enable"><title>(1.5217,5)</title></rect><rect x="300" y="199.915" width="6" height="0.0854062" stroke="black" stroke-width="1" fill="blue" opacity="1" tooltip="enable"><title>(1.55275,4)</title></rect><rect x="306" y="199.936" width="6" height="0.0640547" stroke="black" stroke-width="1" fill="blue" opacity="1" tooltip="enable"><title>(1.5838,3)</title></rect><rect x="312" y="199.957" width="6" height="0.0427031" stroke="black" stroke-width="1" fill="blue" opacity="1" tooltip="enable"><title>(1.61486,2)</title></rect><rect x="318" y="199.979" width="6" height="0.0213516" stroke="black" stroke-width="1" fill="blue" opacity="1" tooltip="enable"><title>(1.64591,1)</title></rect><rect x="324" y="199.893" width="6" height="0.106758" stroke="black" stroke-width="1" fill="blue" opacity="1" tooltip="enable"><title>(1.67697,5)</title></rect><rect x="330" y="199.872" width="6" height="0.128109" stroke="black" stroke-width="1" fill="blue" opacity="1" tooltip="enable"><title>(1.70802,6)</title></rect><rect x="336" y="199.957" width="6" height="0.0427031" stroke="black" stroke-width="1" fill="blue" opacity="1" tooltip="enable"><title>(1.73908,2)</title></rect><rect x="342" y="199.851" width="6" height="0.149461" stroke="black" stroke-width="1" fill="blue" opacity="1" tooltip="enable"><title>(1.77013,7)</title></rect><rect x="348" y="199.957" width="6" height="0.0427031" stroke="black" stroke-width="1" fill="blue" opacity="1" tooltip="enable"><title>(1.80119,2)</title></rect><rect x="354" y="199.936" width="6" height="0.0640547" stroke="black" stroke-width="1" fill="blue" opacity="1" tooltip="enable"><title>(1.83224,3)</title></rect><rect x="360" y="199.915" width="6" height="0.0854062" stroke="black" stroke-width="1" fill="blue" opacity="1" tooltip="enable"><title>(1.8633,4)</title></rect><rect x="366" y="199.957" width="6" height="0.0427031" stroke="black" stroke-width="1" fill="blue" opacity="1" tooltip="enable"><title>(1.89436,2)</title></rect><rect x="372" y="199.979" width="6" height="0.0213516" stroke="black" stroke-width="1" fill="blue" opacity="1" tooltip="enable"><title>(1.92541,1)</title></rect><rect x="378" y="199.979" width="6" height="0.0213516" stroke="black" stroke-width="1" fill="blue" opacity="1" tooltip="enable"><title>(1.95647,1)</title></rect><rect x="384" y="200" width="6" height="0" stroke="black" stroke-width="1" fill="blue" opacity="1" tooltip="enable"><title>(1.98752,0)</title></rect><rect x="390" y="199.979" width="6" height="0.0213516" stroke="black" stroke-width="1" fill="blue" opacity="1" tooltip="enable"><title>(2.01857,1)</title></rect><rect x="396" y="199.979" width="6" height="0.0213516" stroke="black" stroke-width="1" fill="blue" opacity="1" tooltip="enable"><title>(2.04963,1)</title></rect><rect x="402" y="200" width="6" height="0" stroke="black" stroke-width="1" fill="blue" opacity="1" tooltip="enable"><title>(2.08069,0)</title></rect><rect x="408" y="199.957" width="6" height="0.0427031" stroke="black" stroke-width="1" fill="blue" opacity="1" tooltip="enable"><title>(2.11174,2)</title></rect><rect x="414" y="199.979" width="6" height="0.0213516" stroke="black" stroke-width="1" fill="blue" opacity="1" tooltip="enable"><title>(2.1428,1)</title></rect><rect x="420" y="199.957" width="6" height="0.0427031" stroke="black" stroke-width="1" fill="blue" opacity="1" tooltip="enable"><title>(2.17385,2)</title></rect><rect x="426" y="199.979" width="6" height="0.0213516" stroke="black" stroke-width="1" fill="blue" opacity="1" tooltip="enable"><title>(2.20491,1)</title></rect><rect x="432" y="200" width="6" height="0" stroke="black" stroke-width="1" fill="blue" opacity="1" tooltip="enable"><title>(2.23596,0)</title></rect><rect x="438" y="199.957" width="6" height="0.0427031" stroke="black" stroke-width="1" fill="blue" opacity="1" tooltip="enable"><title>(2.26701,2)</title></rect><rect x="444" y="199.979" width="6" height="0.0213516" stroke="black" stroke-width="1" fill="blue" opacity="1" tooltip="enable"><title>(2.29807,1)</title></rect><rect x="450" y="199.936" width="6" height="0.0640547" stroke="black" stroke-width="1" fill="blue" opacity="1" tooltip="enable"><title>(2.32912,3)</title></rect><rect x="456" y="199.979" width="6" height="0.0213516" stroke="black" stroke-width="1" fill="blue" opacity="1" tooltip="enable"><title>(2.36018,1)</title></rect><rect x="462" y="200" width="6" height="0" stroke="black" stroke-width="1" fill="blue" opacity="1" tooltip="enable"><title>(2.39123,0)</title></rect><rect x="468" y="200" width="6" height="0" stroke="black" stroke-width="1" fill="blue" opacity="1" tooltip="enable"><title>(2.42229,0)</title></rect><rect x="474" y="199.979" width="6" height="0.0213516" stroke="black" stroke-width="1" fill="blue" opacity="1" tooltip="enable"><title>(2.45335,1)</title></rect><rect x="480" y="200" width="6" height="0" stroke="black" stroke-width="1" fill="blue" opacity="1" tooltip="enable"><title>(2.4844,0)</title></rect><rect x="486" y="199.979" width="6" height="0.0213516" stroke="black" stroke-width="1" fill="blue" opacity="1" tooltip="enable"><title>(2.51546,1)</title></rect><rect x="492" y="200" width="6" height="0" stroke="black" stroke-width="1" fill="blue" opacity="1" tooltip="enable"><title>(2.54651,0)</title></rect><rect x="498" y="200" width="6" height="0" stroke="black" stroke-width="1" fill="blue" opacity="1" tooltip="enable"><title>(2.57756,0)</title></rect><rect x="504" y="200" width="6" height="0" stroke="black" stroke-width="1" fill="blue" opacity="1" tooltip="enable"><title>(2.60862,0)</title></rect><rect x="510" y="199.979" width="6" height="0.0213516" stroke="black" stroke-width="1" fill="blue" opacity="1" tooltip="enable"><title>(2.63968,1)</title></rect><rect x="516" y="199.979" width="6" height="0.0213516" stroke="black" stroke-width="1" fill="blue" opacity="1" tooltip="enable"><title>(2.67073,1)</title></rect><rect x="522" y="200" width="6" height="0" stroke="black" stroke-width="1" fill="blue" opacity="1" tooltip="enable"><title>(2.70179,0)</title></rect><rect x="528" y="199.979" width="6" height="0.0213516" stroke="black" stroke-width="1" fill="blue" opacity="1" tooltip="enable"><title>(2.73284,1)</title></rect><rect x="534" y="200" width="6" height="0" stroke="black" stroke-width="1" fill="blue" opacity="1" tooltip="enable"><title>(2.7639,0)</title></rect><rect x="540" y="200" width="6" height="0" stroke="black" stroke-width="1" fill="blue" opacity="1" tooltip="enable"><title>(2.79495,0)</title></rect><rect x="546" y="200" width="6" height="0" stroke="black" stroke-width="1" fill="blue" opacity="1" tooltip="enable"><title>(2.826,0)</title></rect><rect x="552" y="199.979" width="6" height="0.0213516" stroke="black" stroke-width="1" fill="blue" opacity="1" tooltip="enable"><title>(2.85706,1)</title></rect><rect x="558" y="200" width="6" height="0" stroke="black" stroke-width="1" fill="blue" opacity="1" tooltip="enable"><title>(2.88811,0)</title></rect><rect x="564" y="200" width="6" height="0" stroke="black" stroke-width="1" fill="blue" opacity="1" tooltip="enable"><title>(2.91917,0)</title></rect><rect x="570" y="200" width="6" height="0" stroke="black" stroke-width="1" fill="blue" opacity="1" tooltip="enable"><title>(2.95022,0)</title></rect><rect x="576" y="200" width="6" height="0" stroke="black" stroke-width="1" fill="blue" opacity="1" tooltip="enable"><title>(2.98128,0)</title></rect><rect x="582" y="200" width="6" height="0" stroke="black" stroke-width="1" fill="blue" opacity="1" tooltip="enable"><title>(3.01234,0)</title></rect><rect x="588" y="200" width="6" height="0" stroke="black" stroke-width="1" fill="blue" opacity="1" tooltip="enable"><title>(3.04339,0)</title></rect><rect x="594" y="199.979" width="6" height="0.0213516" stroke="black" stroke-width="1" fill="blue" opacity="1" tooltip="enable"><title>(3.07445,1)</title></rect><text x="30" y="240" font-size="20" fill="black">0</text>
<text x="600" y="240" font-size="20" fill="black">3.1055</text>
<polyline points="0,220,600,220" stroke="black" stroke-width="1" fill="none" opacity="1"/>
<text x="720" y="20" font-size="20" fill="black">9367</text>
<text x="720" y="200" font-size="20" fill="black">0</text>
<polyline points="660,0,660,200" stroke="black" stroke-width="1" fill="none" opacity="1"/>
</svg>