<?xml version="1.0" standalone="yes"?>
<!-- SVG graphic -->
<svg xmlns='http://www.w3.org/2000/svg' xmlns:xlink='http://www.w3.org/1999/xlink'
width="75px" height="75px" preserveAspectRatio="xMinYMin meet" viewBox="0 0 75 75" version="1.1">
<rect x="5" y="0" width="2.5" height="2.5" fill="rgb(34,0,220)" opacity="1"/>
<rect x="10" y="0" width="2.5" height="2.5" fill="rgb(23,0,231)" opacity="1"/>
<rect x="15" y="0" width="2.5" height="2.5" fill="rgb(14,0,240)" opacity="1"/>
<rect x="20" y="0" width="2.5" height="2.5" fill="rgb(12,0,242)" opacity="1"/>
<rect x="25" y="0" width="2.5" height="2.5" fill="rgb(12,0,242)" opacity="1"/>
<rect x="30" y="0" width="2.5" height="2.5" fill="rgb(11,0,243)" opacity="1"/>
<rect x="35" y="0" width="2.5" height="2.5" fill="rgb(76,0,178)" opacity="1"/>
<rect x="40" y="0" width="2.5" height="2.5" fill="rgb(7,0,247)" opacity="1"/>
<rect x="50" y="0" width="2.5" height="2.5" fill="rgb(75,0,179)" opacity="1"/>
<rect x="55" y="0" width="2.5" height="2.5" fill="rgb(43,0,211)" opacity="1"/>
<rect x="10" y="5" width="2.5" height="2.5" fill="rgb(90,0,164)" opacity="1"/>
<rect x="15" y="5" width="2.5" height="2.5" fill="rgb(58,0,196)" opacity="1"/>
<rect x="20" y="5" width="2.5" height="2.5" fill="rgb(48,0,206)" opacity="1"/>
<rect x="25" y="5" width="2.5" height="2.5" fill="rgb(31,0,223)" opacity="1"/>
<rect x="30" y="5" width="2.5" height="2.5" fill="rgb(20,0,234)" opacity="1"/>
<rect x="35" y="5" width="2.5" height="2.5" fill="rgb(75,0,179)" opacity="1"/>
<rect x="40" y="5" width="2.5" height="2.5" fill="rgb(9,0,245)" opacity="1"/>
<rect x="45" y="5" width="2.5" height="2.5" fill="rgb(4,0,250)" opacity="1"/>
<rect x="50" y="5" width="2.5" height="2.5" fill="rgb(82,0,172)" opacity="1"/>
<rect x="55" y="5" width="2.5" height="2.5" fill="rgb(118,0,136)" opacity="1"/>
<rect x="15" y="10" width="2.5" height="2.5" fill="rgb(87,0,167)" opacity="1"/>
<rect x="20" y="10" width="2.5" height="2.5" fill="rgb(67,0,187)" opacity="1"/>
<rect x="25" y="10" width="2.5" height="2.5" fill="rgb(41,0,213)" opacity="1"/>
<rect x="30" y="10" width="2.5" height="2.5" fill="rgb(28,0,226)" opacity="1"/>
<rect x="35" y="10" width="2.5" height="2.5" fill="rgb(49,0,205)" opacity="1"/>
<rect x="40" y="10" width="2.5" height="2.5" fill="rgb(14,0,240)" opacity="1"/>
<rect x="45" y="10" width="2.5" height="2.5" fill="rgb(6,0,248)" opacity="1"/>
<rect x="50" y="10" width="2.5" height="2.5" fill="rgb(57,0,197)" opacity="1"/>
<rect x="55" y="10" width="2.5" height="2.5" fill="rgb(76,0,178)" opacity="1"/>
<rect x="20" y="15" width="2.5" height="2.5" fill="rgb(96,0,158)" opacity="1"/>
<rect x="25" y="15" width="2.5" height="2.5" fill="rgb(51,0,203)" opacity="1"/>
<rect x="30" y="15" width="2.5" height="2.5" fill="rgb(35,0,219)" opacity="1"/>
<rect x="35" y="15" width="2.5" height="2.5" fill="rgb(31,0,223)" opacity="1"/>
<rect x="40" y="15" width="2.5" height="2.5" fill="rgb(16,0,238)" opacity="1"/>
<rect x="45" y="15" width="2.5" height="2.5" fill="rgb(6,0,248)" opacity="1"/>
<rect x="50" y="15" width="2.5" height="2.5" fill="rgb(34,0,220)" opacity="1"/>
<rect x="55" y="15" width="2.5" height="2.5" fill="rgb(54,0,200)" opacity="1"/>
<rect x="25" y="20" width="2.5" height="2.5" fill="rgb(76,0,178)" opacity="1"/>
<rect x="30" y="20" width="2.5" height="2.5" fill="rgb(54,0,200)" opacity="1"/>
<rect x="35" y="20" width="2.5" height="2.5" fill="rgb(25,0,229)" opacity="1"/>
<rect x="40" y="20" width="2.5" height="2.5" fill="rgb(27,0,227)" opacity="1"/>
<rect x="45" y="20" width="2.5" height="2.5" fill="rgb(10,0,244)" opacity="1"/>
<rect x="50" y="20" width="2.5" height="2.5" fill="rgb(27,0,227)" opacity="1"/>
<rect x="55" y="20" width="2.5" height="2.5" fill="rgb(38,0,216)" opacity="1"/>
<rect x="30" y="25" width="2.5" height="2.5" fill="rgb(85,0,169)" opacity="1"/>
<rect x="35" y="25" width="2.5" height="2.5" fill="rgb(21,0,233)" opacity="1"/>
<rect x="40" y="25" width="2.5" height="2.5" fill="rgb(40,0,214)" opacity="1"/>
<rect x="45" y="25" width="2.5" height="2.5" fill="rgb(21,0,233)" opacity="1"/>
<rect x="50" y="25" width="2.5" height="2.5" fill="rgb(22,0,232)" opacity="1"/>
<rect x="55" y="25" width="2.5" height="2.5" fill="rgb(24,0,230)" opacity="1"/>
<rect x="35" y="30" width="2.5" height="2.5" fill="rgb(13,0,241)" opacity="1"/>
<rect x="40" y="30" width="2.5" height="2.5" fill="rgb(85,0,169)" opacity="1"/>
<rect x="45" y="30" width="2.5" height="2.5" fill="rgb(37,0,217)" opacity="1"/>
<rect x="50" y="30" width="2.5" height="2.5" fill="rgb(13,0,241)" opacity="1"/>
<rect x="55" y="30" width="2.5" height="2.5" fill="rgb(17,0,237)" opacity="1"/>
<rect x="40" y="35" width="2.5" height="2.5" fill="rgb(7,0,247)" opacity="1"/>
<rect x="45" y="35" width="2.5" height="2.5" fill="rgb(3,0,251)" opacity="1"/>
<rect x="50" y="35" width="2.5" height="2.5" fill="rgb(255,0,0)" opacity="1"/>
<rect x="55" y="35" width="2.5" height="2.5" fill="rgb(97,0,157)" opacity="1"/>
<rect x="45" y="40" width="2.5" height="2.5" fill="rgb(52,0,202)" opacity="1"/>
<rect x="50" y="40" width="2.5" height="2.5" fill="rgb(7,0,247)" opacity="1"/>
<rect x="55" y="40" width="2.5" height="2.5" fill="rgb(8,0,246)" opacity="1"/>
<rect x="50" y="45" width="2.5" height="2.5" fill="rgb(5,0,249)" opacity="1"/>
<rect x="55" y="45" width="2.5" height="2.5" fill="rgb(5,0,249)" opacity="1"/>
<rect x="55" y="50" width="2.5" height="2.5" fill="rgb(97,0,157)" opacity="1"/>
<text x="65" y="5" font-size="5" fill="black">0</text>
<text x="65" y="55" font-size="5" fill="black">12</text>
<polyline points="65,10,65,50" stroke="black" stroke-width="1" fill="none" opacity="1"/>
<text x="5" y="65" font-size="5" fill="black">0</text>
<text x="55" y="65" font-size="5" fill="black">12</text>
<polyline points="10,65,50,65" stroke="black" stroke-width="1" fill="none" opacity="1"/>
</svg>