<?xml version="1.0" encoding="UTF-8" standalone="no"?>
<!DOCTYPE svg PUBLIC "-//W3C//DTD SVG 1.1//EN"
 "http://www.w3.org/Graphics/SVG/1.1/DTD/svg11.dtd">
<!-- Generated by graphviz version 2.43.0 (0)
 -->
<!-- Title: 1 Pages: 1 -->
<svg width="331pt" height="356pt"
 viewBox="0.00 0.00 331.38 356.22" xmlns="http://www.w3.org/2000/svg" xmlns:xlink="http://www.w3.org/1999/xlink">
<g id="graph0" class="graph" transform="scale(1 1) rotate(0) translate(4 352.22)">
<title>1</title>
<polygon fill="white" stroke="transparent" points="-4,4 -4,-352.22 327.38,-352.22 327.38,4 -4,4"/>
<!-- n10 -->
<g id="node1" class="node">
<title>n10</title>
<ellipse fill="none" stroke="black" cx="28.6" cy="-203.66" rx="28.7" ry="28.7"/>
<text text-anchor="middle" x="28.6" y="-199.96" font-family="Times,serif" font-size="14.00">n10</text>
</g>
<!-- n11 -->
<g id="node2" class="node">
<title>n11</title>
<ellipse fill="none" stroke="black" cx="288.13" cy="-235.28" rx="28.7" ry="28.7"/>
<text text-anchor="middle" x="288.13" y="-231.58" font-family="Times,serif" font-size="14.00">n11</text>
</g>
<!-- n10&#45;&#45;n11 -->
<g id="edge1" class="edge">
<title>n10&#45;&#45;n11</title>
<path fill="none" stroke="black" d="M57.36,-207.17C107.38,-213.26 209.8,-225.74 259.63,-231.81"/>
</g>
<!-- n9 -->
<g id="node3" class="node">
<title>n9</title>
<ellipse fill="none" stroke="black" cx="203.9" cy="-22.75" rx="23" ry="23"/>
<text text-anchor="middle" x="203.9" y="-19.05" font-family="Times,serif" font-size="14.00">n9</text>
</g>
<!-- n9&#45;&#45;n10 -->
<g id="edge3" class="edge">
<title>n9&#45;&#45;n10</title>
<path fill="none" stroke="black" d="M188.03,-39.12C156,-72.17 83.69,-146.8 48.54,-183.08"/>
</g>
<!-- n9&#45;&#45;n11 -->
<g id="edge2" class="edge">
<title>n9&#45;&#45;n11</title>
<path fill="none" stroke="black" d="M212.28,-43.9C227.72,-82.86 260.61,-165.84 277.55,-208.59"/>
</g>
<!-- n8 -->
<g id="node4" class="node">
<title>n8</title>
<ellipse fill="none" stroke="black" cx="169.67" cy="-308.75" rx="23" ry="23"/>
<text text-anchor="middle" x="169.67" y="-305.05" font-family="Times,serif" font-size="14.00">n8</text>
</g>
<!-- n8&#45;&#45;n10 -->
<g id="edge5" class="edge">
<title>n8&#45;&#45;n10</title>
<path fill="none" stroke="black" d="M151.22,-295.01C125.68,-275.98 79.55,-241.62 51.73,-220.9"/>
</g>
<!-- n8&#45;&#45;n11 -->
<g id="edge4" class="edge">
<title>n8&#45;&#45;n11</title>
<path fill="none" stroke="black" d="M189.23,-296.61C209.6,-283.98 241.56,-264.16 263.61,-250.49"/>
</g>
<!-- n8&#45;&#45;n9 -->
<g id="edge6" class="edge">
<title>n8&#45;&#45;n9</title>
<path fill="none" stroke="black" d="M172.41,-285.83C178.83,-232.14 194.8,-98.78 201.19,-45.38"/>
</g>
<!-- n7 -->
<g id="node5" class="node">
<title>n7</title>
<ellipse fill="none" stroke="black" cx="243.12" cy="-294.62" rx="23" ry="23"/>
<text text-anchor="middle" x="243.12" y="-290.92" font-family="Times,serif" font-size="14.00">n7</text>
</g>
<!-- n7&#45;&#45;n10 -->
<g id="edge8" class="edge">
<title>n7&#45;&#45;n10</title>
<path fill="none" stroke="black" d="M222.16,-285.74C182.83,-269.06 98.08,-233.12 54.95,-214.84"/>
</g>
<!-- n7&#45;&#45;n11 -->
<g id="edge7" class="edge">
<title>n7&#45;&#45;n11</title>
<path fill="none" stroke="black" d="M256.87,-276.5C261.21,-270.77 266.07,-264.36 270.64,-258.34"/>
</g>
<!-- n7&#45;&#45;n9 -->
<g id="edge9" class="edge">
<title>n7&#45;&#45;n9</title>
<path fill="none" stroke="black" d="M239.84,-271.91C232.46,-220.74 214.59,-96.88 207.19,-45.59"/>
</g>
<!-- n7&#45;&#45;n8 -->
<g id="edge10" class="edge">
<title>n7&#45;&#45;n8</title>
<path fill="none" stroke="black" d="M220.68,-298.94C211.65,-300.67 201.26,-302.67 192.22,-304.41"/>
</g>
<!-- n6 -->
<g id="node6" class="node">
<title>n6</title>
<ellipse fill="none" stroke="black" cx="110.14" cy="-228.1" rx="23" ry="23"/>
<text text-anchor="middle" x="110.14" y="-224.4" font-family="Times,serif" font-size="14.00">n6</text>
</g>
<!-- n6&#45;&#45;n10 -->
<g id="edge12" class="edge">
<title>n6&#45;&#45;n10</title>
<path fill="none" stroke="black" d="M88.29,-221.55C78.38,-218.58 66.56,-215.04 56.06,-211.89"/>
</g>
<!-- n6&#45;&#45;n11 -->
<g id="edge11" class="edge">
<title>n6&#45;&#45;n11</title>
<path fill="none" stroke="black" d="M133.05,-229.02C165.35,-230.33 224.25,-232.7 259.43,-234.12"/>
</g>
<!-- n6&#45;&#45;n9 -->
<g id="edge13" class="edge">
<title>n6&#45;&#45;n9</title>
<path fill="none" stroke="black" d="M119.65,-207.28C137.62,-167.92 176.38,-83.02 194.37,-43.62"/>
</g>
<!-- n6&#45;&#45;n8 -->
<g id="edge14" class="edge">
<title>n6&#45;&#45;n8</title>
<path fill="none" stroke="black" d="M123.95,-246.81C133.63,-259.93 146.52,-277.38 156.14,-290.42"/>
</g>
<!-- n6&#45;&#45;n7 -->
<g id="edge15" class="edge">
<title>n6&#45;&#45;n7</title>
<path fill="none" stroke="black" d="M130.63,-238.35C155.54,-250.81 197.36,-271.74 222.39,-284.25"/>
</g>
<!-- n5 -->
<g id="node7" class="node">
<title>n5</title>
<ellipse fill="none" stroke="black" cx="107.38" cy="-67.62" rx="23" ry="23"/>
<text text-anchor="middle" x="107.38" y="-63.92" font-family="Times,serif" font-size="14.00">n5</text>
</g>
<!-- n5&#45;&#45;n10 -->
<g id="edge17" class="edge">
<title>n5&#45;&#45;n10</title>
<path fill="none" stroke="black" d="M95.92,-87.4C81.93,-111.57 58.23,-152.49 43.01,-178.78"/>
</g>
<!-- n5&#45;&#45;n11 -->
<g id="edge16" class="edge">
<title>n5&#45;&#45;n11</title>
<path fill="none" stroke="black" d="M124.06,-83.09C157.1,-113.73 230.78,-182.08 267.09,-215.76"/>
</g>
<!-- n5&#45;&#45;n9 -->
<g id="edge18" class="edge">
<title>n5&#45;&#45;n9</title>
<path fill="none" stroke="black" d="M128.32,-57.88C144.51,-50.36 166.81,-39.99 182.99,-32.47"/>
</g>
<!-- n5&#45;&#45;n8 -->
<g id="edge19" class="edge">
<title>n5&#45;&#45;n8</title>
<path fill="none" stroke="black" d="M113.13,-89.87C124.99,-135.81 152.08,-240.66 163.93,-286.55"/>
</g>
<!-- n5&#45;&#45;n7 -->
<g id="edge20" class="edge">
<title>n5&#45;&#45;n7</title>
<path fill="none" stroke="black" d="M119.19,-87.37C144.92,-130.41 205.81,-232.23 231.43,-275.08"/>
</g>
<!-- n5&#45;&#45;n6 -->
<g id="edge21" class="edge">
<title>n5&#45;&#45;n6</title>
<path fill="none" stroke="black" d="M107.77,-90.61C108.3,-121.12 109.22,-174.66 109.75,-205.15"/>
</g>
<!-- n4 -->
<g id="node8" class="node">
<title>n4</title>
<ellipse fill="none" stroke="black" cx="300.63" cy="-159.77" rx="23" ry="23"/>
<text text-anchor="middle" x="300.63" y="-156.07" font-family="Times,serif" font-size="14.00">n4</text>
</g>
<!-- n4&#45;&#45;n10 -->
<g id="edge23" class="edge">
<title>n4&#45;&#45;n10</title>
<path fill="none" stroke="black" d="M277.91,-163.43C228.49,-171.41 111.34,-190.31 57.08,-199.07"/>
</g>
<!-- n4&#45;&#45;n11 -->
<g id="edge22" class="edge">
<title>n4&#45;&#45;n11</title>
<path fill="none" stroke="black" d="M296.88,-182.42C295.6,-190.16 294.15,-198.9 292.81,-207.02"/>
</g>
<!-- n4&#45;&#45;n9 -->
<g id="edge24" class="edge">
<title>n4&#45;&#45;n9</title>
<path fill="none" stroke="black" d="M287.38,-141C268.96,-114.91 235.8,-67.93 217.29,-41.73"/>
</g>
<!-- n4&#45;&#45;n8 -->
<g id="edge25" class="edge">
<title>n4&#45;&#45;n8</title>
<path fill="none" stroke="black" d="M285.61,-176.86C260.48,-205.44 210.2,-262.64 184.92,-291.4"/>
</g>
<!-- n4&#45;&#45;n7 -->
<g id="edge26" class="edge">
<title>n4&#45;&#45;n7</title>
<path fill="none" stroke="black" d="M291.64,-180.84C280.9,-206.03 263.03,-247.94 252.23,-273.26"/>
</g>
<!-- n4&#45;&#45;n6 -->
<g id="edge27" class="edge">
<title>n4&#45;&#45;n6</title>
<path fill="none" stroke="black" d="M279.15,-167.47C242.57,-180.6 168.57,-207.14 131.84,-220.32"/>
</g>
<!-- n4&#45;&#45;n5 -->
<g id="edge28" class="edge">
<title>n4&#45;&#45;n5</title>
<path fill="none" stroke="black" d="M279.95,-149.91C242.85,-132.22 165.41,-95.29 128.2,-77.55"/>
</g>
<!-- n3 -->
<g id="node9" class="node">
<title>n3</title>
<ellipse fill="none" stroke="black" cx="48.5" cy="-120.94" rx="23" ry="23"/>
<text text-anchor="middle" x="48.5" y="-117.24" font-family="Times,serif" font-size="14.00">n3</text>
</g>
<!-- n3&#45;&#45;n10 -->
<g id="edge30" class="edge">
<title>n3&#45;&#45;n10</title>
<path fill="none" stroke="black" d="M43.17,-143.11C40.75,-153.16 37.86,-165.15 35.3,-175.8"/>
</g>
<!-- n3&#45;&#45;n11 -->
<g id="edge29" class="edge">
<title>n3&#45;&#45;n11</title>
<path fill="none" stroke="black" d="M69.35,-130.89C113.07,-151.75 214.28,-200.04 262.14,-222.88"/>
</g>
<!-- n3&#45;&#45;n9 -->
<g id="edge31" class="edge">
<title>n3&#45;&#45;n9</title>
<path fill="none" stroke="black" d="M67.87,-108.7C97.64,-89.89 154.36,-54.05 184.28,-35.14"/>
</g>
<!-- n3&#45;&#45;n8 -->
<g id="edge32" class="edge">
<title>n3&#45;&#45;n8</title>
<path fill="none" stroke="black" d="M61.01,-140.33C84.29,-176.41 134,-253.46 157.22,-289.46"/>
</g>
<!-- n3&#45;&#45;n7 -->
<g id="edge33" class="edge">
<title>n3&#45;&#45;n7</title>
<path fill="none" stroke="black" d="M65.77,-136.35C102.7,-169.31 188.99,-246.32 225.88,-279.25"/>
</g>
<!-- n3&#45;&#45;n6 -->
<g id="edge34" class="edge">
<title>n3&#45;&#45;n6</title>
<path fill="none" stroke="black" d="M59.95,-140.85C71.02,-160.09 87.7,-189.09 98.75,-208.3"/>
</g>
<!-- n3&#45;&#45;n5 -->
<g id="edge35" class="edge">
<title>n3&#45;&#45;n5</title>
<path fill="none" stroke="black" d="M65.53,-105.52C73.27,-98.5 82.42,-90.22 90.18,-83.19"/>
</g>
<!-- n3&#45;&#45;n4 -->
<g id="edge36" class="edge">
<title>n3&#45;&#45;n4</title>
<path fill="none" stroke="black" d="M71.32,-124.45C119.32,-131.85 230.25,-148.93 278.04,-156.29"/>
</g>
<!-- n2 -->
<g id="node10" class="node">
<title>n2</title>
<ellipse fill="none" stroke="black" cx="253.18" cy="-96.59" rx="23" ry="23"/>
<text text-anchor="middle" x="253.18" y="-92.89" font-family="Times,serif" font-size="14.00">n2</text>
</g>
<!-- n2&#45;&#45;n10 -->
<g id="edge38" class="edge">
<title>n2&#45;&#45;n10</title>
<path fill="none" stroke="black" d="M232.45,-106.48C191.41,-126.04 99.85,-169.69 54.74,-191.2"/>
</g>
<!-- n2&#45;&#45;n11 -->
<g id="edge37" class="edge">
<title>n2&#45;&#45;n11</title>
<path fill="none" stroke="black" d="M258.79,-118.88C264.85,-142.92 274.51,-181.25 281.08,-207.31"/>
</g>
<!-- n2&#45;&#45;n9 -->
<g id="edge39" class="edge">
<title>n2&#45;&#45;n9</title>
<path fill="none" stroke="black" d="M240.49,-77.58C233.13,-66.55 223.89,-52.72 216.54,-41.7"/>
</g>
<!-- n2&#45;&#45;n8 -->
<g id="edge40" class="edge">
<title>n2&#45;&#45;n8</title>
<path fill="none" stroke="black" d="M244.71,-118.1C228.66,-158.87 194,-246.93 178.03,-287.49"/>
</g>
<!-- n2&#45;&#45;n7 -->
<g id="edge41" class="edge">
<title>n2&#45;&#45;n7</title>
<path fill="none" stroke="black" d="M252,-119.7C250.07,-157.86 246.22,-233.61 244.28,-271.67"/>
</g>
<!-- n2&#45;&#45;n6 -->
<g id="edge42" class="edge">
<title>n2&#45;&#45;n6</title>
<path fill="none" stroke="black" d="M236.21,-112.2C208.68,-137.51 154.6,-187.22 127.09,-212.52"/>
</g>
<!-- n2&#45;&#45;n5 -->
<g id="edge43" class="edge">
<title>n2&#45;&#45;n5</title>
<path fill="none" stroke="black" d="M230.72,-92.13C203.4,-86.7 157.54,-77.59 130.11,-72.13"/>
</g>
<!-- n2&#45;&#45;n4 -->
<g id="edge44" class="edge">
<title>n2&#45;&#45;n4</title>
<path fill="none" stroke="black" d="M266.9,-114.87C273.14,-123.18 280.52,-132.99 286.77,-141.32"/>
</g>
<!-- n2&#45;&#45;n3 -->
<g id="edge45" class="edge">
<title>n2&#45;&#45;n3</title>
<path fill="none" stroke="black" d="M230.49,-99.29C191.15,-103.97 110.7,-113.54 71.29,-118.23"/>
</g>
<!-- n1 -->
<g id="node11" class="node">
<title>n1</title>
<ellipse fill="none" stroke="black" cx="174.84" cy="-153" rx="23" ry="23"/>
<text text-anchor="middle" x="174.84" y="-149.3" font-family="Times,serif" font-size="14.00">n1</text>
</g>
<!-- n1&#45;&#45;n10 -->
<g id="edge47" class="edge">
<title>n1&#45;&#45;n10</title>
<path fill="none" stroke="black" d="M153.26,-160.47C127.36,-169.45 83.9,-184.5 55.75,-194.26"/>
</g>
<!-- n1&#45;&#45;n11 -->
<g id="edge46" class="edge">
<title>n1&#45;&#45;n11</title>
<path fill="none" stroke="black" d="M193.3,-166.4C212.86,-180.61 243.8,-203.08 264.98,-218.46"/>
</g>
<!-- n1&#45;&#45;n9 -->
<g id="edge48" class="edge">
<title>n1&#45;&#45;n9</title>
<path fill="none" stroke="black" d="M179.84,-130.61C185.16,-106.75 193.54,-69.19 198.87,-45.28"/>
</g>
<!-- n1&#45;&#45;n8 -->
<g id="edge49" class="edge">
<title>n1&#45;&#45;n8</title>
<path fill="none" stroke="black" d="M174.08,-175.98C173.1,-205.51 171.4,-256.47 170.42,-285.92"/>
</g>
<!-- n1&#45;&#45;n7 -->
<g id="edge50" class="edge">
<title>n1&#45;&#45;n7</title>
<path fill="none" stroke="black" d="M184.77,-173.59C197.71,-200.44 220.23,-247.14 233.18,-274.01"/>
</g>
<!-- n1&#45;&#45;n6 -->
<g id="edge51" class="edge">
<title>n1&#45;&#45;n6</title>
<path fill="none" stroke="black" d="M159.84,-170.42C149.38,-182.55 135.5,-198.66 125.07,-210.78"/>
</g>
<!-- n1&#45;&#45;n5 -->
<g id="edge52" class="edge">
<title>n1&#45;&#45;n5</title>
<path fill="none" stroke="black" d="M160.54,-134.89C149.09,-120.4 133.11,-100.18 121.67,-85.7"/>
</g>
<!-- n1&#45;&#45;n4 -->
<g id="edge53" class="edge">
<title>n1&#45;&#45;n4</title>
<path fill="none" stroke="black" d="M197.62,-154.22C220.28,-155.44 254.85,-157.3 277.6,-158.53"/>
</g>
<!-- n1&#45;&#45;n3 -->
<g id="edge54" class="edge">
<title>n1&#45;&#45;n3</title>
<path fill="none" stroke="black" d="M152.55,-147.34C129.45,-141.48 93.58,-132.38 70.57,-126.54"/>
</g>
<!-- n1&#45;&#45;n2 -->
<g id="edge55" class="edge">
<title>n1&#45;&#45;n2</title>
<path fill="none" stroke="black" d="M193.41,-139.63C205.8,-130.71 222.05,-119.01 234.48,-110.06"/>
</g>
<!-- n0 -->
<g id="node12" class="node">
<title>n0</title>
<ellipse fill="none" stroke="black" cx="76.44" cy="-325.47" rx="23" ry="23"/>
<text text-anchor="middle" x="76.44" y="-321.77" font-family="Times,serif" font-size="14.00">n0</text>
</g>
<!-- n0&#45;&#45;n10 -->
<g id="edge57" class="edge">
<title>n0&#45;&#45;n10</title>
<path fill="none" stroke="black" d="M68.1,-304.26C60.07,-283.81 47.89,-252.79 39.18,-230.6"/>
</g>
<!-- n0&#45;&#45;n11 -->
<g id="edge56" class="edge">
<title>n0&#45;&#45;n11</title>
<path fill="none" stroke="black" d="M97.51,-316.5C136.31,-299.96 218.97,-264.75 261.55,-246.6"/>
</g>
<!-- n0&#45;&#45;n8 -->
<g id="edge58" class="edge">
<title>n0&#45;&#45;n8</title>
<path fill="none" stroke="black" d="M99,-321.42C113.55,-318.81 132.41,-315.43 146.98,-312.82"/>
</g>
<!-- n0&#45;&#45;n7 -->
<g id="edge59" class="edge">
<title>n0&#45;&#45;n7</title>
<path fill="none" stroke="black" d="M98.91,-321.31C130.82,-315.41 188.88,-304.66 220.73,-298.77"/>
</g>
<!-- n0&#45;&#45;n6 -->
<g id="edge60" class="edge">
<title>n0&#45;&#45;n6</title>
<path fill="none" stroke="black" d="M83.92,-303.86C89.5,-287.73 97.1,-265.77 102.68,-249.65"/>
</g>
<!-- n0&#45;&#45;n5 -->
<g id="edge61" class="edge">
<title>n0&#45;&#45;n5</title>
<path fill="none" stroke="black" d="M79.18,-302.59C85.05,-253.66 98.77,-139.34 104.64,-90.45"/>
</g>
<!-- n0&#45;&#45;n4 -->
<g id="edge62" class="edge">
<title>n0&#45;&#45;n4</title>
<path fill="none" stroke="black" d="M94.78,-311.91C136.82,-280.84 239.75,-204.77 282.03,-173.52"/>
</g>
<!-- n0&#45;&#45;n3 -->
<g id="edge63" class="edge">
<title>n0&#45;&#45;n3</title>
<path fill="none" stroke="black" d="M73.34,-302.8C67.97,-263.49 56.99,-183.1 51.61,-143.71"/>
</g>
<!-- n0&#45;&#45;n2 -->
<g id="edge64" class="edge">
<title>n0&#45;&#45;n2</title>
<path fill="none" stroke="black" d="M90.6,-307.13C123.78,-264.17 206.19,-157.44 239.19,-114.71"/>
</g>
<!-- n0&#45;&#45;n1 -->
<g id="edge65" class="edge">
<title>n0&#45;&#45;n1</title>
<path fill="none" stroke="black" d="M87.72,-305.69C106.66,-272.51 144.59,-206.02 163.53,-172.82"/>
</g>
</g>
</svg>
