<?xml version="1.0" standalone="yes"?>
<!-- SVG graphic -->
<svg xmlns='http://www.w3.org/2000/svg' xmlns:xlink='http://www.w3.org/1999/xlink'
width="75px" height="75px" preserveAspectRatio="xMinYMin meet" viewBox="0 0 75 75" version="1.1">
<rect x="5" y="0" width="2.5" height="2.5" fill="rgb(34,0,220)" opacity="1"/>
<rect x="10" y="0" width="2.5" height="2.5" fill="rgb(24,0,230)" opacity="1"/>
<rect x="15" y="0" width="2.5" height="2.5" fill="rgb(17,0,237)" opacity="1"/>
<rect x="20" y="0" width="2.5" height="2.5" fill="rgb(13,0,241)" opacity="1"/>
<rect x="25" y="0" width="2.5" height="2.5" fill="rgb(12,0,242)" opacity="1"/>
<rect x="30" y="0" width="2.5" height="2.5" fill="rgb(10,0,244)" opacity="1"/>
<rect x="35" y="0" width="2.5" height="2.5" fill="rgb(75,0,179)" opacity="1"/>
<rect x="40" y="0" width="2.5" height="2.5" fill="rgb(7,0,247)" opacity="1"/>
<rect x="45" y="0" width="2.5" height="2.5" fill="rgb(4,0,250)" opacity="1"/>
<rect x="50" y="0" width="2.5" height="2.5" fill="rgb(76,0,178)" opacity="1"/>
<rect x="55" y="0" width="2.5" height="2.5" fill="rgb(42,0,212)" opacity="1"/>
<rect x="10" y="5" width="2.5" height="2.5" fill="rgb(93,0,161)" opacity="1"/>
<rect x="15" y="5" width="2.5" height="2.5" fill="rgb(61,0,193)" opacity="1"/>
<rect x="20" y="5" width="2.5" height="2.5" fill="rgb(48,0,206)" opacity="1"/>
<rect x="25" y="5" width="2.5" height="2.5" fill="rgb(29,0,225)" opacity="1"/>
<rect x="30" y="5" width="2.5" height="2.5" fill="rgb(20,0,234)" opacity="1"/>
<rect x="35" y="5" width="2.5" height="2.5" fill="rgb(76,0,178)" opacity="1"/>
<rect x="40" y="5" width="2.5" height="2.5" fill="rgb(10,0,244)" opacity="1"/>
<rect x="45" y="5" width="2.5" height="2.5" fill="rgb(5,0,249)" opacity="1"/>
<rect x="50" y="5" width="2.5" height="2.5" fill="rgb(81,0,173)" opacity="1"/>
<rect x="55" y="5" width="2.5" height="2.5" fill="rgb(119,0,135)" opacity="1"/>
<rect x="15" y="10" width="2.5" height="2.5" fill="rgb(88,0,166)" opacity="1"/>
<rect x="20" y="10" width="2.5" height="2.5" fill="rgb(64,0,190)" opacity="1"/>
<rect x="25" y="10" width="2.5" height="2.5" fill="rgb(41,0,213)" opacity="1"/>
<rect x="30" y="10" width="2.5" height="2.5" fill="rgb(31,0,223)" opacity="1"/>
<rect x="35" y="10" width="2.5" height="2.5" fill="rgb(51,0,203)" opacity="1"/>
<rect x="40" y="10" width="2.5" height="2.5" fill="rgb(14,0,240)" opacity="1"/>
<rect x="45" y="10" width="2.5" height="2.5" fill="rgb(6,0,248)" opacity="1"/>
<rect x="50" y="10" width="2.5" height="2.5" fill="rgb(51,0,203)" opacity="1"/>
<rect x="55" y="10" width="2.5" height="2.5" fill="rgb(74,0,180)" opacity="1"/>
<rect x="20" y="15" width="2.5" height="2.5" fill="rgb(95,0,159)" opacity="1"/>
<rect x="25" y="15" width="2.5" height="2.5" fill="rgb(55,0,199)" opacity="1"/>
<rect x="30" y="15" width="2.5" height="2.5" fill="rgb(34,0,220)" opacity="1"/>
<rect x="35" y="15" width="2.5" height="2.5" fill="rgb(31,0,223)" opacity="1"/>
<rect x="40" y="15" width="2.5" height="2.5" fill="rgb(17,0,237)" opacity="1"/>
<rect x="45" y="15" width="2.5" height="2.5" fill="rgb(7,0,247)" opacity="1"/>
<rect x="50" y="15" width="2.5" height="2.5" fill="rgb(34,0,220)" opacity="1"/>
<rect x="55" y="15" width="2.5" height="2.5" fill="rgb(47,0,207)" opacity="1"/>
<rect x="25" y="20" width="2.5" height="2.5" fill="rgb(72,0,182)" opacity="1"/>
<rect x="30" y="20" width="2.5" height="2.5" fill="rgb(53,0,201)" opacity="1"/>
<rect x="35" y="20" width="2.5" height="2.5" fill="rgb(24,0,230)" opacity="1"/>
<rect x="40" y="20" width="2.5" height="2.5" fill="rgb(28,0,226)" opacity="1"/>
<rect x="45" y="20" width="2.5" height="2.5" fill="rgb(10,0,244)" opacity="1"/>
<rect x="50" y="20" width="2.5" height="2.5" fill="rgb(27,0,227)" opacity="1"/>
<rect x="55" y="20" width="2.5" height="2.5" fill="rgb(36,0,218)" opacity="1"/>
<rect x="30" y="25" width="2.5" height="2.5" fill="rgb(82,0,172)" opacity="1"/>
<rect x="35" y="25" width="2.5" height="2.5" fill="rgb(15,0,239)" opacity="1"/>
<rect x="40" y="25" width="2.5" height="2.5" fill="rgb(44,0,210)" opacity="1"/>
<rect x="45" y="25" width="2.5" height="2.5" fill="rgb(20,0,234)" opacity="1"/>
<rect x="50" y="25" width="2.5" height="2.5" fill="rgb(23,0,231)" opacity="1"/>
<rect x="55" y="25" width="2.5" height="2.5" fill="rgb(24,0,230)" opacity="1"/>
<rect x="35" y="30" width="2.5" height="2.5" fill="rgb(12,0,242)" opacity="1"/>
<rect x="40" y="30" width="2.5" height="2.5" fill="rgb(75,0,179)" opacity="1"/>
<rect x="45" y="30" width="2.5" height="2.5" fill="rgb(36,0,218)" opacity="1"/>
<rect x="50" y="30" width="2.5" height="2.5" fill="rgb(14,0,240)" opacity="1"/>
<rect x="55" y="30" width="2.5" height="2.5" fill="rgb(17,0,237)" opacity="1"/>
<rect x="40" y="35" width="2.5" height="2.5" fill="rgb(7,0,247)" opacity="1"/>
<rect x="45" y="35" width="2.5" height="2.5" fill="rgb(2,0,252)" opacity="1"/>
<rect x="50" y="35" width="2.5" height="2.5" fill="rgb(255,0,0)" opacity="1"/>
<rect x="55" y="35" width="2.5" height="2.5" fill="rgb(93,0,161)" opacity="1"/>
<rect x="45" y="40" width="2.5" height="2.5" fill="rgb(52,0,202)" opacity="1"/>
<rect x="50" y="40" width="2.5" height="2.5" fill="rgb(7,0,247)" opacity="1"/>
<rect x="55" y="40" width="2.5" height="2.5" fill="rgb(8,0,246)" opacity="1"/>
<rect x="50" y="45" width="2.5" height="2.5" fill="rgb(3,0,251)" opacity="1"/>
<rect x="55" y="45" width="2.5" height="2.5" fill="rgb(4,0,250)" opacity="1"/>
<rect x="55" y="50" width="2.5" height="2.5" fill="rgb(97,0,157)" opacity="1"/>
<text x="65" y="5" font-size="5" fill="black">0</text>
<text x="65" y="55" font-size="5" fill="black">12</text>
<polyline points="65,10,65,50" stroke="black" stroke-width="1" fill="none" opacity="1"/>
<text x="5" y="65" font-size="5" fill="black">0</text>
<text x="55" y="65" font-size="5" fill="black">12</text>
<polyline points="10,65,50,65" stroke="black" stroke-width="1" fill="none" opacity="1"/>
</svg>