<?xml version="1.0" standalone="yes"?>
<!-- SVG graphic -->
<svg xmlns='http://www.w3.org/2000/svg' xmlns:xlink='http://www.w3.org/1999/xlink'
width="75px" height="75px" preserveAspectRatio="xMinYMin meet" viewBox="0 0 75 75" version="1.1">
<rect x="5" y="0" width="2.5" height="2.5" fill="rgb(56,0,198)" opacity="1"/>
<rect x="10" y="0" width="2.5" height="2.5" fill="rgb(43,0,211)" opacity="1"/>
<rect x="15" y="0" width="2.5" height="2.5" fill="rgb(34,0,220)" opacity="1"/>
<rect x="20" y="0" width="2.5" height="2.5" fill="rgb(31,0,223)" opacity="1"/>
<rect x="25" y="0" width="2.5" height="2.5" fill="rgb(32,0,222)" opacity="1"/>
<rect x="30" y="0" width="2.5" height="2.5" fill="rgb(32,0,222)" opacity="1"/>
<rect x="35" y="0" width="2.5" height="2.5" fill="rgb(99,0,155)" opacity="1"/>
<rect x="40" y="0" width="2.5" height="2.5" fill="rgb(27,0,227)" opacity="1"/>
<rect x="45" y="0" width="2.5" height="2.5" fill="rgb(24,0,230)" opacity="1"/>
<rect x="50" y="0" width="2.5" height="2.5" fill="rgb(99,0,155)" opacity="1"/>
<rect x="55" y="0" width="2.5" height="2.5" fill="rgb(66,0,188)" opacity="1"/>
<rect x="10" y="5" width="2.5" height="2.5" fill="rgb(112,0,142)" opacity="1"/>
<rect x="15" y="5" width="2.5" height="2.5" fill="rgb(81,0,173)" opacity="1"/>
<rect x="20" y="5" width="2.5" height="2.5" fill="rgb(69,0,185)" opacity="1"/>
<rect x="25" y="5" width="2.5" height="2.5" fill="rgb(52,0,202)" opacity="1"/>
<rect x="30" y="5" width="2.5" height="2.5" fill="rgb(45,0,209)" opacity="1"/>
<rect x="35" y="5" width="2.5" height="2.5" fill="rgb(98,0,156)" opacity="1"/>
<rect x="40" y="5" width="2.5" height="2.5" fill="rgb(29,0,225)" opacity="1"/>
<rect x="45" y="5" width="2.5" height="2.5" fill="rgb(20,0,234)" opacity="1"/>
<rect x="50" y="5" width="2.5" height="2.5" fill="rgb(103,0,151)" opacity="1"/>
<rect x="55" y="5" width="2.5" height="2.5" fill="rgb(140,0,114)" opacity="1"/>
<rect x="15" y="10" width="2.5" height="2.5" fill="rgb(109,0,145)" opacity="1"/>
<rect x="20" y="10" width="2.5" height="2.5" fill="rgb(87,0,167)" opacity="1"/>
<rect x="25" y="10" width="2.5" height="2.5" fill="rgb(65,0,189)" opacity="1"/>
<rect x="30" y="10" width="2.5" height="2.5" fill="rgb(53,0,201)" opacity="1"/>
<rect x="35" y="10" width="2.5" height="2.5" fill="rgb(72,0,182)" opacity="1"/>
<rect x="40" y="10" width="2.5" height="2.5" fill="rgb(34,0,220)" opacity="1"/>
<rect x="45" y="10" width="2.5" height="2.5" fill="rgb(23,0,231)" opacity="1"/>
<rect x="50" y="10" width="2.5" height="2.5" fill="rgb(74,0,180)" opacity="1"/>
<rect x="55" y="10" width="2.5" height="2.5" fill="rgb(95,0,159)" opacity="1"/>
<rect x="20" y="15" width="2.5" height="2.5" fill="rgb(119,0,135)" opacity="1"/>
<rect x="25" y="15" width="2.5" height="2.5" fill="rgb(79,0,175)" opacity="1"/>
<rect x="30" y="15" width="2.5" height="2.5" fill="rgb(60,0,194)" opacity="1"/>
<rect x="35" y="15" width="2.5" height="2.5" fill="rgb(53,0,201)" opacity="1"/>
<rect x="40" y="15" width="2.5" height="2.5" fill="rgb(38,0,216)" opacity="1"/>
<rect x="45" y="15" width="2.5" height="2.5" fill="rgb(23,0,231)" opacity="1"/>
<rect x="50" y="15" width="2.5" height="2.5" fill="rgb(55,0,199)" opacity="1"/>
<rect x="55" y="15" width="2.5" height="2.5" fill="rgb(72,0,182)" opacity="1"/>
<rect x="25" y="20" width="2.5" height="2.5" fill="rgb(107,0,147)" opacity="1"/>
<rect x="30" y="20" width="2.5" height="2.5" fill="rgb(82,0,172)" opacity="1"/>
<rect x="35" y="20" width="2.5" height="2.5" fill="rgb(47,0,207)" opacity="1"/>
<rect x="40" y="20" width="2.5" height="2.5" fill="rgb(49,0,205)" opacity="1"/>
<rect x="45" y="20" width="2.5" height="2.5" fill="rgb(27,0,227)" opacity="1"/>
<rect x="50" y="20" width="2.5" height="2.5" fill="rgb(50,0,204)" opacity="1"/>
<rect x="55" y="20" width="2.5" height="2.5" fill="rgb(59,0,195)" opacity="1"/>
<rect x="30" y="25" width="2.5" height="2.5" fill="rgb(120,0,134)" opacity="1"/>
<rect x="35" y="25" width="2.5" height="2.5" fill="rgb(38,0,216)" opacity="1"/>
<rect x="40" y="25" width="2.5" height="2.5" fill="rgb(70,0,184)" opacity="1"/>
<rect x="45" y="25" width="2.5" height="2.5" fill="rgb(39,0,215)" opacity="1"/>
<rect x="50" y="25" width="2.5" height="2.5" fill="rgb(38,0,216)" opacity="1"/>
<rect x="55" y="25" width="2.5" height="2.5" fill="rgb(45,0,209)" opacity="1"/>
<rect x="35" y="30" width="2.5" height="2.5" fill="rgb(33,0,221)" opacity="1"/>
<rect x="40" y="30" width="2.5" height="2.5" fill="rgb(115,0,139)" opacity="1"/>
<rect x="45" y="30" width="2.5" height="2.5" fill="rgb(56,0,198)" opacity="1"/>
<rect x="50" y="30" width="2.5" height="2.5" fill="rgb(35,0,219)" opacity="1"/>
<rect x="55" y="30" width="2.5" height="2.5" fill="rgb(36,0,218)" opacity="1"/>
<rect x="40" y="35" width="2.5" height="2.5" fill="rgb(28,0,226)" opacity="1"/>
<rect x="45" y="35" width="2.5" height="2.5" fill="rgb(21,0,233)" opacity="1"/>
<rect x="50" y="35" width="2.5" height="2.5" fill="rgb(255,0,0)" opacity="1"/>
<rect x="55" y="35" width="2.5" height="2.5" fill="rgb(118,0,136)" opacity="1"/>
<rect x="45" y="40" width="2.5" height="2.5" fill="rgb(71,0,183)" opacity="1"/>
<rect x="50" y="40" width="2.5" height="2.5" fill="rgb(25,0,229)" opacity="1"/>
<rect x="55" y="40" width="2.5" height="2.5" fill="rgb(25,0,229)" opacity="1"/>
<rect x="50" y="45" width="2.5" height="2.5" fill="rgb(18,0,236)" opacity="1"/>
<rect x="55" y="45" width="2.5" height="2.5" fill="rgb(18,0,236)" opacity="1"/>
<rect x="55" y="50" width="2.5" height="2.5" fill="rgb(120,0,134)" opacity="1"/>
<text x="65" y="5" font-size="5" fill="black">0</text>
<text x="65" y="55" font-size="5" fill="black">12</text>
<polyline points="65,10,65,50" stroke="black" stroke-width="1" fill="none" opacity="1"/>
<text x="5" y="65" font-size="5" fill="black">0</text>
<text x="55" y="65" font-size="5" fill="black">12</text>
<polyline points="10,65,50,65" stroke="black" stroke-width="1" fill="none" opacity="1"/>
</svg>