<?xml version="1.0" encoding="UTF-8" standalone="no"?>
<!DOCTYPE svg PUBLIC "-//W3C//DTD SVG 1.1//EN"
 "http://www.w3.org/Graphics/SVG/1.1/DTD/svg11.dtd">
<!-- Generated by graphviz version 2.43.0 (0)
 -->
<!-- Title: 1 Pages: 1 -->
<svg width="315pt" height="311pt"
 viewBox="0.00 0.00 315.09 311.38" xmlns="http://www.w3.org/2000/svg" xmlns:xlink="http://www.w3.org/1999/xlink">
<g id="graph0" class="graph" transform="scale(1 1) rotate(0) translate(4 307.38)">
<title>1</title>
<polygon fill="white" stroke="transparent" points="-4,4 -4,-307.38 311.09,-307.38 311.09,4 -4,4"/>
<!-- n10 -->
<g id="node1" class="node">
<title>n10</title>
<ellipse fill="none" stroke="black" cx="28.6" cy="-143.8" rx="28.7" ry="28.7"/>
<text text-anchor="middle" x="28.6" y="-140.1" font-family="Times,serif" font-size="14.00">n10</text>
</g>
<!-- n11 -->
<g id="node2" class="node">
<title>n11</title>
<ellipse fill="none" stroke="black" cx="272.74" cy="-199.3" rx="28.7" ry="28.7"/>
<text text-anchor="middle" x="272.74" y="-195.6" font-family="Times,serif" font-size="14.00">n11</text>
</g>
<!-- n10&#45;&#45;n11 -->
<g id="edge1" class="edge">
<title>n10&#45;&#45;n11</title>
<path fill="none" stroke="black" d="M56.6,-150.16C103.57,-160.84 197.68,-182.24 244.68,-192.92"/>
</g>
<!-- n9 -->
<g id="node3" class="node">
<title>n9</title>
<ellipse fill="none" stroke="black" cx="149.05" cy="-22.75" rx="23" ry="23"/>
<text text-anchor="middle" x="149.05" y="-19.05" font-family="Times,serif" font-size="14.00">n9</text>
</g>
<!-- n9&#45;&#45;n10 -->
<g id="edge3" class="edge">
<title>n9&#45;&#45;n10</title>
<path fill="none" stroke="black" d="M132.8,-39.07C111.1,-60.89 72.64,-99.54 49,-123.29"/>
</g>
<!-- n9&#45;&#45;n11 -->
<g id="edge2" class="edge">
<title>n9&#45;&#45;n11</title>
<path fill="none" stroke="black" d="M162.29,-41.64C185.03,-74.11 231.48,-140.41 256.28,-175.8"/>
</g>
<!-- n8 -->
<g id="node4" class="node">
<title>n8</title>
<ellipse fill="none" stroke="black" cx="129.98" cy="-280.63" rx="23" ry="23"/>
<text text-anchor="middle" x="129.98" y="-276.93" font-family="Times,serif" font-size="14.00">n8</text>
</g>
<!-- n8&#45;&#45;n10 -->
<g id="edge5" class="edge">
<title>n8&#45;&#45;n10</title>
<path fill="none" stroke="black" d="M116.31,-262.18C98.04,-237.52 65.67,-193.83 45.77,-166.98"/>
</g>
<!-- n8&#45;&#45;n11 -->
<g id="edge4" class="edge">
<title>n8&#45;&#45;n11</title>
<path fill="none" stroke="black" d="M149.83,-269.33C175.42,-254.75 219.93,-229.39 247.78,-213.52"/>
</g>
<!-- n8&#45;&#45;n9 -->
<g id="edge6" class="edge">
<title>n8&#45;&#45;n9</title>
<path fill="none" stroke="black" d="M131.67,-257.75C135.29,-208.81 143.74,-94.48 147.36,-45.58"/>
</g>
<!-- n7 -->
<g id="node5" class="node">
<title>n7</title>
<ellipse fill="none" stroke="black" cx="224.01" cy="-258.64" rx="23" ry="23"/>
<text text-anchor="middle" x="224.01" y="-254.94" font-family="Times,serif" font-size="14.00">n7</text>
</g>
<!-- n7&#45;&#45;n10 -->
<g id="edge8" class="edge">
<title>n7&#45;&#45;n10</title>
<path fill="none" stroke="black" d="M204.2,-247C168.3,-225.9 92.58,-181.4 53.34,-158.34"/>
</g>
<!-- n7&#45;&#45;n11 -->
<g id="edge7" class="edge">
<title>n7&#45;&#45;n11</title>
<path fill="none" stroke="black" d="M238.63,-240.84C243.56,-234.83 249.14,-228.04 254.33,-221.72"/>
</g>
<!-- n7&#45;&#45;n9 -->
<g id="edge9" class="edge">
<title>n7&#45;&#45;n9</title>
<path fill="none" stroke="black" d="M217.09,-236.87C202.81,-191.94 170.22,-89.36 155.95,-44.47"/>
</g>
<!-- n7&#45;&#45;n8 -->
<g id="edge10" class="edge">
<title>n7&#45;&#45;n8</title>
<path fill="none" stroke="black" d="M201.73,-263.86C186.85,-267.34 167.35,-271.9 152.43,-275.38"/>
</g>
<!-- n6 -->
<g id="node6" class="node">
<title>n6</title>
<ellipse fill="none" stroke="black" cx="147.55" cy="-213.95" rx="23" ry="23"/>
<text text-anchor="middle" x="147.55" y="-210.25" font-family="Times,serif" font-size="14.00">n6</text>
</g>
<!-- n6&#45;&#45;n10 -->
<g id="edge12" class="edge">
<title>n6&#45;&#45;n10</title>
<path fill="none" stroke="black" d="M127.91,-202.36C107.58,-190.38 75.77,-171.62 53.65,-158.57"/>
</g>
<!-- n6&#45;&#45;n11 -->
<g id="edge11" class="edge">
<title>n6&#45;&#45;n11</title>
<path fill="none" stroke="black" d="M170.22,-211.29C190.94,-208.87 221.66,-205.28 244.08,-202.65"/>
</g>
<!-- n6&#45;&#45;n9 -->
<g id="edge13" class="edge">
<title>n6&#45;&#45;n9</title>
<path fill="none" stroke="black" d="M147.73,-190.88C148.02,-154.04 148.58,-82.31 148.87,-45.6"/>
</g>
<!-- n6&#45;&#45;n8 -->
<g id="edge14" class="edge">
<title>n6&#45;&#45;n8</title>
<path fill="none" stroke="black" d="M141.7,-236.15C139.82,-243.28 137.74,-251.17 135.87,-258.3"/>
</g>
<!-- n6&#45;&#45;n7 -->
<g id="edge15" class="edge">
<title>n6&#45;&#45;n7</title>
<path fill="none" stroke="black" d="M167.24,-225.46C178.57,-232.08 192.76,-240.38 204.12,-247.02"/>
</g>
<!-- n5 -->
<g id="node7" class="node">
<title>n5</title>
<ellipse fill="none" stroke="black" cx="66.86" cy="-54.44" rx="23" ry="23"/>
<text text-anchor="middle" x="66.86" y="-50.74" font-family="Times,serif" font-size="14.00">n5</text>
</g>
<!-- n5&#45;&#45;n10 -->
<g id="edge17" class="edge">
<title>n5&#45;&#45;n10</title>
<path fill="none" stroke="black" d="M57.79,-75.62C52.44,-88.11 45.63,-104.02 39.93,-117.33"/>
</g>
<!-- n5&#45;&#45;n11 -->
<g id="edge16" class="edge">
<title>n5&#45;&#45;n11</title>
<path fill="none" stroke="black" d="M85.49,-67.55C123.11,-94.01 208.03,-153.77 249.32,-182.82"/>
</g>
<!-- n5&#45;&#45;n9 -->
<g id="edge18" class="edge">
<title>n5&#45;&#45;n9</title>
<path fill="none" stroke="black" d="M88.45,-46.11C100.53,-41.45 115.54,-35.67 127.6,-31.02"/>
</g>
<!-- n5&#45;&#45;n8 -->
<g id="edge19" class="edge">
<title>n5&#45;&#45;n8</title>
<path fill="none" stroke="black" d="M73.03,-76.54C85.09,-119.78 111.7,-215.13 123.79,-258.44"/>
</g>
<!-- n5&#45;&#45;n7 -->
<g id="edge20" class="edge">
<title>n5&#45;&#45;n7</title>
<path fill="none" stroke="black" d="M80.81,-72.56C110.63,-111.31 180.3,-201.85 210.1,-240.56"/>
</g>
<!-- n5&#45;&#45;n6 -->
<g id="edge21" class="edge">
<title>n5&#45;&#45;n6</title>
<path fill="none" stroke="black" d="M77.24,-74.96C92.74,-105.59 121.74,-162.92 137.21,-193.5"/>
</g>
<!-- n4 -->
<g id="node8" class="node">
<title>n4</title>
<ellipse fill="none" stroke="black" cx="284.34" cy="-118.48" rx="23" ry="23"/>
<text text-anchor="middle" x="284.34" y="-114.78" font-family="Times,serif" font-size="14.00">n4</text>
</g>
<!-- n4&#45;&#45;n10 -->
<g id="edge23" class="edge">
<title>n4&#45;&#45;n10</title>
<path fill="none" stroke="black" d="M261.65,-120.73C215.07,-125.34 108.76,-135.86 57.41,-140.95"/>
</g>
<!-- n4&#45;&#45;n11 -->
<g id="edge22" class="edge">
<title>n4&#45;&#45;n11</title>
<path fill="none" stroke="black" d="M281.05,-141.43C279.73,-150.57 278.21,-161.2 276.83,-170.83"/>
</g>
<!-- n4&#45;&#45;n9 -->
<g id="edge24" class="edge">
<title>n4&#45;&#45;n9</title>
<path fill="none" stroke="black" d="M265.53,-105.17C239.68,-86.88 193.46,-54.18 167.7,-35.95"/>
</g>
<!-- n4&#45;&#45;n8 -->
<g id="edge25" class="edge">
<title>n4&#45;&#45;n8</title>
<path fill="none" stroke="black" d="M268.4,-135.23C238.82,-166.3 175.75,-232.55 146.06,-263.74"/>
</g>
<!-- n4&#45;&#45;n7 -->
<g id="edge26" class="edge">
<title>n4&#45;&#45;n7</title>
<path fill="none" stroke="black" d="M275.31,-139.47C263.94,-165.89 244.51,-211.03 233.1,-237.52"/>
</g>
<!-- n4&#45;&#45;n6 -->
<g id="edge27" class="edge">
<title>n4&#45;&#45;n6</title>
<path fill="none" stroke="black" d="M265.61,-131.56C239.56,-149.74 192.66,-182.47 166.5,-200.72"/>
</g>
<!-- n4&#45;&#45;n5 -->
<g id="edge28" class="edge">
<title>n4&#45;&#45;n5</title>
<path fill="none" stroke="black" d="M262.29,-111.99C220.61,-99.71 130.7,-73.24 88.97,-60.95"/>
</g>
<!-- n3 -->
<g id="node9" class="node">
<title>n3</title>
<ellipse fill="none" stroke="black" cx="107.06" cy="-118.56" rx="23" ry="23"/>
<text text-anchor="middle" x="107.06" y="-114.86" font-family="Times,serif" font-size="14.00">n3</text>
</g>
<!-- n3&#45;&#45;n10 -->
<g id="edge30" class="edge">
<title>n3&#45;&#45;n10</title>
<path fill="none" stroke="black" d="M85.2,-125.59C76.13,-128.5 65.51,-131.92 55.94,-135"/>
</g>
<!-- n3&#45;&#45;n11 -->
<g id="edge29" class="edge">
<title>n3&#45;&#45;n11</title>
<path fill="none" stroke="black" d="M127.71,-128.62C157.89,-143.33 214.05,-170.7 246.92,-186.72"/>
</g>
<!-- n3&#45;&#45;n9 -->
<g id="edge31" class="edge">
<title>n3&#45;&#45;n9</title>
<path fill="none" stroke="black" d="M116.38,-97.29C123.38,-81.31 132.93,-59.51 139.9,-43.62"/>
</g>
<!-- n3&#45;&#45;n8 -->
<g id="edge32" class="edge">
<title>n3&#45;&#45;n8</title>
<path fill="none" stroke="black" d="M110.25,-141.09C114.61,-171.97 122.41,-227.11 126.78,-258.03"/>
</g>
<!-- n3&#45;&#45;n7 -->
<g id="edge33" class="edge">
<title>n3&#45;&#45;n7</title>
<path fill="none" stroke="black" d="M121.87,-136.3C144.37,-163.24 186.89,-214.19 209.32,-241.05"/>
</g>
<!-- n3&#45;&#45;n6 -->
<g id="edge34" class="edge">
<title>n3&#45;&#45;n6</title>
<path fill="none" stroke="black" d="M116.05,-139.73C122.76,-155.53 131.88,-177.04 138.59,-192.84"/>
</g>
<!-- n3&#45;&#45;n5 -->
<g id="edge35" class="edge">
<title>n3&#45;&#45;n5</title>
<path fill="none" stroke="black" d="M94.78,-98.97C89.79,-91.01 84.04,-81.85 79.06,-73.9"/>
</g>
<!-- n3&#45;&#45;n4 -->
<g id="edge36" class="edge">
<title>n3&#45;&#45;n4</title>
<path fill="none" stroke="black" d="M129.87,-118.55C163.82,-118.53 227.28,-118.51 261.33,-118.49"/>
</g>
<!-- n2 -->
<g id="node10" class="node">
<title>n2</title>
<ellipse fill="none" stroke="black" cx="231.26" cy="-42" rx="23" ry="23"/>
<text text-anchor="middle" x="231.26" y="-38.3" font-family="Times,serif" font-size="14.00">n2</text>
</g>
<!-- n2&#45;&#45;n10 -->
<g id="edge38" class="edge">
<title>n2&#45;&#45;n10</title>
<path fill="none" stroke="black" d="M210.71,-52.32C173.48,-71.03 94.95,-110.47 54.26,-130.91"/>
</g>
<!-- n2&#45;&#45;n11 -->
<g id="edge37" class="edge">
<title>n2&#45;&#45;n11</title>
<path fill="none" stroke="black" d="M237.12,-64.21C244.53,-92.32 257.31,-140.78 265.37,-171.37"/>
</g>
<!-- n2&#45;&#45;n9 -->
<g id="edge39" class="edge">
<title>n2&#45;&#45;n9</title>
<path fill="none" stroke="black" d="M208.8,-36.74C197.1,-34 182.85,-30.66 171.2,-27.94"/>
</g>
<!-- n2&#45;&#45;n8 -->
<g id="edge40" class="edge">
<title>n2&#45;&#45;n8</title>
<path fill="none" stroke="black" d="M222.27,-63.18C203.05,-108.46 158.15,-214.26 138.95,-259.51"/>
</g>
<!-- n2&#45;&#45;n7 -->
<g id="edge41" class="edge">
<title>n2&#45;&#45;n7</title>
<path fill="none" stroke="black" d="M230.5,-64.78C229.11,-106.39 226.17,-194.23 224.77,-235.85"/>
</g>
<!-- n2&#45;&#45;n6 -->
<g id="edge42" class="edge">
<title>n2&#45;&#45;n6</title>
<path fill="none" stroke="black" d="M221.16,-62.74C205.03,-95.88 173.63,-160.39 157.55,-193.4"/>
</g>
<!-- n2&#45;&#45;n5 -->
<g id="edge43" class="edge">
<title>n2&#45;&#45;n5</title>
<path fill="none" stroke="black" d="M208.4,-43.73C177.08,-46.1 121.15,-50.33 89.79,-52.7"/>
</g>
<!-- n2&#45;&#45;n4 -->
<g id="edge44" class="edge">
<title>n2&#45;&#45;n4</title>
<path fill="none" stroke="black" d="M244.38,-60.91C252.55,-72.67 263.01,-87.75 271.19,-99.53"/>
</g>
<!-- n2&#45;&#45;n3 -->
<g id="edge45" class="edge">
<title>n2&#45;&#45;n3</title>
<path fill="none" stroke="black" d="M211.86,-53.96C188.66,-68.26 150.06,-92.05 126.74,-106.43"/>
</g>
<!-- n1 -->
<g id="node11" class="node">
<title>n1</title>
<ellipse fill="none" stroke="black" cx="203.32" cy="-120.4" rx="23" ry="23"/>
<text text-anchor="middle" x="203.32" y="-116.7" font-family="Times,serif" font-size="14.00">n1</text>
</g>
<!-- n1&#45;&#45;n10 -->
<g id="edge47" class="edge">
<title>n1&#45;&#45;n10</title>
<path fill="none" stroke="black" d="M180.47,-123.46C148.75,-127.71 91.37,-135.39 56.95,-140"/>
</g>
<!-- n1&#45;&#45;n11 -->
<g id="edge46" class="edge">
<title>n1&#45;&#45;n11</title>
<path fill="none" stroke="black" d="M218.38,-137.52C228.75,-149.31 242.6,-165.05 253.73,-177.7"/>
</g>
<!-- n1&#45;&#45;n9 -->
<g id="edge48" class="edge">
<title>n1&#45;&#45;n9</title>
<path fill="none" stroke="black" d="M192.07,-100.17C182.76,-83.41 169.59,-59.71 160.28,-42.96"/>
</g>
<!-- n1&#45;&#45;n8 -->
<g id="edge49" class="edge">
<title>n1&#45;&#45;n8</title>
<path fill="none" stroke="black" d="M193.73,-141.35C179.64,-172.14 153.48,-229.29 139.45,-259.94"/>
</g>
<!-- n1&#45;&#45;n7 -->
<g id="edge50" class="edge">
<title>n1&#45;&#45;n7</title>
<path fill="none" stroke="black" d="M206.69,-142.92C210.54,-168.63 216.79,-210.43 220.64,-236.14"/>
</g>
<!-- n1&#45;&#45;n6 -->
<g id="edge51" class="edge">
<title>n1&#45;&#45;n6</title>
<path fill="none" stroke="black" d="M191.49,-140.24C182.03,-156.12 168.82,-178.27 159.36,-194.14"/>
</g>
<!-- n1&#45;&#45;n5 -->
<g id="edge52" class="edge">
<title>n1&#45;&#45;n5</title>
<path fill="none" stroke="black" d="M182.59,-110.39C156.94,-97.99 113.52,-76.99 87.78,-64.55"/>
</g>
<!-- n1&#45;&#45;n4 -->
<g id="edge53" class="edge">
<title>n1&#45;&#45;n4</title>
<path fill="none" stroke="black" d="M226.32,-119.86C237.36,-119.6 250.55,-119.28 261.56,-119.02"/>
</g>
<!-- n1&#45;&#45;n3 -->
<g id="edge54" class="edge">
<title>n1&#45;&#45;n3</title>
<path fill="none" stroke="black" d="M180.5,-119.97C165.27,-119.67 145.31,-119.29 130.04,-119"/>
</g>
<!-- n1&#45;&#45;n2 -->
<g id="edge55" class="edge">
<title>n1&#45;&#45;n2</title>
<path fill="none" stroke="black" d="M211.1,-98.56C215.01,-87.6 219.73,-74.36 223.62,-63.45"/>
</g>
<!-- n0 -->
<g id="node12" class="node">
<title>n0</title>
<ellipse fill="none" stroke="black" cx="53.71" cy="-222.99" rx="23" ry="23"/>
<text text-anchor="middle" x="53.71" y="-219.29" font-family="Times,serif" font-size="14.00">n0</text>
</g>
<!-- n0&#45;&#45;n10 -->
<g id="edge57" class="edge">
<title>n0&#45;&#45;n10</title>
<path fill="none" stroke="black" d="M46.71,-200.93C43.78,-191.69 40.34,-180.84 37.25,-171.1"/>
</g>
<!-- n0&#45;&#45;n11 -->
<g id="edge56" class="edge">
<title>n0&#45;&#45;n11</title>
<path fill="none" stroke="black" d="M76.73,-220.5C117.04,-216.14 200.27,-207.14 244.18,-202.39"/>
</g>
<!-- n0&#45;&#45;n9 -->
<g id="edge58" class="edge">
<title>n0&#45;&#45;n9</title>
<path fill="none" stroke="black" d="M63.55,-202.32C81.87,-163.85 120.98,-81.7 139.26,-43.31"/>
</g>
<!-- n0&#45;&#45;n8 -->
<g id="edge59" class="edge">
<title>n0&#45;&#45;n8</title>
<path fill="none" stroke="black" d="M72.17,-236.95C84.16,-246.01 99.73,-257.77 111.69,-266.81"/>
</g>
<!-- n0&#45;&#45;n7 -->
<g id="edge60" class="edge">
<title>n0&#45;&#45;n7</title>
<path fill="none" stroke="black" d="M76.32,-227.73C108.98,-234.57 169.01,-247.13 201.57,-253.95"/>
</g>
<!-- n0&#45;&#45;n6 -->
<g id="edge61" class="edge">
<title>n0&#45;&#45;n6</title>
<path fill="none" stroke="black" d="M76.42,-220.8C91.07,-219.39 110.05,-217.56 124.72,-216.15"/>
</g>
<!-- n0&#45;&#45;n5 -->
<g id="edge62" class="edge">
<title>n0&#45;&#45;n5</title>
<path fill="none" stroke="black" d="M55.48,-200.26C57.99,-168.09 62.55,-109.62 65.07,-77.35"/>
</g>
<!-- n0&#45;&#45;n4 -->
<g id="edge63" class="edge">
<title>n0&#45;&#45;n4</title>
<path fill="none" stroke="black" d="M74.58,-213.53C118.38,-193.69 219.44,-147.89 263.35,-128"/>
</g>
<!-- n0&#45;&#45;n3 -->
<g id="edge64" class="edge">
<title>n0&#45;&#45;n3</title>
<path fill="none" stroke="black" d="M64.12,-202.61C73.52,-184.21 87.28,-157.27 96.67,-138.89"/>
</g>
<!-- n0&#45;&#45;n2 -->
<g id="edge65" class="edge">
<title>n0&#45;&#45;n2</title>
<path fill="none" stroke="black" d="M69.78,-206.61C103.49,-172.24 181.3,-92.93 215.1,-58.48"/>
</g>
<!-- n0&#45;&#45;n1 -->
<g id="edge66" class="edge">
<title>n0&#45;&#45;n1</title>
<path fill="none" stroke="black" d="M72.65,-210C101.43,-190.27 155.84,-152.96 184.52,-133.29"/>
</g>
</g>
</svg>
