<?xml version="1.0" encoding="UTF-8" standalone="no"?>
<!DOCTYPE svg PUBLIC "-//W3C//DTD SVG 1.1//EN"
 "http://www.w3.org/Graphics/SVG/1.1/DTD/svg11.dtd">
<!-- Generated by graphviz version 2.43.0 (0)
 -->
<!-- Title: 1 Pages: 1 -->
<svg width="732pt" height="797pt"
 viewBox="0.00 0.00 732.00 797.40" xmlns="http://www.w3.org/2000/svg" xmlns:xlink="http://www.w3.org/1999/xlink">
<g id="graph0" class="graph" transform="scale(1 1) rotate(0) translate(4 793.4)">
<title>1</title>
<polygon fill="white" stroke="transparent" points="-4,4 -4,-793.4 728,-793.4 728,4 -4,4"/>
<!-- n32 -->
<g id="node1" class="node">
<title>n32</title>
<ellipse fill="none" stroke="black" cx="242.83" cy="-125.09" rx="28.7" ry="28.7"/>
<text text-anchor="middle" x="242.83" y="-121.39" font-family="Times,serif" font-size="14.00">n32</text>
</g>
<!-- n33 -->
<g id="node2" class="node">
<title>n33</title>
<ellipse fill="none" stroke="black" cx="350.41" cy="-68.28" rx="28.7" ry="28.7"/>
<text text-anchor="middle" x="350.41" y="-64.58" font-family="Times,serif" font-size="14.00">n33</text>
</g>
<!-- n32&#45;&#45;n33 -->
<g id="edge1" class="edge">
<title>n32&#45;&#45;n33</title>
<path fill="none" stroke="black" d="M268.32,-111.62C285.47,-102.57 307.99,-90.68 325.1,-81.64"/>
</g>
<!-- n31 -->
<g id="node3" class="node">
<title>n31</title>
<ellipse fill="none" stroke="black" cx="391.79" cy="-265.76" rx="28.7" ry="28.7"/>
<text text-anchor="middle" x="391.79" y="-262.06" font-family="Times,serif" font-size="14.00">n31</text>
</g>
<!-- n31&#45;&#45;n32 -->
<g id="edge3" class="edge">
<title>n31&#45;&#45;n32</title>
<path fill="none" stroke="black" d="M370.76,-245.9C342.37,-219.09 292.08,-171.6 263.75,-144.84"/>
</g>
<!-- n31&#45;&#45;n33 -->
<g id="edge2" class="edge">
<title>n31&#45;&#45;n33</title>
<path fill="none" stroke="black" d="M385.86,-237.47C378,-199.92 364.19,-134.03 356.33,-96.52"/>
</g>
<!-- n30 -->
<g id="node4" class="node">
<title>n30</title>
<ellipse fill="none" stroke="black" cx="419.17" cy="-336.34" rx="28.7" ry="28.7"/>
<text text-anchor="middle" x="419.17" y="-332.64" font-family="Times,serif" font-size="14.00">n30</text>
</g>
<!-- n30&#45;&#45;n32 -->
<g id="edge5" class="edge">
<title>n30&#45;&#45;n32</title>
<path fill="none" stroke="black" d="M400.64,-314.13C366.77,-273.56 295.26,-187.9 261.38,-147.31"/>
</g>
<!-- n30&#45;&#45;n33 -->
<g id="edge4" class="edge">
<title>n30&#45;&#45;n33</title>
<path fill="none" stroke="black" d="M412.01,-308.41C398.8,-256.92 370.75,-147.59 357.56,-96.14"/>
</g>
<!-- n30&#45;&#45;n31 -->
<g id="edge6" class="edge">
<title>n30&#45;&#45;n31</title>
<path fill="none" stroke="black" d="M408.82,-309.66C406.64,-304.04 404.34,-298.1 402.16,-292.48"/>
</g>
<!-- n28 -->
<g id="node5" class="node">
<title>n28</title>
<ellipse fill="none" stroke="black" cx="624.03" cy="-389.36" rx="28.7" ry="28.7"/>
<text text-anchor="middle" x="624.03" y="-385.66" font-family="Times,serif" font-size="14.00">n28</text>
</g>
<!-- n28&#45;&#45;n31 -->
<g id="edge7" class="edge">
<title>n28&#45;&#45;n31</title>
<path fill="none" stroke="black" d="M598.74,-375.9C554.06,-352.12 461.71,-302.97 417.06,-279.21"/>
</g>
<!-- n28&#45;&#45;n30 -->
<g id="edge8" class="edge">
<title>n28&#45;&#45;n30</title>
<path fill="none" stroke="black" d="M595.98,-382.1C556.75,-371.95 485.94,-353.62 446.89,-343.51"/>
</g>
<!-- n29 -->
<g id="node6" class="node">
<title>n29</title>
<ellipse fill="none" stroke="black" cx="521.32" cy="-637.99" rx="28.7" ry="28.7"/>
<text text-anchor="middle" x="521.32" y="-634.29" font-family="Times,serif" font-size="14.00">n29</text>
</g>
<!-- n28&#45;&#45;n29 -->
<g id="edge9" class="edge">
<title>n28&#45;&#45;n29</title>
<path fill="none" stroke="black" d="M613.04,-415.97C593.32,-463.7 552.16,-563.34 532.38,-611.2"/>
</g>
<!-- n27 -->
<g id="node7" class="node">
<title>n27</title>
<ellipse fill="none" stroke="black" cx="557.77" cy="-386.28" rx="28.7" ry="28.7"/>
<text text-anchor="middle" x="557.77" y="-382.58" font-family="Times,serif" font-size="14.00">n27</text>
</g>
<!-- n27&#45;&#45;n31 -->
<g id="edge10" class="edge">
<title>n27&#45;&#45;n31</title>
<path fill="none" stroke="black" d="M534.34,-369.27C502.71,-346.3 446.67,-305.61 415.1,-282.69"/>
</g>
<!-- n27&#45;&#45;n30 -->
<g id="edge11" class="edge">
<title>n27&#45;&#45;n30</title>
<path fill="none" stroke="black" d="M530.72,-376.53C506.29,-367.73 470.56,-354.86 446.16,-346.06"/>
</g>
<!-- n27&#45;&#45;n28 -->
<g id="edge13" class="edge">
<title>n27&#45;&#45;n28</title>
<path fill="none" stroke="black" d="M586.64,-387.62C589.43,-387.75 592.26,-387.88 595.05,-388.01"/>
</g>
<!-- n27&#45;&#45;n29 -->
<g id="edge12" class="edge">
<title>n27&#45;&#45;n29</title>
<path fill="none" stroke="black" d="M553.66,-414.67C546.65,-463.01 532.5,-560.79 525.47,-609.33"/>
</g>
<!-- n26 -->
<g id="node8" class="node">
<title>n26</title>
<ellipse fill="none" stroke="black" cx="549.65" cy="-309.41" rx="28.7" ry="28.7"/>
<text text-anchor="middle" x="549.65" y="-305.71" font-family="Times,serif" font-size="14.00">n26</text>
</g>
<!-- n26&#45;&#45;n31 -->
<g id="edge14" class="edge">
<title>n26&#45;&#45;n31</title>
<path fill="none" stroke="black" d="M521.79,-301.71C492.94,-293.73 448.12,-281.34 419.37,-273.39"/>
</g>
<!-- n26&#45;&#45;n30 -->
<g id="edge15" class="edge">
<title>n26&#45;&#45;n30</title>
<path fill="none" stroke="black" d="M521.34,-315.25C499.45,-319.77 469.3,-325.99 447.43,-330.51"/>
</g>
<!-- n26&#45;&#45;n28 -->
<g id="edge16" class="edge">
<title>n26&#45;&#45;n28</title>
<path fill="none" stroke="black" d="M569.19,-330.42C580.04,-342.07 593.5,-356.54 604.36,-368.22"/>
</g>
<!-- n26&#45;&#45;n27 -->
<g id="edge17" class="edge">
<title>n26&#45;&#45;n27</title>
<path fill="none" stroke="black" d="M552.67,-338.03C553.35,-344.44 554.07,-351.23 554.74,-357.63"/>
</g>
<!-- n25 -->
<g id="node9" class="node">
<title>n25</title>
<ellipse fill="none" stroke="black" cx="458.53" cy="-248.96" rx="28.7" ry="28.7"/>
<text text-anchor="middle" x="458.53" y="-245.26" font-family="Times,serif" font-size="14.00">n25</text>
</g>
<!-- n25&#45;&#45;n32 -->
<g id="edge19" class="edge">
<title>n25&#45;&#45;n32</title>
<path fill="none" stroke="black" d="M433.37,-234.51C391.8,-210.64 309.29,-163.25 267.83,-139.45"/>
</g>
<!-- n25&#45;&#45;n33 -->
<g id="edge18" class="edge">
<title>n25&#45;&#45;n33</title>
<path fill="none" stroke="black" d="M443.73,-224.22C423.08,-189.71 385.86,-127.51 365.21,-93.01"/>
</g>
<!-- n25&#45;&#45;n31 -->
<g id="edge20" class="edge">
<title>n25&#45;&#45;n31</title>
<path fill="none" stroke="black" d="M430.62,-255.99C427.04,-256.89 423.39,-257.81 419.81,-258.71"/>
</g>
<!-- n25&#45;&#45;n30 -->
<g id="edge21" class="edge">
<title>n25&#45;&#45;n30</title>
<path fill="none" stroke="black" d="M446.72,-275.18C441.74,-286.24 435.96,-299.08 430.98,-310.14"/>
</g>
<!-- n25&#45;&#45;n28 -->
<g id="edge22" class="edge">
<title>n25&#45;&#45;n28</title>
<path fill="none" stroke="black" d="M480.51,-267.6C512.17,-294.46 570.26,-343.74 601.97,-370.64"/>
</g>
<!-- n25&#45;&#45;n27 -->
<g id="edge23" class="edge">
<title>n25&#45;&#45;n27</title>
<path fill="none" stroke="black" d="M475.37,-272.25C493.61,-297.51 522.57,-337.58 540.85,-362.87"/>
</g>
<!-- n25&#45;&#45;n26 -->
<g id="edge24" class="edge">
<title>n25&#45;&#45;n26</title>
<path fill="none" stroke="black" d="M482.47,-264.84C495.76,-273.66 512.24,-284.59 525.55,-293.42"/>
</g>
<!-- n24 -->
<g id="node10" class="node">
<title>n24</title>
<ellipse fill="none" stroke="black" cx="302.41" cy="-205.43" rx="28.7" ry="28.7"/>
<text text-anchor="middle" x="302.41" y="-201.73" font-family="Times,serif" font-size="14.00">n24</text>
</g>
<!-- n24&#45;&#45;n32 -->
<g id="edge26" class="edge">
<title>n24&#45;&#45;n32</title>
<path fill="none" stroke="black" d="M285.18,-182.19C277.27,-171.53 267.92,-158.92 260.02,-148.27"/>
</g>
<!-- n24&#45;&#45;n33 -->
<g id="edge25" class="edge">
<title>n24&#45;&#45;n33</title>
<path fill="none" stroke="black" d="M311.89,-178.33C320.31,-154.29 332.54,-119.34 340.95,-95.32"/>
</g>
<!-- n24&#45;&#45;n31 -->
<g id="edge27" class="edge">
<title>n24&#45;&#45;n31</title>
<path fill="none" stroke="black" d="M326.36,-221.59C339.29,-230.32 355.19,-241.06 368.08,-249.76"/>
</g>
<!-- n24&#45;&#45;n30 -->
<g id="edge28" class="edge">
<title>n24&#45;&#45;n30</title>
<path fill="none" stroke="black" d="M321.69,-227.04C343.33,-251.3 378.22,-290.42 399.86,-314.69"/>
</g>
<!-- n24&#45;&#45;n26 -->
<g id="edge29" class="edge">
<title>n24&#45;&#45;n26</title>
<path fill="none" stroke="black" d="M328.87,-216.55C376.33,-236.52 475.41,-278.19 523.01,-298.2"/>
</g>
<!-- n24&#45;&#45;n25 -->
<g id="edge30" class="edge">
<title>n24&#45;&#45;n25</title>
<path fill="none" stroke="black" d="M329.96,-213.11C358.32,-221.02 402.28,-233.27 430.73,-241.21"/>
</g>
<!-- n23 -->
<g id="node11" class="node">
<title>n23</title>
<ellipse fill="none" stroke="black" cx="316.88" cy="-271.77" rx="28.7" ry="28.7"/>
<text text-anchor="middle" x="316.88" y="-268.07" font-family="Times,serif" font-size="14.00">n23</text>
</g>
<!-- n23&#45;&#45;n32 -->
<g id="edge32" class="edge">
<title>n23&#45;&#45;n32</title>
<path fill="none" stroke="black" d="M303.98,-246.22C290.47,-219.46 269.37,-177.67 255.83,-150.83"/>
</g>
<!-- n23&#45;&#45;n33 -->
<g id="edge31" class="edge">
<title>n23&#45;&#45;n33</title>
<path fill="none" stroke="black" d="M321.54,-243.47C327.93,-204.71 339.34,-135.47 345.73,-96.66"/>
</g>
<!-- n23&#45;&#45;n31 -->
<g id="edge33" class="edge">
<title>n23&#45;&#45;n31</title>
<path fill="none" stroke="black" d="M345.63,-269.46C351.4,-269 357.47,-268.51 363.24,-268.05"/>
</g>
<!-- n23&#45;&#45;n30 -->
<g id="edge34" class="edge">
<title>n23&#45;&#45;n30</title>
<path fill="none" stroke="black" d="M341.12,-287.07C357.31,-297.29 378.53,-310.68 394.75,-320.92"/>
</g>
<!-- n23&#45;&#45;n27 -->
<g id="edge35" class="edge">
<title>n23&#45;&#45;n27</title>
<path fill="none" stroke="black" d="M343.12,-284.24C389.57,-306.33 485.75,-352.05 531.92,-374"/>
</g>
<!-- n23&#45;&#45;n26 -->
<g id="edge36" class="edge">
<title>n23&#45;&#45;n26</title>
<path fill="none" stroke="black" d="M345.42,-276.38C390.22,-283.63 476.52,-297.58 521.24,-304.82"/>
</g>
<!-- n23&#45;&#45;n25 -->
<g id="edge37" class="edge">
<title>n23&#45;&#45;n25</title>
<path fill="none" stroke="black" d="M345.2,-267.21C369.91,-263.23 405.57,-257.49 430.26,-253.51"/>
</g>
<!-- n23&#45;&#45;n24 -->
<g id="edge38" class="edge">
<title>n23&#45;&#45;n24</title>
<path fill="none" stroke="black" d="M310.74,-243.63C310,-240.24 309.25,-236.78 308.51,-233.39"/>
</g>
<!-- n22 -->
<g id="node12" class="node">
<title>n22</title>
<ellipse fill="none" stroke="black" cx="237.21" cy="-217.62" rx="28.7" ry="28.7"/>
<text text-anchor="middle" x="237.21" y="-213.92" font-family="Times,serif" font-size="14.00">n22</text>
</g>
<!-- n22&#45;&#45;n32 -->
<g id="edge40" class="edge">
<title>n22&#45;&#45;n32</title>
<path fill="none" stroke="black" d="M238.96,-188.85C239.64,-177.71 240.41,-164.98 241.08,-153.84"/>
</g>
<!-- n22&#45;&#45;n33 -->
<g id="edge39" class="edge">
<title>n22&#45;&#45;n33</title>
<path fill="none" stroke="black" d="M254.65,-194.61C275.86,-166.63 311.46,-119.66 332.76,-91.56"/>
</g>
<!-- n22&#45;&#45;n31 -->
<g id="edge41" class="edge">
<title>n22&#45;&#45;n31</title>
<path fill="none" stroke="black" d="M264.85,-226.23C292.99,-234.99 336.35,-248.49 364.4,-257.23"/>
</g>
<!-- n22&#45;&#45;n30 -->
<g id="edge42" class="edge">
<title>n22&#45;&#45;n30</title>
<path fill="none" stroke="black" d="M261.38,-233.39C296.28,-256.16 360.41,-298 395.2,-320.7"/>
</g>
<!-- n22&#45;&#45;n26 -->
<g id="edge43" class="edge">
<title>n22&#45;&#45;n26</title>
<path fill="none" stroke="black" d="M264.67,-225.69C323.78,-243.05 462.56,-283.83 521.92,-301.26"/>
</g>
<!-- n22&#45;&#45;n25 -->
<g id="edge44" class="edge">
<title>n22&#45;&#45;n25</title>
<path fill="none" stroke="black" d="M265.69,-221.66C308.19,-227.67 387.73,-238.93 430.16,-244.94"/>
</g>
<!-- n22&#45;&#45;n24 -->
<g id="edge45" class="edge">
<title>n22&#45;&#45;n24</title>
<path fill="none" stroke="black" d="M265.62,-212.31C268.36,-211.8 271.15,-211.27 273.9,-210.76"/>
</g>
<!-- n22&#45;&#45;n23 -->
<g id="edge46" class="edge">
<title>n22&#45;&#45;n23</title>
<path fill="none" stroke="black" d="M261.12,-233.87C271.2,-240.72 282.91,-248.68 292.99,-255.53"/>
</g>
<!-- n21 -->
<g id="node13" class="node">
<title>n21</title>
<ellipse fill="none" stroke="black" cx="416.02" cy="-94.33" rx="28.7" ry="28.7"/>
<text text-anchor="middle" x="416.02" y="-90.63" font-family="Times,serif" font-size="14.00">n21</text>
</g>
<!-- n21&#45;&#45;n32 -->
<g id="edge47" class="edge">
<title>n21&#45;&#45;n32</title>
<path fill="none" stroke="black" d="M387.81,-99.34C355.6,-105.06 303.23,-114.36 271.03,-120.08"/>
</g>
<!-- n21&#45;&#45;n31 -->
<g id="edge48" class="edge">
<title>n21&#45;&#45;n31</title>
<path fill="none" stroke="black" d="M411.96,-123.02C407.48,-154.76 400.29,-205.59 395.82,-237.26"/>
</g>
<!-- n21&#45;&#45;n30 -->
<g id="edge49" class="edge">
<title>n21&#45;&#45;n30</title>
<path fill="none" stroke="black" d="M416.39,-123.04C417,-169.62 418.19,-261.11 418.8,-307.67"/>
</g>
<!-- n21&#45;&#45;n25 -->
<g id="edge50" class="edge">
<title>n21&#45;&#45;n25</title>
<path fill="none" stroke="black" d="M423.62,-121.97C431.33,-150.03 443.21,-193.23 450.93,-221.29"/>
</g>
<!-- n21&#45;&#45;n24 -->
<g id="edge51" class="edge">
<title>n21&#45;&#45;n24</title>
<path fill="none" stroke="black" d="M395.44,-114.45C374.98,-134.46 343.76,-164.99 323.21,-185.08"/>
</g>
<!-- n21&#45;&#45;n23 -->
<g id="edge52" class="edge">
<title>n21&#45;&#45;n23</title>
<path fill="none" stroke="black" d="M402.02,-119.37C383.18,-153.1 349.85,-212.76 330.96,-246.56"/>
</g>
<!-- n21&#45;&#45;n22 -->
<g id="edge53" class="edge">
<title>n21&#45;&#45;n22</title>
<path fill="none" stroke="black" d="M392.27,-110.7C357.98,-134.35 294.96,-177.8 260.77,-201.38"/>
</g>
<!-- n20 -->
<g id="node14" class="node">
<title>n20</title>
<ellipse fill="none" stroke="black" cx="522.96" cy="-180.53" rx="28.7" ry="28.7"/>
<text text-anchor="middle" x="522.96" y="-176.83" font-family="Times,serif" font-size="14.00">n20</text>
</g>
<!-- n20&#45;&#45;n31 -->
<g id="edge54" class="edge">
<title>n20&#45;&#45;n31</title>
<path fill="none" stroke="black" d="M498.9,-196.16C475.38,-211.44 439.76,-234.59 416.14,-249.94"/>
</g>
<!-- n20&#45;&#45;n30 -->
<g id="edge55" class="edge">
<title>n20&#45;&#45;n30</title>
<path fill="none" stroke="black" d="M506.97,-204.53C487.47,-233.81 454.69,-283.02 435.18,-312.31"/>
</g>
<!-- n20&#45;&#45;n28 -->
<g id="edge56" class="edge">
<title>n20&#45;&#45;n28</title>
<path fill="none" stroke="black" d="M535.56,-206.55C554.98,-246.68 592.02,-323.21 611.44,-363.33"/>
</g>
<!-- n20&#45;&#45;n27 -->
<g id="edge57" class="edge">
<title>n20&#45;&#45;n27</title>
<path fill="none" stroke="black" d="M527.8,-209.14C534.45,-248.45 546.34,-318.73 552.97,-357.92"/>
</g>
<!-- n20&#45;&#45;n26 -->
<g id="edge58" class="edge">
<title>n20&#45;&#45;n26</title>
<path fill="none" stroke="black" d="M528.82,-208.81C533.27,-230.3 539.36,-259.72 543.81,-281.19"/>
</g>
<!-- n20&#45;&#45;n24 -->
<g id="edge59" class="edge">
<title>n20&#45;&#45;n24</title>
<path fill="none" stroke="black" d="M494.13,-183.78C451.74,-188.57 373.09,-197.45 330.9,-202.21"/>
</g>
<!-- n20&#45;&#45;n23 -->
<g id="edge60" class="edge">
<title>n20&#45;&#45;n23</title>
<path fill="none" stroke="black" d="M496.44,-192.27C456.87,-209.79 382.81,-242.58 343.3,-260.07"/>
</g>
<!-- n20&#45;&#45;n22 -->
<g id="edge61" class="edge">
<title>n20&#45;&#45;n22</title>
<path fill="none" stroke="black" d="M494.52,-184.22C439.89,-191.31 320.84,-206.77 265.97,-213.89"/>
</g>
<!-- n20&#45;&#45;n21 -->
<g id="edge62" class="edge">
<title>n20&#45;&#45;n21</title>
<path fill="none" stroke="black" d="M500.54,-162.46C482.29,-147.75 456.65,-127.08 438.41,-112.37"/>
</g>
<!-- n19 -->
<g id="node15" class="node">
<title>n19</title>
<ellipse fill="none" stroke="black" cx="668.13" cy="-256.64" rx="28.7" ry="28.7"/>
<text text-anchor="middle" x="668.13" y="-252.94" font-family="Times,serif" font-size="14.00">n19</text>
</g>
<!-- n19&#45;&#45;n30 -->
<g id="edge63" class="edge">
<title>n19&#45;&#45;n30</title>
<path fill="none" stroke="black" d="M640.53,-265.48C592.55,-280.84 494.31,-312.29 446.51,-327.59"/>
</g>
<!-- n19&#45;&#45;n28 -->
<g id="edge64" class="edge">
<title>n19&#45;&#45;n28</title>
<path fill="none" stroke="black" d="M659.1,-283.82C651.49,-306.72 640.66,-339.33 633.05,-362.22"/>
</g>
<!-- n19&#45;&#45;n27 -->
<g id="edge65" class="edge">
<title>n19&#45;&#45;n27</title>
<path fill="none" stroke="black" d="M649.4,-278.63C629.11,-302.47 596.91,-340.3 576.58,-364.18"/>
</g>
<!-- n19&#45;&#45;n26 -->
<g id="edge66" class="edge">
<title>n19&#45;&#45;n26</title>
<path fill="none" stroke="black" d="M641.83,-268.35C622.2,-277.1 595.49,-288.99 575.87,-297.73"/>
</g>
<!-- n19&#45;&#45;n25 -->
<g id="edge67" class="edge">
<title>n19&#45;&#45;n25</title>
<path fill="none" stroke="black" d="M639.42,-255.59C599.4,-254.12 527.24,-251.48 487.23,-250.01"/>
</g>
<!-- n19&#45;&#45;n21 -->
<g id="edge68" class="edge">
<title>n19&#45;&#45;n21</title>
<path fill="none" stroke="black" d="M643.95,-241.08C595.76,-210.05 488.24,-140.83 440.12,-109.84"/>
</g>
<!-- n19&#45;&#45;n20 -->
<g id="edge69" class="edge">
<title>n19&#45;&#45;n20</title>
<path fill="none" stroke="black" d="M642.51,-243.21C615.97,-229.3 574.76,-207.69 548.32,-193.83"/>
</g>
<!-- n18 -->
<g id="node16" class="node">
<title>n18</title>
<ellipse fill="none" stroke="black" cx="379.19" cy="-690.2" rx="28.7" ry="28.7"/>
<text text-anchor="middle" x="379.19" y="-686.5" font-family="Times,serif" font-size="14.00">n18</text>
</g>
<!-- n18&#45;&#45;n29 -->
<g id="edge70" class="edge">
<title>n18&#45;&#45;n29</title>
<path fill="none" stroke="black" d="M406.26,-680.26C431.55,-670.97 469.09,-657.18 494.35,-647.9"/>
</g>
<!-- n17 -->
<g id="node17" class="node">
<title>n17</title>
<ellipse fill="none" stroke="black" cx="695.4" cy="-186.47" rx="28.7" ry="28.7"/>
<text text-anchor="middle" x="695.4" y="-182.77" font-family="Times,serif" font-size="14.00">n17</text>
</g>
<!-- n17&#45;&#45;n28 -->
<g id="edge71" class="edge">
<title>n17&#45;&#45;n28</title>
<path fill="none" stroke="black" d="M685.78,-213.83C672.12,-252.66 647.26,-323.34 633.62,-362.11"/>
</g>
<!-- n17&#45;&#45;n27 -->
<g id="edge72" class="edge">
<title>n17&#45;&#45;n27</title>
<path fill="none" stroke="black" d="M679.07,-210.18C652.58,-248.63 600.55,-324.17 574.07,-362.61"/>
</g>
<!-- n17&#45;&#45;n26 -->
<g id="edge73" class="edge">
<title>n17&#45;&#45;n26</title>
<path fill="none" stroke="black" d="M673.27,-205.14C645.71,-228.38 598.95,-267.83 571.52,-290.96"/>
</g>
<!-- n17&#45;&#45;n25 -->
<g id="edge74" class="edge">
<title>n17&#45;&#45;n25</title>
<path fill="none" stroke="black" d="M667.3,-193.88C621.59,-205.94 531.68,-229.66 486.23,-241.65"/>
</g>
<!-- n17&#45;&#45;n20 -->
<g id="edge75" class="edge">
<title>n17&#45;&#45;n20</title>
<path fill="none" stroke="black" d="M666.54,-185.48C634.61,-184.38 583.48,-182.61 551.63,-181.52"/>
</g>
<!-- n17&#45;&#45;n19 -->
<g id="edge76" class="edge">
<title>n17&#45;&#45;n19</title>
<path fill="none" stroke="black" d="M684.94,-213.4C682.83,-218.81 680.62,-224.5 678.52,-229.9"/>
</g>
<!-- n16 -->
<g id="node18" class="node">
<title>n16</title>
<ellipse fill="none" stroke="black" cx="615.02" cy="-128.56" rx="28.7" ry="28.7"/>
<text text-anchor="middle" x="615.02" y="-124.86" font-family="Times,serif" font-size="14.00">n16</text>
</g>
<!-- n16&#45;&#45;n33 -->
<g id="edge77" class="edge">
<title>n16&#45;&#45;n33</title>
<path fill="none" stroke="black" d="M586.7,-122.1C535.77,-110.5 429.31,-86.25 378.52,-74.68"/>
</g>
<!-- n16&#45;&#45;n28 -->
<g id="edge78" class="edge">
<title>n16&#45;&#45;n28</title>
<path fill="none" stroke="black" d="M616.02,-157.46C617.76,-207.73 621.31,-310.64 623.04,-360.72"/>
</g>
<!-- n16&#45;&#45;n27 -->
<g id="edge79" class="edge">
<title>n16&#45;&#45;n27</title>
<path fill="none" stroke="black" d="M608.79,-156.63C597.77,-206.2 575,-308.69 563.99,-358.24"/>
</g>
<!-- n16&#45;&#45;n26 -->
<g id="edge80" class="edge">
<title>n16&#45;&#45;n26</title>
<path fill="none" stroke="black" d="M605.24,-155.63C592.88,-189.82 571.74,-248.3 559.4,-282.44"/>
</g>
<!-- n16&#45;&#45;n25 -->
<g id="edge81" class="edge">
<title>n16&#45;&#45;n25</title>
<path fill="none" stroke="black" d="M592.27,-146.06C562.6,-168.89 511,-208.59 481.32,-231.43"/>
</g>
<!-- n16&#45;&#45;n19 -->
<g id="edge82" class="edge">
<title>n16&#45;&#45;n19</title>
<path fill="none" stroke="black" d="M626.03,-155.09C635.14,-177.08 648.03,-208.16 657.14,-230.14"/>
</g>
<!-- n16&#45;&#45;n17 -->
<g id="edge83" class="edge">
<title>n16&#45;&#45;n17</title>
<path fill="none" stroke="black" d="M638.27,-145.31C648.84,-152.92 661.33,-161.92 671.93,-169.56"/>
</g>
<!-- n15 -->
<g id="node19" class="node">
<title>n15</title>
<ellipse fill="none" stroke="black" cx="465.77" cy="-28.6" rx="28.7" ry="28.7"/>
<text text-anchor="middle" x="465.77" y="-24.9" font-family="Times,serif" font-size="14.00">n15</text>
</g>
<!-- n15&#45;&#45;n32 -->
<g id="edge85" class="edge">
<title>n15&#45;&#45;n32</title>
<path fill="none" stroke="black" d="M439.32,-40.04C396.41,-58.61 312.13,-95.09 269.24,-113.65"/>
</g>
<!-- n15&#45;&#45;n33 -->
<g id="edge84" class="edge">
<title>n15&#45;&#45;n33</title>
<path fill="none" stroke="black" d="M438.72,-37.9C420.34,-44.22 396.12,-52.56 377.69,-58.9"/>
</g>
<!-- n15&#45;&#45;n25 -->
<g id="edge86" class="edge">
<title>n15&#45;&#45;n25</title>
<path fill="none" stroke="black" d="M464.82,-57.41C463.44,-99.64 460.87,-177.91 459.48,-220.14"/>
</g>
<!-- n15&#45;&#45;n24 -->
<g id="edge87" class="edge">
<title>n15&#45;&#45;n24</title>
<path fill="none" stroke="black" d="M446.06,-49.93C414.58,-84.01 353.3,-150.34 321.93,-184.3"/>
</g>
<!-- n15&#45;&#45;n23 -->
<g id="edge88" class="edge">
<title>n15&#45;&#45;n23</title>
<path fill="none" stroke="black" d="M450.67,-53.25C422.14,-99.86 360.58,-200.39 332.01,-247.05"/>
</g>
<!-- n15&#45;&#45;n17 -->
<g id="edge89" class="edge">
<title>n15&#45;&#45;n17</title>
<path fill="none" stroke="black" d="M489.48,-44.9C533.6,-75.23 627.8,-139.99 671.82,-170.26"/>
</g>
<!-- n15&#45;&#45;n16 -->
<g id="edge90" class="edge">
<title>n15&#45;&#45;n16</title>
<path fill="none" stroke="black" d="M489.75,-44.66C517.6,-63.31 563.27,-93.9 591.1,-112.53"/>
</g>
<!-- n13 -->
<g id="node20" class="node">
<title>n13</title>
<ellipse fill="none" stroke="black" cx="28.6" cy="-493.27" rx="28.7" ry="28.7"/>
<text text-anchor="middle" x="28.6" y="-489.57" font-family="Times,serif" font-size="14.00">n13</text>
</g>
<!-- n14 -->
<g id="node21" class="node">
<title>n14</title>
<ellipse fill="none" stroke="black" cx="62.2" cy="-601.86" rx="28.7" ry="28.7"/>
<text text-anchor="middle" x="62.2" y="-598.16" font-family="Times,serif" font-size="14.00">n14</text>
</g>
<!-- n13&#45;&#45;n14 -->
<g id="edge91" class="edge">
<title>n13&#45;&#45;n14</title>
<path fill="none" stroke="black" d="M37.08,-520.68C42.17,-537.14 48.63,-558.01 53.72,-574.47"/>
</g>
<!-- n12 -->
<g id="node22" class="node">
<title>n12</title>
<ellipse fill="none" stroke="black" cx="146.87" cy="-663.6" rx="28.7" ry="28.7"/>
<text text-anchor="middle" x="146.87" y="-659.9" font-family="Times,serif" font-size="14.00">n12</text>
</g>
<!-- n12&#45;&#45;n13 -->
<g id="edge93" class="edge">
<title>n12&#45;&#45;n13</title>
<path fill="none" stroke="black" d="M130.42,-639.92C107.89,-607.47 67.65,-549.52 45.09,-517.03"/>
</g>
<!-- n12&#45;&#45;n14 -->
<g id="edge92" class="edge">
<title>n12&#45;&#45;n14</title>
<path fill="none" stroke="black" d="M123.73,-646.73C111.79,-638.02 97.25,-627.42 85.31,-618.71"/>
</g>
<!-- n11 -->
<g id="node23" class="node">
<title>n11</title>
<ellipse fill="none" stroke="black" cx="456.21" cy="-760.8" rx="28.7" ry="28.7"/>
<text text-anchor="middle" x="456.21" y="-757.1" font-family="Times,serif" font-size="14.00">n11</text>
</g>
<!-- n11&#45;&#45;n12 -->
<g id="edge94" class="edge">
<title>n11&#45;&#45;n12</title>
<path fill="none" stroke="black" d="M428.76,-752.17C370.06,-733.73 232.91,-690.64 174.26,-672.21"/>
</g>
<!-- n10 -->
<g id="node24" class="node">
<title>n10</title>
<ellipse fill="none" stroke="black" cx="637.25" cy="-727.88" rx="28.7" ry="28.7"/>
<text text-anchor="middle" x="637.25" y="-724.18" font-family="Times,serif" font-size="14.00">n10</text>
</g>
<!-- n10&#45;&#45;n29 -->
<g id="edge95" class="edge">
<title>n10&#45;&#45;n29</title>
<path fill="none" stroke="black" d="M614.62,-710.34C594.32,-694.6 564.68,-671.62 544.28,-655.8"/>
</g>
<!-- n10&#45;&#45;n11 -->
<g id="edge96" class="edge">
<title>n10&#45;&#45;n11</title>
<path fill="none" stroke="black" d="M608.96,-733.03C575.05,-739.19 518.55,-749.46 484.6,-755.64"/>
</g>
<!-- n9 -->
<g id="node25" class="node">
<title>n9</title>
<ellipse fill="none" stroke="black" cx="668.07" cy="-574.8" rx="23" ry="23"/>
<text text-anchor="middle" x="668.07" y="-571.1" font-family="Times,serif" font-size="14.00">n9</text>
</g>
<!-- n9&#45;&#45;n29 -->
<g id="edge97" class="edge">
<title>n9&#45;&#45;n29</title>
<path fill="none" stroke="black" d="M647.05,-583.85C620.89,-595.11 576.22,-614.35 547.77,-626.6"/>
</g>
<!-- n9&#45;&#45;n26 -->
<g id="edge98" class="edge">
<title>n9&#45;&#45;n26</title>
<path fill="none" stroke="black" d="M658.78,-553.97C637.46,-506.19 585.06,-388.76 561.48,-335.93"/>
</g>
<!-- n9&#45;&#45;n11 -->
<g id="edge99" class="edge">
<title>n9&#45;&#45;n11</title>
<path fill="none" stroke="black" d="M650.74,-590.02C612.29,-623.77 519.98,-704.82 477.84,-741.81"/>
</g>
<!-- n9&#45;&#45;n10 -->
<g id="edge100" class="edge">
<title>n9&#45;&#45;n10</title>
<path fill="none" stroke="black" d="M663.53,-597.38C658.05,-624.58 648.85,-670.27 642.92,-699.74"/>
</g>
<!-- n8 -->
<g id="node26" class="node">
<title>n8</title>
<ellipse fill="none" stroke="black" cx="529.5" cy="-523.14" rx="23" ry="23"/>
<text text-anchor="middle" x="529.5" y="-519.44" font-family="Times,serif" font-size="14.00">n8</text>
</g>
<!-- n8&#45;&#45;n29 -->
<g id="edge101" class="edge">
<title>n8&#45;&#45;n29</title>
<path fill="none" stroke="black" d="M527.88,-545.83C526.58,-564 524.76,-589.61 523.36,-609.23"/>
</g>
<!-- n8&#45;&#45;n26 -->
<g id="edge102" class="edge">
<title>n8&#45;&#45;n26</title>
<path fill="none" stroke="black" d="M531.65,-500.26C535.35,-461.07 542.89,-381.14 546.94,-338.21"/>
</g>
<!-- n8&#45;&#45;n25 -->
<g id="edge103" class="edge">
<title>n8&#45;&#45;n25</title>
<path fill="none" stroke="black" d="M523.69,-500.7C510.81,-450.95 479.89,-331.48 465.78,-276.95"/>
</g>
<!-- n8&#45;&#45;n18 -->
<g id="edge104" class="edge">
<title>n8&#45;&#45;n18</title>
<path fill="none" stroke="black" d="M514.26,-540.07C486.72,-570.69 428.72,-635.15 398.47,-668.78"/>
</g>
<!-- n8&#45;&#45;n10 -->
<g id="edge105" class="edge">
<title>n8&#45;&#45;n10</title>
<path fill="none" stroke="black" d="M540.22,-543.52C560.02,-581.14 602.27,-661.42 623.89,-702.51"/>
</g>
<!-- n8&#45;&#45;n9 -->
<g id="edge106" class="edge">
<title>n8&#45;&#45;n9</title>
<path fill="none" stroke="black" d="M550.84,-531.09C576.81,-540.77 620.39,-557.02 646.47,-566.74"/>
</g>
<!-- n7 -->
<g id="node27" class="node">
<title>n7</title>
<ellipse fill="none" stroke="black" cx="314.41" cy="-741.81" rx="23" ry="23"/>
<text text-anchor="middle" x="314.41" y="-738.11" font-family="Times,serif" font-size="14.00">n7</text>
</g>
<!-- n7&#45;&#45;n29 -->
<g id="edge107" class="edge">
<title>n7&#45;&#45;n29</title>
<path fill="none" stroke="black" d="M335.01,-731.48C373.03,-712.4 454.15,-671.69 495.67,-650.86"/>
</g>
<!-- n7&#45;&#45;n18 -->
<g id="edge108" class="edge">
<title>n7&#45;&#45;n18</title>
<path fill="none" stroke="black" d="M332.46,-727.44C339.94,-721.47 348.71,-714.49 356.62,-708.19"/>
</g>
<!-- n7&#45;&#45;n14 -->
<g id="edge109" class="edge">
<title>n7&#45;&#45;n14</title>
<path fill="none" stroke="black" d="M294.2,-730.6C248.49,-705.24 137.29,-643.53 87.29,-615.78"/>
</g>
<!-- n7&#45;&#45;n8 -->
<g id="edge110" class="edge">
<title>n7&#45;&#45;n8</title>
<path fill="none" stroke="black" d="M330.58,-725.38C370.54,-684.75 473.59,-579.98 513.43,-539.46"/>
</g>
<!-- n6 -->
<g id="node28" class="node">
<title>n6</title>
<ellipse fill="none" stroke="black" cx="310.91" cy="-451.22" rx="23" ry="23"/>
<text text-anchor="middle" x="310.91" y="-447.52" font-family="Times,serif" font-size="14.00">n6</text>
</g>
<!-- n6&#45;&#45;n25 -->
<g id="edge111" class="edge">
<title>n6&#45;&#45;n25</title>
<path fill="none" stroke="black" d="M324.54,-432.56C351.59,-395.49 412.01,-312.7 441.58,-272.19"/>
</g>
<!-- n6&#45;&#45;n24 -->
<g id="edge112" class="edge">
<title>n6&#45;&#45;n24</title>
<path fill="none" stroke="black" d="M310.11,-428.1C308.55,-383.04 305.11,-283.61 303.41,-234.31"/>
</g>
<!-- n6&#45;&#45;n23 -->
<g id="edge113" class="edge">
<title>n6&#45;&#45;n23</title>
<path fill="none" stroke="black" d="M311.68,-428.13C312.77,-395.47 314.75,-335.83 315.93,-300.4"/>
</g>
<!-- n6&#45;&#45;n18 -->
<g id="edge114" class="edge">
<title>n6&#45;&#45;n18</title>
<path fill="none" stroke="black" d="M317.21,-473.28C329.69,-516.95 357.52,-614.38 371.24,-662.38"/>
</g>
<!-- n6&#45;&#45;n8 -->
<g id="edge115" class="edge">
<title>n6&#45;&#45;n8</title>
<path fill="none" stroke="black" d="M332.67,-458.38C374.57,-472.16 466,-502.24 507.83,-516.01"/>
</g>
<!-- n5 -->
<g id="node29" class="node">
<title>n5</title>
<ellipse fill="none" stroke="black" cx="162.15" cy="-345.58" rx="23" ry="23"/>
<text text-anchor="middle" x="162.15" y="-341.88" font-family="Times,serif" font-size="14.00">n5</text>
</g>
<!-- n5&#45;&#45;n25 -->
<g id="edge116" class="edge">
<title>n5&#45;&#45;n25</title>
<path fill="none" stroke="black" d="M183.94,-338.47C237.02,-321.17 372.88,-276.88 431.23,-257.86"/>
</g>
<!-- n5&#45;&#45;n24 -->
<g id="edge117" class="edge">
<title>n5&#45;&#45;n24</title>
<path fill="none" stroke="black" d="M178.51,-329.23C204.24,-303.52 254.09,-253.71 282.08,-225.74"/>
</g>
<!-- n5&#45;&#45;n23 -->
<g id="edge118" class="edge">
<title>n5&#45;&#45;n23</title>
<path fill="none" stroke="black" d="M182.7,-335.78C210.56,-322.48 260.35,-298.73 290.82,-284.2"/>
</g>
<!-- n5&#45;&#45;n22 -->
<g id="edge119" class="edge">
<title>n5&#45;&#45;n22</title>
<path fill="none" stroke="black" d="M173.71,-325.86C186.87,-303.43 208.39,-266.76 222.67,-242.41"/>
</g>
<!-- n5&#45;&#45;n13 -->
<g id="edge121" class="edge">
<title>n5&#45;&#45;n13</title>
<path fill="none" stroke="black" d="M146.83,-362.52C122.44,-389.49 74.81,-442.17 48.04,-471.77"/>
</g>
<!-- n5&#45;&#45;n14 -->
<g id="edge120" class="edge">
<title>n5&#45;&#45;n14</title>
<path fill="none" stroke="black" d="M153.8,-366.99C135.64,-413.54 92.6,-523.91 72.67,-575.02"/>
</g>
<!-- n5&#45;&#45;n6 -->
<g id="edge122" class="edge">
<title>n5&#45;&#45;n6</title>
<path fill="none" stroke="black" d="M180.99,-358.96C209.61,-379.28 263.7,-417.69 292.22,-437.95"/>
</g>
<!-- n4 -->
<g id="node30" class="node">
<title>n4</title>
<ellipse fill="none" stroke="black" cx="136.44" cy="-415" rx="23" ry="23"/>
<text text-anchor="middle" x="136.44" y="-411.3" font-family="Times,serif" font-size="14.00">n4</text>
</g>
<!-- n4&#45;&#45;n24 -->
<g id="edge123" class="edge">
<title>n4&#45;&#45;n24</title>
<path fill="none" stroke="black" d="M150.59,-397.13C180.77,-359.02 251.41,-269.83 284.59,-227.93"/>
</g>
<!-- n4&#45;&#45;n23 -->
<g id="edge124" class="edge">
<title>n4&#45;&#45;n23</title>
<path fill="none" stroke="black" d="M154.4,-400.75C187.47,-374.49 257.93,-318.57 294.22,-289.75"/>
</g>
<!-- n4&#45;&#45;n22 -->
<g id="edge125" class="edge">
<title>n4&#45;&#45;n22</title>
<path fill="none" stroke="black" d="M146.85,-394.62C165.35,-358.38 203.94,-282.8 224.18,-243.15"/>
</g>
<!-- n4&#45;&#45;n13 -->
<g id="edge127" class="edge">
<title>n4&#45;&#45;n13</title>
<path fill="none" stroke="black" d="M117.66,-428.64C99.43,-441.86 71.72,-461.98 52.06,-476.25"/>
</g>
<!-- n4&#45;&#45;n14 -->
<g id="edge126" class="edge">
<title>n4&#45;&#45;n14</title>
<path fill="none" stroke="black" d="M127.92,-436.44C114.29,-470.76 87.59,-537.96 72.76,-575.28"/>
</g>
<!-- n4&#45;&#45;n12 -->
<g id="edge128" class="edge">
<title>n4&#45;&#45;n12</title>
<path fill="none" stroke="black" d="M137.4,-437.95C139.31,-483.38 143.56,-584.73 145.65,-634.66"/>
</g>
<!-- n4&#45;&#45;n6 -->
<g id="edge129" class="edge">
<title>n4&#45;&#45;n6</title>
<path fill="none" stroke="black" d="M158.89,-419.66C192.39,-426.62 255.1,-439.63 288.55,-446.58"/>
</g>
<!-- n4&#45;&#45;n5 -->
<g id="edge130" class="edge">
<title>n4&#45;&#45;n5</title>
<path fill="none" stroke="black" d="M144.43,-393.42C147.56,-384.98 151.13,-375.33 154.25,-366.91"/>
</g>
<!-- n3 -->
<g id="node31" class="node">
<title>n3</title>
<ellipse fill="none" stroke="black" cx="237.23" cy="-443.98" rx="23" ry="23"/>
<text text-anchor="middle" x="237.23" y="-440.28" font-family="Times,serif" font-size="14.00">n3</text>
</g>
<!-- n3&#45;&#45;n32 -->
<g id="edge131" class="edge">
<title>n3&#45;&#45;n32</title>
<path fill="none" stroke="black" d="M237.63,-421.04C238.63,-364.21 241.21,-216.9 242.32,-154.12"/>
</g>
<!-- n3&#45;&#45;n31 -->
<g id="edge132" class="edge">
<title>n3&#45;&#45;n31</title>
<path fill="none" stroke="black" d="M252.33,-426.57C280.74,-393.81 342.06,-323.1 373.05,-287.37"/>
</g>
<!-- n3&#45;&#45;n30 -->
<g id="edge133" class="edge">
<title>n3&#45;&#45;n30</title>
<path fill="none" stroke="black" d="M257.04,-432.25C290.48,-412.48 358,-372.53 394.47,-350.96"/>
</g>
<!-- n3&#45;&#45;n13 -->
<g id="edge134" class="edge">
<title>n3&#45;&#45;n13</title>
<path fill="none" stroke="black" d="M214.9,-449.25C176.64,-458.29 98.62,-476.73 56.71,-486.63"/>
</g>
<!-- n3&#45;&#45;n12 -->
<g id="edge135" class="edge">
<title>n3&#45;&#45;n12</title>
<path fill="none" stroke="black" d="M228.56,-465.04C212.04,-505.19 176.07,-592.64 157.87,-636.86"/>
</g>
<!-- n3&#45;&#45;n5 -->
<g id="edge136" class="edge">
<title>n3&#45;&#45;n5</title>
<path fill="none" stroke="black" d="M223.1,-425.47C209.6,-407.77 189.35,-381.23 175.95,-363.67"/>
</g>
<!-- n3&#45;&#45;n4 -->
<g id="edge137" class="edge">
<title>n3&#45;&#45;n4</title>
<path fill="none" stroke="black" d="M215.36,-437.69C198.57,-432.86 175.48,-426.23 158.61,-421.38"/>
</g>
<!-- n2 -->
<g id="node32" class="node">
<title>n2</title>
<ellipse fill="none" stroke="black" cx="395.48" cy="-500.77" rx="23" ry="23"/>
<text text-anchor="middle" x="395.48" y="-497.07" font-family="Times,serif" font-size="14.00">n2</text>
</g>
<!-- n2&#45;&#45;n31 -->
<g id="edge138" class="edge">
<title>n2&#45;&#45;n31</title>
<path fill="none" stroke="black" d="M395.12,-477.81C394.44,-434.73 392.98,-341.88 392.24,-294.63"/>
</g>
<!-- n2&#45;&#45;n30 -->
<g id="edge139" class="edge">
<title>n2&#45;&#45;n30</title>
<path fill="none" stroke="black" d="M398.72,-478.25C402.97,-448.79 410.41,-397.13 415.05,-364.93"/>
</g>
<!-- n2&#45;&#45;n28 -->
<g id="edge141" class="edge">
<title>n2&#45;&#45;n28</title>
<path fill="none" stroke="black" d="M416.16,-490.69C457.92,-470.33 552.2,-424.38 598.03,-402.03"/>
</g>
<!-- n2&#45;&#45;n29 -->
<g id="edge140" class="edge">
<title>n2&#45;&#45;n29</title>
<path fill="none" stroke="black" d="M410.91,-517.6C433.75,-542.5 476.54,-589.17 501.62,-616.51"/>
</g>
<!-- n2&#45;&#45;n27 -->
<g id="edge142" class="edge">
<title>n2&#45;&#45;n27</title>
<path fill="none" stroke="black" d="M414.09,-487.64C443.73,-466.73 501.62,-425.89 534.14,-402.95"/>
</g>
<!-- n2&#45;&#45;n11 -->
<g id="edge143" class="edge">
<title>n2&#45;&#45;n11</title>
<path fill="none" stroke="black" d="M400.66,-522.94C411.7,-570.23 437.55,-680.89 449.69,-732.88"/>
</g>
<!-- n2&#45;&#45;n4 -->
<g id="edge144" class="edge">
<title>n2&#45;&#45;n4</title>
<path fill="none" stroke="black" d="M373.84,-493.61C325.08,-477.46 207.07,-438.39 158.2,-422.21"/>
</g>
<!-- n2&#45;&#45;n3 -->
<g id="edge145" class="edge">
<title>n2&#45;&#45;n3</title>
<path fill="none" stroke="black" d="M373.8,-492.99C343.58,-482.15 289.11,-462.6 258.89,-451.75"/>
</g>
<!-- n1 -->
<g id="node33" class="node">
<title>n1</title>
<ellipse fill="none" stroke="black" cx="472.42" cy="-563.5" rx="23" ry="23"/>
<text text-anchor="middle" x="472.42" y="-559.8" font-family="Times,serif" font-size="14.00">n1</text>
</g>
<!-- n1&#45;&#45;n30 -->
<g id="edge146" class="edge">
<title>n1&#45;&#45;n30</title>
<path fill="none" stroke="black" d="M467.22,-541.31C457.46,-499.67 436.42,-409.91 425.72,-364.25"/>
</g>
<!-- n1&#45;&#45;n28 -->
<g id="edge148" class="edge">
<title>n1&#45;&#45;n28</title>
<path fill="none" stroke="black" d="M487.51,-546.17C515.38,-514.16 574.82,-445.89 605.24,-410.94"/>
</g>
<!-- n1&#45;&#45;n29 -->
<g id="edge147" class="edge">
<title>n1&#45;&#45;n29</title>
<path fill="none" stroke="black" d="M485.01,-582.69C491.29,-592.26 498.95,-603.92 505.61,-614.07"/>
</g>
<!-- n1&#45;&#45;n27 -->
<g id="edge149" class="edge">
<title>n1&#45;&#45;n27</title>
<path fill="none" stroke="black" d="M482.38,-542.83C497.99,-510.41 528.19,-447.69 545.25,-412.27"/>
</g>
<!-- n1&#45;&#45;n18 -->
<g id="edge150" class="edge">
<title>n1&#45;&#45;n18</title>
<path fill="none" stroke="black" d="M458.86,-581.93C442.3,-604.44 414.26,-642.54 396.24,-667.02"/>
</g>
<!-- n1&#45;&#45;n11 -->
<g id="edge151" class="edge">
<title>n1&#45;&#45;n11</title>
<path fill="none" stroke="black" d="M470.53,-586.52C467.56,-622.71 461.8,-692.83 458.56,-732.2"/>
</g>
<!-- n1&#45;&#45;n10 -->
<g id="edge152" class="edge">
<title>n1&#45;&#45;n10</title>
<path fill="none" stroke="black" d="M488.83,-579.86C519.12,-610.07 583.74,-674.52 616.82,-707.51"/>
</g>
<!-- n1&#45;&#45;n9 -->
<g id="edge153" class="edge">
<title>n1&#45;&#45;n9</title>
<path fill="none" stroke="black" d="M495.25,-564.82C532.85,-566.99 607.39,-571.29 645.09,-573.47"/>
</g>
<!-- n1&#45;&#45;n7 -->
<g id="edge154" class="edge">
<title>n1&#45;&#45;n7</title>
<path fill="none" stroke="black" d="M457.27,-580.6C427.07,-614.68 359.68,-690.73 329.52,-724.77"/>
</g>
<!-- n1&#45;&#45;n3 -->
<g id="edge155" class="edge">
<title>n1&#45;&#45;n3</title>
<path fill="none" stroke="black" d="M451.96,-553.1C407.48,-530.5 302.4,-477.1 257.81,-454.44"/>
</g>
<!-- n1&#45;&#45;n2 -->
<g id="edge156" class="edge">
<title>n1&#45;&#45;n2</title>
<path fill="none" stroke="black" d="M454.58,-548.95C442.14,-538.82 425.64,-525.36 413.23,-515.24"/>
</g>
<!-- n0 -->
<g id="node34" class="node">
<title>n0</title>
<ellipse fill="none" stroke="black" cx="219.81" cy="-626.73" rx="23" ry="23"/>
<text text-anchor="middle" x="219.81" y="-623.03" font-family="Times,serif" font-size="14.00">n0</text>
</g>
<!-- n0&#45;&#45;n29 -->
<g id="edge157" class="edge">
<title>n0&#45;&#45;n29</title>
<path fill="none" stroke="black" d="M242.97,-627.6C297.3,-629.63 432.84,-634.69 492.43,-636.91"/>
</g>
<!-- n0&#45;&#45;n18 -->
<g id="edge158" class="edge">
<title>n0&#45;&#45;n18</title>
<path fill="none" stroke="black" d="M240.98,-635.16C269.68,-646.59 320.96,-667.02 352.34,-679.51"/>
</g>
<!-- n0&#45;&#45;n13 -->
<g id="edge160" class="edge">
<title>n0&#45;&#45;n13</title>
<path fill="none" stroke="black" d="M201.13,-613.69C166.08,-589.23 90.53,-536.5 52.09,-509.67"/>
</g>
<!-- n0&#45;&#45;n14 -->
<g id="edge159" class="edge">
<title>n0&#45;&#45;n14</title>
<path fill="none" stroke="black" d="M197.23,-623.17C169.14,-618.74 121.17,-611.17 90.61,-606.34"/>
</g>
<!-- n0&#45;&#45;n7 -->
<g id="edge161" class="edge">
<title>n0&#45;&#45;n7</title>
<path fill="none" stroke="black" d="M234.59,-644.71C252.37,-666.33 282.01,-702.39 299.73,-723.96"/>
</g>
<!-- n0&#45;&#45;n6 -->
<g id="edge162" class="edge">
<title>n0&#45;&#45;n6</title>
<path fill="none" stroke="black" d="M230.44,-606.25C248,-572.44 282.84,-505.3 300.35,-471.57"/>
</g>
<!-- n0&#45;&#45;n5 -->
<g id="edge163" class="edge">
<title>n0&#45;&#45;n5</title>
<path fill="none" stroke="black" d="M215.19,-604.2C204.39,-551.55 177.61,-420.97 166.79,-368.22"/>
</g>
</g>
</svg>
