<?xml version="1.0" standalone="yes"?>
<!-- SVG graphic -->
<svg xmlns='http://www.w3.org/2000/svg' xmlns:xlink='http://www.w3.org/1999/xlink'
width="185px" height="185px" preserveAspectRatio="xMinYMin meet" viewBox="0 0 185 185" version="1.1">
<rect x="25" y="0" width="2.5" height="2.5" fill="rgb(2,0,252)" opacity="1"/>
<rect x="30" y="0" width="2.5" height="2.5" fill="rgb(4,0,250)" opacity="1"/>
<rect x="35" y="0" width="2.5" height="2.5" fill="rgb(12,0,242)" opacity="1"/>
<rect x="65" y="0" width="2.5" height="2.5" fill="rgb(4,0,250)" opacity="1"/>
<rect x="70" y="0" width="2.5" height="2.5" fill="rgb(13,0,241)" opacity="1"/>
<rect x="90" y="0" width="2.5" height="2.5" fill="rgb(15,0,239)" opacity="1"/>
<rect x="145" y="0" width="2.5" height="2.5" fill="rgb(4,0,250)" opacity="1"/>
<rect x="10" y="5" width="2.5" height="2.5" fill="rgb(22,0,232)" opacity="1"/>
<rect x="15" y="5" width="2.5" height="2.5" fill="rgb(3,0,251)" opacity="1"/>
<rect x="35" y="5" width="2.5" height="2.5" fill="rgb(6,0,248)" opacity="1"/>
<rect x="45" y="5" width="2.5" height="2.5" fill="rgb(4,0,250)" opacity="1"/>
<rect x="50" y="5" width="2.5" height="2.5" fill="rgb(4,0,250)" opacity="1"/>
<rect x="55" y="5" width="2.5" height="2.5" fill="rgb(3,0,251)" opacity="1"/>
<rect x="90" y="5" width="2.5" height="2.5" fill="rgb(5,0,249)" opacity="1"/>
<rect x="135" y="5" width="2.5" height="2.5" fill="rgb(8,0,246)" opacity="1"/>
<rect x="140" y="5" width="2.5" height="2.5" fill="rgb(15,0,239)" opacity="1"/>
<rect x="145" y="5" width="2.5" height="2.5" fill="rgb(27,0,227)" opacity="1"/>
<rect x="150" y="5" width="2.5" height="2.5" fill="rgb(10,0,244)" opacity="1"/>
<rect x="15" y="10" width="2.5" height="2.5" fill="rgb(18,0,236)" opacity="1"/>
<rect x="20" y="10" width="2.5" height="2.5" fill="rgb(3,0,251)" opacity="1"/>
<rect x="55" y="10" width="2.5" height="2.5" fill="rgb(3,0,251)" opacity="1"/>
<rect x="135" y="10" width="2.5" height="2.5" fill="rgb(3,0,251)" opacity="1"/>
<rect x="140" y="10" width="2.5" height="2.5" fill="rgb(11,0,243)" opacity="1"/>
<rect x="145" y="10" width="2.5" height="2.5" fill="rgb(3,0,251)" opacity="1"/>
<rect x="150" y="10" width="2.5" height="2.5" fill="rgb(21,0,233)" opacity="1"/>
<rect x="155" y="10" width="2.5" height="2.5" fill="rgb(4,0,250)" opacity="1"/>
<rect x="20" y="15" width="2.5" height="2.5" fill="rgb(12,0,242)" opacity="1"/>
<rect x="25" y="15" width="2.5" height="2.5" fill="rgb(8,0,246)" opacity="1"/>
<rect x="60" y="15" width="2.5" height="2.5" fill="rgb(7,0,247)" opacity="1"/>
<rect x="65" y="15" width="2.5" height="2.5" fill="rgb(4,0,250)" opacity="1"/>
<rect x="150" y="15" width="2.5" height="2.5" fill="rgb(8,0,246)" opacity="1"/>
<rect x="155" y="15" width="2.5" height="2.5" fill="rgb(12,0,242)" opacity="1"/>
<rect x="160" y="15" width="2.5" height="2.5" fill="rgb(2,0,252)" opacity="1"/>
<rect x="25" y="20" width="2.5" height="2.5" fill="rgb(37,0,217)" opacity="1"/>
<rect x="30" y="20" width="2.5" height="2.5" fill="rgb(5,0,249)" opacity="1"/>
<rect x="60" y="20" width="2.5" height="2.5" fill="rgb(2,0,252)" opacity="1"/>
<rect x="65" y="20" width="2.5" height="2.5" fill="rgb(3,0,251)" opacity="1"/>
<rect x="70" y="20" width="2.5" height="2.5" fill="rgb(4,0,250)" opacity="1"/>
<rect x="110" y="20" width="2.5" height="2.5" fill="rgb(3,0,251)" opacity="1"/>
<rect x="115" y="20" width="2.5" height="2.5" fill="rgb(5,0,249)" opacity="1"/>
<rect x="120" y="20" width="2.5" height="2.5" fill="rgb(5,0,249)" opacity="1"/>
<rect x="30" y="25" width="2.5" height="2.5" fill="rgb(29,0,225)" opacity="1"/>
<rect x="65" y="25" width="2.5" height="2.5" fill="rgb(4,0,250)" opacity="1"/>
<rect x="70" y="25" width="2.5" height="2.5" fill="rgb(6,0,248)" opacity="1"/>
<rect x="110" y="25" width="2.5" height="2.5" fill="rgb(3,0,251)" opacity="1"/>
<rect x="115" y="25" width="2.5" height="2.5" fill="rgb(11,0,243)" opacity="1"/>
<rect x="120" y="25" width="2.5" height="2.5" fill="rgb(10,0,244)" opacity="1"/>
<rect x="125" y="25" width="2.5" height="2.5" fill="rgb(6,0,248)" opacity="1"/>
<rect x="40" y="30" width="2.5" height="2.5" fill="rgb(13,0,241)" opacity="1"/>
<rect x="90" y="30" width="2.5" height="2.5" fill="rgb(3,0,251)" opacity="1"/>
<rect x="115" y="30" width="2.5" height="2.5" fill="rgb(5,0,249)" opacity="1"/>
<rect x="120" y="30" width="2.5" height="2.5" fill="rgb(7,0,247)" opacity="1"/>
<rect x="125" y="30" width="2.5" height="2.5" fill="rgb(23,0,231)" opacity="1"/>
<rect x="40" y="35" width="2.5" height="2.5" fill="rgb(4,0,250)" opacity="1"/>
<rect x="70" y="35" width="2.5" height="2.5" fill="rgb(3,0,251)" opacity="1"/>
<rect x="90" y="35" width="2.5" height="2.5" fill="rgb(107,0,147)" opacity="1"/>
<rect x="145" y="35" width="2.5" height="2.5" fill="rgb(16,0,238)" opacity="1"/>
<rect x="45" y="40" width="2.5" height="2.5" fill="rgb(28,0,226)" opacity="1"/>
<rect x="50" y="40" width="2.5" height="2.5" fill="rgb(4,0,250)" opacity="1"/>
<rect x="90" y="40" width="2.5" height="2.5" fill="rgb(4,0,250)" opacity="1"/>
<rect x="125" y="40" width="2.5" height="2.5" fill="rgb(4,0,250)" opacity="1"/>
<rect x="130" y="40" width="2.5" height="2.5" fill="rgb(6,0,248)" opacity="1"/>
<rect x="145" y="40" width="2.5" height="2.5" fill="rgb(3,0,251)" opacity="1"/>
<rect x="50" y="45" width="2.5" height="2.5" fill="rgb(24,0,230)" opacity="1"/>
<rect x="55" y="45" width="2.5" height="2.5" fill="rgb(5,0,249)" opacity="1"/>
<rect x="130" y="45" width="2.5" height="2.5" fill="rgb(3,0,251)" opacity="1"/>
<rect x="145" y="45" width="2.5" height="2.5" fill="rgb(3,0,251)" opacity="1"/>
<rect x="55" y="50" width="2.5" height="2.5" fill="rgb(14,0,240)" opacity="1"/>
<rect x="145" y="50" width="2.5" height="2.5" fill="rgb(4,0,250)" opacity="1"/>
<rect x="60" y="55" width="2.5" height="2.5" fill="rgb(11,0,243)" opacity="1"/>
<rect x="65" y="60" width="2.5" height="2.5" fill="rgb(17,0,237)" opacity="1"/>
<rect x="70" y="60" width="2.5" height="2.5" fill="rgb(6,0,248)" opacity="1"/>
<rect x="70" y="65" width="2.5" height="2.5" fill="rgb(28,0,226)" opacity="1"/>
<rect x="80" y="75" width="2.5" height="2.5" fill="rgb(23,0,231)" opacity="1"/>
<rect x="85" y="75" width="2.5" height="2.5" fill="rgb(6,0,248)" opacity="1"/>
<rect x="115" y="75" width="2.5" height="2.5" fill="rgb(4,0,250)" opacity="1"/>
<rect x="120" y="75" width="2.5" height="2.5" fill="rgb(5,0,249)" opacity="1"/>
<rect x="125" y="75" width="2.5" height="2.5" fill="rgb(9,0,245)" opacity="1"/>
<rect x="160" y="75" width="2.5" height="2.5" fill="rgb(5,0,249)" opacity="1"/>
<rect x="165" y="75" width="2.5" height="2.5" fill="rgb(11,0,243)" opacity="1"/>
<rect x="85" y="80" width="2.5" height="2.5" fill="rgb(30,0,224)" opacity="1"/>
<rect x="95" y="80" width="2.5" height="2.5" fill="rgb(11,0,243)" opacity="1"/>
<rect x="125" y="80" width="2.5" height="2.5" fill="rgb(13,0,241)" opacity="1"/>
<rect x="130" y="80" width="2.5" height="2.5" fill="rgb(15,0,239)" opacity="1"/>
<rect x="135" y="80" width="2.5" height="2.5" fill="rgb(7,0,247)" opacity="1"/>
<rect x="140" y="80" width="2.5" height="2.5" fill="rgb(3,0,251)" opacity="1"/>
<rect x="165" y="80" width="2.5" height="2.5" fill="rgb(3,0,251)" opacity="1"/>
<rect x="95" y="85" width="2.5" height="2.5" fill="rgb(44,0,210)" opacity="1"/>
<rect x="100" y="85" width="2.5" height="2.5" fill="rgb(8,0,246)" opacity="1"/>
<rect x="125" y="85" width="2.5" height="2.5" fill="rgb(4,0,250)" opacity="1"/>
<rect x="130" y="85" width="2.5" height="2.5" fill="rgb(17,0,237)" opacity="1"/>
<rect x="135" y="85" width="2.5" height="2.5" fill="rgb(13,0,241)" opacity="1"/>
<rect x="140" y="85" width="2.5" height="2.5" fill="rgb(7,0,247)" opacity="1"/>
<rect x="145" y="90" width="2.5" height="2.5" fill="rgb(16,0,238)" opacity="1"/>
<rect x="100" y="95" width="2.5" height="2.5" fill="rgb(20,0,234)" opacity="1"/>
<rect x="105" y="95" width="2.5" height="2.5" fill="rgb(3,0,251)" opacity="1"/>
<rect x="125" y="95" width="2.5" height="2.5" fill="rgb(4,0,250)" opacity="1"/>
<rect x="130" y="95" width="2.5" height="2.5" fill="rgb(13,0,241)" opacity="1"/>
<rect x="135" y="95" width="2.5" height="2.5" fill="rgb(16,0,238)" opacity="1"/>
<rect x="140" y="95" width="2.5" height="2.5" fill="rgb(12,0,242)" opacity="1"/>
<rect x="150" y="95" width="2.5" height="2.5" fill="rgb(3,0,251)" opacity="1"/>
<rect x="105" y="100" width="2.5" height="2.5" fill="rgb(21,0,233)" opacity="1"/>
<rect x="110" y="100" width="2.5" height="2.5" fill="rgb(8,0,246)" opacity="1"/>
<rect x="115" y="100" width="2.5" height="2.5" fill="rgb(3,0,251)" opacity="1"/>
<rect x="120" y="100" width="2.5" height="2.5" fill="rgb(3,0,251)" opacity="1"/>
<rect x="130" y="100" width="2.5" height="2.5" fill="rgb(4,0,250)" opacity="1"/>
<rect x="135" y="100" width="2.5" height="2.5" fill="rgb(7,0,247)" opacity="1"/>
<rect x="140" y="100" width="2.5" height="2.5" fill="rgb(9,0,245)" opacity="1"/>
<rect x="150" y="100" width="2.5" height="2.5" fill="rgb(13,0,241)" opacity="1"/>
<rect x="155" y="100" width="2.5" height="2.5" fill="rgb(3,0,251)" opacity="1"/>
<rect x="110" y="105" width="2.5" height="2.5" fill="rgb(45,0,209)" opacity="1"/>
<rect x="115" y="105" width="2.5" height="2.5" fill="rgb(16,0,238)" opacity="1"/>
<rect x="120" y="105" width="2.5" height="2.5" fill="rgb(19,0,235)" opacity="1"/>
<rect x="125" y="105" width="2.5" height="2.5" fill="rgb(4,0,250)" opacity="1"/>
<rect x="150" y="105" width="2.5" height="2.5" fill="rgb(9,0,245)" opacity="1"/>
<rect x="155" y="105" width="2.5" height="2.5" fill="rgb(14,0,240)" opacity="1"/>
<rect x="160" y="105" width="2.5" height="2.5" fill="rgb(7,0,247)" opacity="1"/>
<rect x="115" y="110" width="2.5" height="2.5" fill="rgb(54,0,200)" opacity="1"/>
<rect x="120" y="110" width="2.5" height="2.5" fill="rgb(53,0,201)" opacity="1"/>
<rect x="125" y="110" width="2.5" height="2.5" fill="rgb(12,0,242)" opacity="1"/>
<rect x="130" y="110" width="2.5" height="2.5" fill="rgb(3,0,251)" opacity="1"/>
<rect x="150" y="110" width="2.5" height="2.5" fill="rgb(5,0,249)" opacity="1"/>
<rect x="155" y="110" width="2.5" height="2.5" fill="rgb(15,0,239)" opacity="1"/>
<rect x="160" y="110" width="2.5" height="2.5" fill="rgb(16,0,238)" opacity="1"/>
<rect x="165" y="110" width="2.5" height="2.5" fill="rgb(10,0,244)" opacity="1"/>
<rect x="120" y="115" width="2.5" height="2.5" fill="rgb(255,0,0)" opacity="1"/>
<rect x="125" y="115" width="2.5" height="2.5" fill="rgb(46,0,208)" opacity="1"/>
<rect x="130" y="115" width="2.5" height="2.5" fill="rgb(6,0,248)" opacity="1"/>
<rect x="135" y="115" width="2.5" height="2.5" fill="rgb(4,0,250)" opacity="1"/>
<rect x="150" y="115" width="2.5" height="2.5" fill="rgb(4,0,250)" opacity="1"/>
<rect x="155" y="115" width="2.5" height="2.5" fill="rgb(7,0,247)" opacity="1"/>
<rect x="160" y="115" width="2.5" height="2.5" fill="rgb(17,0,237)" opacity="1"/>
<rect x="165" y="115" width="2.5" height="2.5" fill="rgb(15,0,239)" opacity="1"/>
<rect x="125" y="120" width="2.5" height="2.5" fill="rgb(46,0,208)" opacity="1"/>
<rect x="130" y="120" width="2.5" height="2.5" fill="rgb(5,0,249)" opacity="1"/>
<rect x="150" y="120" width="2.5" height="2.5" fill="rgb(3,0,251)" opacity="1"/>
<rect x="155" y="120" width="2.5" height="2.5" fill="rgb(11,0,243)" opacity="1"/>
<rect x="160" y="120" width="2.5" height="2.5" fill="rgb(15,0,239)" opacity="1"/>
<rect x="165" y="120" width="2.5" height="2.5" fill="rgb(17,0,237)" opacity="1"/>
<rect x="130" y="125" width="2.5" height="2.5" fill="rgb(28,0,226)" opacity="1"/>
<rect x="135" y="125" width="2.5" height="2.5" fill="rgb(11,0,243)" opacity="1"/>
<rect x="140" y="125" width="2.5" height="2.5" fill="rgb(4,0,250)" opacity="1"/>
<rect x="150" y="125" width="2.5" height="2.5" fill="rgb(3,0,251)" opacity="1"/>
<rect x="155" y="125" width="2.5" height="2.5" fill="rgb(4,0,250)" opacity="1"/>
<rect x="160" y="125" width="2.5" height="2.5" fill="rgb(6,0,248)" opacity="1"/>
<rect x="165" y="125" width="2.5" height="2.5" fill="rgb(9,0,245)" opacity="1"/>
<rect x="135" y="130" width="2.5" height="2.5" fill="rgb(52,0,202)" opacity="1"/>
<rect x="140" y="130" width="2.5" height="2.5" fill="rgb(22,0,232)" opacity="1"/>
<rect x="150" y="130" width="2.5" height="2.5" fill="rgb(6,0,248)" opacity="1"/>
<rect x="155" y="130" width="2.5" height="2.5" fill="rgb(3,0,251)" opacity="1"/>
<rect x="140" y="135" width="2.5" height="2.5" fill="rgb(81,0,173)" opacity="1"/>
<rect x="145" y="135" width="2.5" height="2.5" fill="rgb(8,0,246)" opacity="1"/>
<rect x="150" y="135" width="2.5" height="2.5" fill="rgb(13,0,241)" opacity="1"/>
<rect x="155" y="135" width="2.5" height="2.5" fill="rgb(4,0,250)" opacity="1"/>
<rect x="145" y="140" width="2.5" height="2.5" fill="rgb(6,0,248)" opacity="1"/>
<rect x="150" y="140" width="2.5" height="2.5" fill="rgb(47,0,207)" opacity="1"/>
<rect x="155" y="140" width="2.5" height="2.5" fill="rgb(6,0,248)" opacity="1"/>
<rect x="155" y="150" width="2.5" height="2.5" fill="rgb(44,0,210)" opacity="1"/>
<rect x="160" y="150" width="2.5" height="2.5" fill="rgb(7,0,247)" opacity="1"/>
<rect x="165" y="150" width="2.5" height="2.5" fill="rgb(4,0,250)" opacity="1"/>
<rect x="160" y="155" width="2.5" height="2.5" fill="rgb(51,0,203)" opacity="1"/>
<rect x="165" y="155" width="2.5" height="2.5" fill="rgb(13,0,241)" opacity="1"/>
<rect x="165" y="160" width="2.5" height="2.5" fill="rgb(52,0,202)" opacity="1"/>
<text x="175" y="5" font-size="5" fill="black">0</text>
<text x="175" y="165" font-size="5" fill="black">34</text>
<polyline points="175,10,175,160" stroke="black" stroke-width="1" fill="none" opacity="1"/>
<text x="5" y="175" font-size="5" fill="black">0</text>
<text x="165" y="175" font-size="5" fill="black">34</text>
<polyline points="10,175,160,175" stroke="black" stroke-width="1" fill="none" opacity="1"/>
</svg>