<?xml version="1.0" encoding="UTF-8" standalone="no"?>
<!DOCTYPE svg PUBLIC "-//W3C//DTD SVG 1.1//EN"
 "http://www.w3.org/Graphics/SVG/1.1/DTD/svg11.dtd">
<!-- Generated by graphviz version 2.43.0 (0)
 -->
<!-- Title: 1 Pages: 1 -->
<svg width="828pt" height="896pt"
 viewBox="0.00 0.00 828.43 896.31" xmlns="http://www.w3.org/2000/svg" xmlns:xlink="http://www.w3.org/1999/xlink">
<g id="graph0" class="graph" transform="scale(1 1) rotate(0) translate(4 892.31)">
<title>1</title>
<polygon fill="white" stroke="transparent" points="-4,4 -4,-892.31 824.43,-892.31 824.43,4 -4,4"/>
<!-- n32 -->
<g id="node1" class="node">
<title>n32</title>
<ellipse fill="none" stroke="black" cx="284.06" cy="-128.95" rx="28.7" ry="28.7"/>
<text text-anchor="middle" x="284.06" y="-125.25" font-family="Times,serif" font-size="14.00">n32</text>
</g>
<!-- n33 -->
<g id="node2" class="node">
<title>n33</title>
<ellipse fill="none" stroke="black" cx="394.84" cy="-39.59" rx="28.7" ry="28.7"/>
<text text-anchor="middle" x="394.84" y="-35.89" font-family="Times,serif" font-size="14.00">n33</text>
</g>
<!-- n32&#45;&#45;n33 -->
<g id="edge1" class="edge">
<title>n32&#45;&#45;n33</title>
<path fill="none" stroke="black" d="M306.48,-110.87C325.7,-95.37 353.25,-73.15 372.46,-57.65"/>
</g>
<!-- n31 -->
<g id="node3" class="node">
<title>n31</title>
<ellipse fill="none" stroke="black" cx="444.71" cy="-296.21" rx="28.7" ry="28.7"/>
<text text-anchor="middle" x="444.71" y="-292.51" font-family="Times,serif" font-size="14.00">n31</text>
</g>
<!-- n31&#45;&#45;n32 -->
<g id="edge3" class="edge">
<title>n31&#45;&#45;n32</title>
<path fill="none" stroke="black" d="M424.69,-275.37C393.82,-243.23 334.95,-181.94 304.08,-149.8"/>
</g>
<!-- n31&#45;&#45;n33 -->
<g id="edge2" class="edge">
<title>n31&#45;&#45;n33</title>
<path fill="none" stroke="black" d="M439.18,-267.77C429.57,-218.31 409.89,-117.05 400.32,-67.77"/>
</g>
<!-- n30 -->
<g id="node4" class="node">
<title>n30</title>
<ellipse fill="none" stroke="black" cx="477.56" cy="-391.98" rx="28.7" ry="28.7"/>
<text text-anchor="middle" x="477.56" y="-388.28" font-family="Times,serif" font-size="14.00">n30</text>
</g>
<!-- n30&#45;&#45;n32 -->
<g id="edge4" class="edge">
<title>n30&#45;&#45;n32</title>
<path fill="none" stroke="black" d="M460.39,-368.63C423.67,-318.72 337.88,-202.11 301.19,-152.24"/>
</g>
<!-- n30&#45;&#45;n31 -->
<g id="edge5" class="edge">
<title>n30&#45;&#45;n31</title>
<path fill="none" stroke="black" d="M468.24,-364.79C463.8,-351.85 458.5,-336.41 454.06,-323.47"/>
</g>
<!-- n28 -->
<g id="node5" class="node">
<title>n28</title>
<ellipse fill="none" stroke="black" cx="706.55" cy="-443.06" rx="28.7" ry="28.7"/>
<text text-anchor="middle" x="706.55" y="-439.36" font-family="Times,serif" font-size="14.00">n28</text>
</g>
<!-- n28&#45;&#45;n31 -->
<g id="edge6" class="edge">
<title>n28&#45;&#45;n31</title>
<path fill="none" stroke="black" d="M681.44,-428.98C631.39,-400.91 519.73,-338.29 469.74,-310.25"/>
</g>
<!-- n28&#45;&#45;n30 -->
<g id="edge7" class="edge">
<title>n28&#45;&#45;n30</title>
<path fill="none" stroke="black" d="M678.47,-436.8C634.4,-426.97 549.5,-408.03 505.51,-398.21"/>
</g>
<!-- n29 -->
<g id="node6" class="node">
<title>n29</title>
<ellipse fill="none" stroke="black" cx="593.46" cy="-727.5" rx="28.7" ry="28.7"/>
<text text-anchor="middle" x="593.46" y="-723.8" font-family="Times,serif" font-size="14.00">n29</text>
</g>
<!-- n28&#45;&#45;n29 -->
<g id="edge8" class="edge">
<title>n28&#45;&#45;n29</title>
<path fill="none" stroke="black" d="M695.91,-469.82C674.35,-524.04 625.75,-646.28 604.15,-700.61"/>
</g>
<!-- n27 -->
<g id="node7" class="node">
<title>n27</title>
<ellipse fill="none" stroke="black" cx="631.4" cy="-437.68" rx="28.7" ry="28.7"/>
<text text-anchor="middle" x="631.4" y="-433.98" font-family="Times,serif" font-size="14.00">n27</text>
</g>
<!-- n27&#45;&#45;n31 -->
<g id="edge9" class="edge">
<title>n27&#45;&#45;n31</title>
<path fill="none" stroke="black" d="M608.51,-420.33C572.68,-393.18 503.74,-340.94 467.79,-313.7"/>
</g>
<!-- n27&#45;&#45;n30 -->
<g id="edge10" class="edge">
<title>n27&#45;&#45;n30</title>
<path fill="none" stroke="black" d="M603.9,-429.51C575.98,-421.21 533.01,-408.45 505.09,-400.15"/>
</g>
<!-- n27&#45;&#45;n28 -->
<g id="edge12" class="edge">
<title>n27&#45;&#45;n28</title>
<path fill="none" stroke="black" d="M660.24,-439.74C666.04,-440.16 672.12,-440.6 677.91,-441.01"/>
</g>
<!-- n27&#45;&#45;n29 -->
<g id="edge11" class="edge">
<title>n27&#45;&#45;n29</title>
<path fill="none" stroke="black" d="M627.66,-466.26C620.39,-521.81 604.43,-643.75 597.17,-699.14"/>
</g>
<!-- n26 -->
<g id="node8" class="node">
<title>n26</title>
<ellipse fill="none" stroke="black" cx="622.65" cy="-347.41" rx="28.7" ry="28.7"/>
<text text-anchor="middle" x="622.65" y="-343.71" font-family="Times,serif" font-size="14.00">n26</text>
</g>
<!-- n26&#45;&#45;n31 -->
<g id="edge13" class="edge">
<title>n26&#45;&#45;n31</title>
<path fill="none" stroke="black" d="M594.84,-339.41C561.42,-329.79 505.66,-313.75 472.32,-304.16"/>
</g>
<!-- n26&#45;&#45;n30 -->
<g id="edge14" class="edge">
<title>n26&#45;&#45;n30</title>
<path fill="none" stroke="black" d="M595.02,-355.9C569.2,-363.83 530.87,-375.6 505.09,-383.52"/>
</g>
<!-- n26&#45;&#45;n28 -->
<g id="edge15" class="edge">
<title>n26&#45;&#45;n28</title>
<path fill="none" stroke="black" d="M641.68,-369.12C655.42,-384.77 673.87,-405.81 687.58,-421.45"/>
</g>
<!-- n26&#45;&#45;n27 -->
<g id="edge16" class="edge">
<title>n26&#45;&#45;n27</title>
<path fill="none" stroke="black" d="M625.42,-375.97C626.44,-386.51 627.6,-398.44 628.62,-408.99"/>
</g>
<!-- n25 -->
<g id="node9" class="node">
<title>n25</title>
<ellipse fill="none" stroke="black" cx="516.44" cy="-276.45" rx="28.7" ry="28.7"/>
<text text-anchor="middle" x="516.44" y="-272.75" font-family="Times,serif" font-size="14.00">n25</text>
</g>
<!-- n25&#45;&#45;n32 -->
<g id="edge18" class="edge">
<title>n25&#45;&#45;n32</title>
<path fill="none" stroke="black" d="M492.01,-260.95C447.38,-232.62 353.16,-172.81 308.51,-144.47"/>
</g>
<!-- n25&#45;&#45;n33 -->
<g id="edge17" class="edge">
<title>n25&#45;&#45;n33</title>
<path fill="none" stroke="black" d="M503.2,-250.66C479.81,-205.09 431.45,-110.9 408.07,-65.36"/>
</g>
<!-- n25&#45;&#45;n31 -->
<g id="edge19" class="edge">
<title>n25&#45;&#45;n31</title>
<path fill="none" stroke="black" d="M488.5,-284.15C483.31,-285.58 477.88,-287.08 472.69,-288.51"/>
</g>
<!-- n25&#45;&#45;n30 -->
<g id="edge20" class="edge">
<title>n25&#45;&#45;n30</title>
<path fill="none" stroke="black" d="M507.23,-303.83C501.03,-322.25 492.89,-346.42 486.71,-364.79"/>
</g>
<!-- n25&#45;&#45;n28 -->
<g id="edge21" class="edge">
<title>n25&#45;&#45;n28</title>
<path fill="none" stroke="black" d="M538.25,-295.57C574.92,-327.71 648.49,-392.19 684.99,-424.18"/>
</g>
<!-- n25&#45;&#45;n27 -->
<g id="edge22" class="edge">
<title>n25&#45;&#45;n27</title>
<path fill="none" stroke="black" d="M533.16,-299.9C554.95,-330.46 592.86,-383.62 614.67,-414.21"/>
</g>
<!-- n25&#45;&#45;n26 -->
<g id="edge23" class="edge">
<title>n25&#45;&#45;n26</title>
<path fill="none" stroke="black" d="M540.28,-292.38C557.65,-303.98 581.09,-319.65 598.52,-331.3"/>
</g>
<!-- n24 -->
<g id="node10" class="node">
<title>n24</title>
<ellipse fill="none" stroke="black" cx="347.52" cy="-227.24" rx="28.7" ry="28.7"/>
<text text-anchor="middle" x="347.52" y="-223.54" font-family="Times,serif" font-size="14.00">n24</text>
</g>
<!-- n24&#45;&#45;n32 -->
<g id="edge25" class="edge">
<title>n24&#45;&#45;n32</title>
<path fill="none" stroke="black" d="M331.99,-203.2C322.16,-187.97 309.49,-168.34 299.64,-153.09"/>
</g>
<!-- n24&#45;&#45;n33 -->
<g id="edge24" class="edge">
<title>n24&#45;&#45;n33</title>
<path fill="none" stroke="black" d="M354.6,-199.15C363.55,-163.67 378.85,-103 387.79,-67.57"/>
</g>
<!-- n24&#45;&#45;n31 -->
<g id="edge26" class="edge">
<title>n24&#45;&#45;n31</title>
<path fill="none" stroke="black" d="M371.04,-243.94C386.21,-254.7 405.87,-268.65 421.06,-279.43"/>
</g>
<!-- n24&#45;&#45;n30 -->
<g id="edge27" class="edge">
<title>n24&#45;&#45;n30</title>
<path fill="none" stroke="black" d="M365.33,-249.8C390.16,-281.26 434.93,-337.97 459.76,-369.42"/>
</g>
<!-- n24&#45;&#45;n26 -->
<g id="edge28" class="edge">
<title>n24&#45;&#45;n26</title>
<path fill="none" stroke="black" d="M373.9,-238.77C426.49,-261.74 543.82,-312.98 596.35,-335.93"/>
</g>
<!-- n24&#45;&#45;n25 -->
<g id="edge29" class="edge">
<title>n24&#45;&#45;n25</title>
<path fill="none" stroke="black" d="M375.03,-235.26C406.45,-244.41 457.53,-259.29 488.94,-268.44"/>
</g>
<!-- n23 -->
<g id="node11" class="node">
<title>n23</title>
<ellipse fill="none" stroke="black" cx="357.01" cy="-302.3" rx="28.7" ry="28.7"/>
<text text-anchor="middle" x="357.01" y="-298.6" font-family="Times,serif" font-size="14.00">n23</text>
</g>
<!-- n23&#45;&#45;n32 -->
<g id="edge31" class="edge">
<title>n23&#45;&#45;n32</title>
<path fill="none" stroke="black" d="M345.77,-275.59C332.02,-242.92 308.89,-187.96 295.19,-155.4"/>
</g>
<!-- n23&#45;&#45;n33 -->
<g id="edge30" class="edge">
<title>n23&#45;&#45;n33</title>
<path fill="none" stroke="black" d="M361.09,-273.94C368.35,-223.52 383.43,-118.85 390.72,-68.24"/>
</g>
<!-- n23&#45;&#45;n31 -->
<g id="edge32" class="edge">
<title>n23&#45;&#45;n31</title>
<path fill="none" stroke="black" d="M385.73,-300.31C395.42,-299.63 406.23,-298.88 415.93,-298.21"/>
</g>
<!-- n23&#45;&#45;n30 -->
<g id="edge33" class="edge">
<title>n23&#45;&#45;n30</title>
<path fill="none" stroke="black" d="M379.97,-319.38C401.28,-335.23 432.86,-358.72 454.28,-374.66"/>
</g>
<!-- n23&#45;&#45;n27 -->
<g id="edge34" class="edge">
<title>n23&#45;&#45;n27</title>
<path fill="none" stroke="black" d="M382.82,-315.04C435.12,-340.84 553.05,-399.02 605.46,-424.88"/>
</g>
<!-- n23&#45;&#45;n26 -->
<g id="edge35" class="edge">
<title>n23&#45;&#45;n26</title>
<path fill="none" stroke="black" d="M385.44,-307.13C436.56,-315.81 543.44,-333.96 594.42,-342.62"/>
</g>
<!-- n23&#45;&#45;n25 -->
<g id="edge36" class="edge">
<title>n23&#45;&#45;n25</title>
<path fill="none" stroke="black" d="M385.51,-297.68C414.53,-292.97 459.26,-285.72 488.19,-281.03"/>
</g>
<!-- n23&#45;&#45;n24 -->
<g id="edge37" class="edge">
<title>n23&#45;&#45;n24</title>
<path fill="none" stroke="black" d="M353.42,-273.92C352.66,-267.95 351.87,-261.64 351.11,-255.66"/>
</g>
<!-- n22 -->
<g id="node12" class="node">
<title>n22</title>
<ellipse fill="none" stroke="black" cx="274.28" cy="-223.36" rx="28.7" ry="28.7"/>
<text text-anchor="middle" x="274.28" y="-219.66" font-family="Times,serif" font-size="14.00">n22</text>
</g>
<!-- n22&#45;&#45;n32 -->
<g id="edge39" class="edge">
<title>n22&#45;&#45;n32</title>
<path fill="none" stroke="black" d="M277.24,-194.78C278.47,-182.95 279.89,-169.26 281.11,-157.44"/>
</g>
<!-- n22&#45;&#45;n33 -->
<g id="edge38" class="edge">
<title>n22&#45;&#45;n33</title>
<path fill="none" stroke="black" d="M290.04,-199.33C313.15,-164.12 355.97,-98.85 379.08,-63.62"/>
</g>
<!-- n22&#45;&#45;n31 -->
<g id="edge40" class="edge">
<title>n22&#45;&#45;n31</title>
<path fill="none" stroke="black" d="M300.91,-234.74C332.93,-248.43 386.33,-271.26 418.27,-284.91"/>
</g>
<!-- n22&#45;&#45;n30 -->
<g id="edge41" class="edge">
<title>n22&#45;&#45;n30</title>
<path fill="none" stroke="black" d="M296.42,-241.72C335.53,-274.16 416.37,-341.21 455.45,-373.63"/>
</g>
<!-- n22&#45;&#45;n26 -->
<g id="edge42" class="edge">
<title>n22&#45;&#45;n26</title>
<path fill="none" stroke="black" d="M301.33,-232.99C366.23,-256.1 530.25,-314.51 595.38,-337.7"/>
</g>
<!-- n22&#45;&#45;n25 -->
<g id="edge43" class="edge">
<title>n22&#45;&#45;n25</title>
<path fill="none" stroke="black" d="M302.54,-229.55C349.2,-239.78 441.83,-260.09 488.37,-270.3"/>
</g>
<!-- n22&#45;&#45;n24 -->
<g id="edge44" class="edge">
<title>n22&#45;&#45;n24</title>
<path fill="none" stroke="black" d="M303.23,-224.89C308.34,-225.17 313.67,-225.45 318.78,-225.72"/>
</g>
<!-- n22&#45;&#45;n23 -->
<g id="edge45" class="edge">
<title>n22&#45;&#45;n23</title>
<path fill="none" stroke="black" d="M295.16,-243.28C307.7,-255.24 323.6,-270.42 336.14,-282.39"/>
</g>
<!-- n21 -->
<g id="node13" class="node">
<title>n21</title>
<ellipse fill="none" stroke="black" cx="476.95" cy="-103.32" rx="28.7" ry="28.7"/>
<text text-anchor="middle" x="476.95" y="-99.62" font-family="Times,serif" font-size="14.00">n21</text>
</g>
<!-- n21&#45;&#45;n32 -->
<g id="edge46" class="edge">
<title>n21&#45;&#45;n32</title>
<path fill="none" stroke="black" d="M448.48,-107.1C412.02,-111.95 349.16,-120.3 312.64,-125.15"/>
</g>
<!-- n21&#45;&#45;n31 -->
<g id="edge47" class="edge">
<title>n21&#45;&#45;n31</title>
<path fill="none" stroke="black" d="M472.19,-131.78C466.08,-168.36 455.53,-231.47 449.43,-267.95"/>
</g>
<!-- n21&#45;&#45;n30 -->
<g id="edge48" class="edge">
<title>n21&#45;&#45;n30</title>
<path fill="none" stroke="black" d="M477.01,-132.05C477.13,-187.38 477.38,-308.12 477.5,-363.36"/>
</g>
<!-- n21&#45;&#45;n25 -->
<g id="edge49" class="edge">
<title>n21&#45;&#45;n25</title>
<path fill="none" stroke="black" d="M483.38,-131.52C490.75,-163.81 502.74,-216.39 510.08,-248.55"/>
</g>
<!-- n21&#45;&#45;n24 -->
<g id="edge50" class="edge">
<title>n21&#45;&#45;n24</title>
<path fill="none" stroke="black" d="M456.15,-123.23C432,-146.36 392.39,-184.28 368.26,-207.38"/>
</g>
<!-- n21&#45;&#45;n23 -->
<g id="edge51" class="edge">
<title>n21&#45;&#45;n23</title>
<path fill="none" stroke="black" d="M462,-128.12C438.95,-166.35 395,-239.27 371.96,-277.5"/>
</g>
<!-- n21&#45;&#45;n22 -->
<g id="edge52" class="edge">
<title>n21&#45;&#45;n22</title>
<path fill="none" stroke="black" d="M452.1,-118.04C413.09,-141.14 337.95,-185.65 299.02,-208.71"/>
</g>
<!-- n20 -->
<g id="node14" class="node">
<title>n20</title>
<ellipse fill="none" stroke="black" cx="596.59" cy="-203.52" rx="28.7" ry="28.7"/>
<text text-anchor="middle" x="596.59" y="-199.82" font-family="Times,serif" font-size="14.00">n20</text>
</g>
<!-- n20&#45;&#45;n31 -->
<g id="edge53" class="edge">
<title>n20&#45;&#45;n31</title>
<path fill="none" stroke="black" d="M571.85,-218.62C543.6,-235.85 497.68,-263.89 469.44,-281.12"/>
</g>
<!-- n20&#45;&#45;n30 -->
<g id="edge54" class="edge">
<title>n20&#45;&#45;n30</title>
<path fill="none" stroke="black" d="M581.27,-227.77C558.48,-263.85 515.87,-331.31 493.01,-367.52"/>
</g>
<!-- n20&#45;&#45;n28 -->
<g id="edge55" class="edge">
<title>n20&#45;&#45;n28</title>
<path fill="none" stroke="black" d="M608.56,-229.61C629.72,-275.69 673.44,-370.95 694.58,-417.01"/>
</g>
<!-- n20&#45;&#45;n27 -->
<g id="edge56" class="edge">
<title>n20&#45;&#45;n27</title>
<path fill="none" stroke="black" d="M600.86,-232.23C607.56,-277.29 620.47,-364.11 627.15,-409.1"/>
</g>
<!-- n20&#45;&#45;n26 -->
<g id="edge57" class="edge">
<title>n20&#45;&#45;n26</title>
<path fill="none" stroke="black" d="M601.73,-231.94C606.3,-257.17 612.94,-293.83 617.51,-319.04"/>
</g>
<!-- n20&#45;&#45;n24 -->
<g id="edge58" class="edge">
<title>n20&#45;&#45;n24</title>
<path fill="none" stroke="black" d="M568.01,-206.24C520.1,-210.8 424.09,-219.95 376.14,-224.52"/>
</g>
<!-- n20&#45;&#45;n23 -->
<g id="edge59" class="edge">
<title>n20&#45;&#45;n23</title>
<path fill="none" stroke="black" d="M570.03,-214.46C523.98,-233.45 429.82,-272.28 383.68,-291.3"/>
</g>
<!-- n20&#45;&#45;n22 -->
<g id="edge60" class="edge">
<title>n20&#45;&#45;n22</title>
<path fill="none" stroke="black" d="M567.98,-205.28C506.98,-209.03 364.65,-217.79 303.28,-221.57"/>
</g>
<!-- n20&#45;&#45;n21 -->
<g id="edge61" class="edge">
<title>n20&#45;&#45;n21</title>
<path fill="none" stroke="black" d="M574.64,-185.14C553.19,-167.17 520.7,-139.96 499.16,-121.92"/>
</g>
<!-- n19 -->
<g id="node15" class="node">
<title>n19</title>
<ellipse fill="none" stroke="black" cx="759.91" cy="-292.29" rx="28.7" ry="28.7"/>
<text text-anchor="middle" x="759.91" y="-288.59" font-family="Times,serif" font-size="14.00">n19</text>
</g>
<!-- n19&#45;&#45;n30 -->
<g id="edge62" class="edge">
<title>n19&#45;&#45;n30</title>
<path fill="none" stroke="black" d="M732.84,-301.85C678.87,-320.9 558.45,-363.42 504.55,-382.45"/>
</g>
<!-- n19&#45;&#45;n28 -->
<g id="edge63" class="edge">
<title>n19&#45;&#45;n28</title>
<path fill="none" stroke="black" d="M750.25,-319.59C740.58,-346.92 725.78,-388.71 716.14,-415.96"/>
</g>
<!-- n19&#45;&#45;n27 -->
<g id="edge64" class="edge">
<title>n19&#45;&#45;n27</title>
<path fill="none" stroke="black" d="M740.95,-313.74C716.65,-341.23 674.78,-388.61 650.44,-416.14"/>
</g>
<!-- n19&#45;&#45;n26 -->
<g id="edge65" class="edge">
<title>n19&#45;&#45;n26</title>
<path fill="none" stroke="black" d="M733.12,-303.05C708.93,-312.76 673.54,-326.98 649.37,-336.68"/>
</g>
<!-- n19&#45;&#45;n25 -->
<g id="edge66" class="edge">
<title>n19&#45;&#45;n25</title>
<path fill="none" stroke="black" d="M731.03,-290.41C684.17,-287.36 592.12,-281.38 545.29,-278.33"/>
</g>
<!-- n19&#45;&#45;n21 -->
<g id="edge67" class="edge">
<title>n19&#45;&#45;n21</title>
<path fill="none" stroke="black" d="M735.79,-276.18C682.33,-240.48 554.41,-155.05 501.01,-119.39"/>
</g>
<!-- n19&#45;&#45;n20 -->
<g id="edge68" class="edge">
<title>n19&#45;&#45;n20</title>
<path fill="none" stroke="black" d="M734.75,-278.61C704.06,-261.93 652.48,-233.9 621.78,-217.21"/>
</g>
<!-- n18 -->
<g id="node16" class="node">
<title>n18</title>
<ellipse fill="none" stroke="black" cx="415.8" cy="-774.69" rx="28.7" ry="28.7"/>
<text text-anchor="middle" x="415.8" y="-770.99" font-family="Times,serif" font-size="14.00">n18</text>
</g>
<!-- n18&#45;&#45;n29 -->
<g id="edge69" class="edge">
<title>n18&#45;&#45;n29</title>
<path fill="none" stroke="black" d="M443.56,-767.31C476.84,-758.48 532.28,-743.75 565.6,-734.9"/>
</g>
<!-- n17 -->
<g id="node17" class="node">
<title>n17</title>
<ellipse fill="none" stroke="black" cx="791.84" cy="-211.54" rx="28.7" ry="28.7"/>
<text text-anchor="middle" x="791.84" y="-207.84" font-family="Times,serif" font-size="14.00">n17</text>
</g>
<!-- n17&#45;&#45;n28 -->
<g id="edge70" class="edge">
<title>n17&#45;&#45;n28</title>
<path fill="none" stroke="black" d="M781.89,-238.55C765.45,-283.17 732.83,-371.73 716.43,-416.23"/>
</g>
<!-- n17&#45;&#45;n27 -->
<g id="edge71" class="edge">
<title>n17&#45;&#45;n27</title>
<path fill="none" stroke="black" d="M775.27,-234.89C744.53,-278.22 678.97,-370.62 648.12,-414.12"/>
</g>
<!-- n17&#45;&#45;n26 -->
<g id="edge72" class="edge">
<title>n17&#45;&#45;n26</title>
<path fill="none" stroke="black" d="M769.37,-229.59C737.01,-255.57 677.62,-303.27 645.21,-329.3"/>
</g>
<!-- n17&#45;&#45;n25 -->
<g id="edge73" class="edge">
<title>n17&#45;&#45;n25</title>
<path fill="none" stroke="black" d="M763.91,-218.12C711.13,-230.57 597.28,-257.4 544.44,-269.86"/>
</g>
<!-- n17&#45;&#45;n20 -->
<g id="edge74" class="edge">
<title>n17&#45;&#45;n20</title>
<path fill="none" stroke="black" d="M763.03,-210.36C726,-208.84 662.12,-206.21 625.2,-204.69"/>
</g>
<!-- n17&#45;&#45;n19 -->
<g id="edge75" class="edge">
<title>n17&#45;&#45;n19</title>
<path fill="none" stroke="black" d="M781.21,-238.43C777.76,-247.15 773.94,-256.81 770.5,-265.52"/>
</g>
<!-- n16 -->
<g id="node18" class="node">
<title>n16</title>
<ellipse fill="none" stroke="black" cx="700.21" cy="-142.09" rx="28.7" ry="28.7"/>
<text text-anchor="middle" x="700.21" y="-138.39" font-family="Times,serif" font-size="14.00">n16</text>
</g>
<!-- n16&#45;&#45;n33 -->
<g id="edge76" class="edge">
<title>n16&#45;&#45;n33</title>
<path fill="none" stroke="black" d="M672.84,-132.9C614.87,-113.44 480.27,-68.27 422.26,-48.8"/>
</g>
<!-- n16&#45;&#45;n28 -->
<g id="edge77" class="edge">
<title>n16&#45;&#45;n28</title>
<path fill="none" stroke="black" d="M700.82,-170.95C702.03,-228.48 704.73,-356.84 705.94,-414.29"/>
</g>
<!-- n16&#45;&#45;n27 -->
<g id="edge78" class="edge">
<title>n16&#45;&#45;n27</title>
<path fill="none" stroke="black" d="M693.68,-170.16C680.53,-226.65 651.01,-353.45 637.9,-409.79"/>
</g>
<!-- n16&#45;&#45;n26 -->
<g id="edge79" class="edge">
<title>n16&#45;&#45;n26</title>
<path fill="none" stroke="black" d="M690.07,-168.93C675.21,-208.28 647.66,-281.21 632.79,-320.56"/>
</g>
<!-- n16&#45;&#45;n25 -->
<g id="edge80" class="edge">
<title>n16&#45;&#45;n25</title>
<path fill="none" stroke="black" d="M676.94,-159.11C641.59,-184.95 574.76,-233.81 539.53,-259.57"/>
</g>
<!-- n16&#45;&#45;n19 -->
<g id="edge81" class="edge">
<title>n16&#45;&#45;n19</title>
<path fill="none" stroke="black" d="M710.89,-168.94C721.75,-196.28 738.5,-238.41 749.33,-265.67"/>
</g>
<!-- n16&#45;&#45;n17 -->
<g id="edge82" class="edge">
<title>n16&#45;&#45;n17</title>
<path fill="none" stroke="black" d="M723.33,-159.61C737.33,-170.22 755.1,-183.7 769.04,-194.26"/>
</g>
<!-- n15 -->
<g id="node19" class="node">
<title>n15</title>
<ellipse fill="none" stroke="black" cx="536.78" cy="-28.6" rx="28.7" ry="28.7"/>
<text text-anchor="middle" x="536.78" y="-24.9" font-family="Times,serif" font-size="14.00">n15</text>
</g>
<!-- n15&#45;&#45;n32 -->
<g id="edge84" class="edge">
<title>n15&#45;&#45;n32</title>
<path fill="none" stroke="black" d="M509.74,-39.34C461.09,-58.65 359.41,-99.03 310.91,-118.29"/>
</g>
<!-- n15&#45;&#45;n33 -->
<g id="edge83" class="edge">
<title>n15&#45;&#45;n33</title>
<path fill="none" stroke="black" d="M508.06,-30.82C483.43,-32.73 448.14,-35.47 423.52,-37.37"/>
</g>
<!-- n15&#45;&#45;n25 -->
<g id="edge85" class="edge">
<title>n15&#45;&#45;n25</title>
<path fill="none" stroke="black" d="M534.41,-57.51C530.49,-105.27 522.71,-200.08 518.8,-247.72"/>
</g>
<!-- n15&#45;&#45;n24 -->
<g id="edge86" class="edge">
<title>n15&#45;&#45;n24</title>
<path fill="none" stroke="black" d="M516.88,-49.48C480.53,-87.63 403.79,-168.18 367.43,-206.34"/>
</g>
<!-- n15&#45;&#45;n23 -->
<g id="edge87" class="edge">
<title>n15&#45;&#45;n23</title>
<path fill="none" stroke="black" d="M520.83,-52.89C486.71,-104.83 407.01,-226.17 372.93,-278.06"/>
</g>
<!-- n15&#45;&#45;n17 -->
<g id="edge88" class="edge">
<title>n15&#45;&#45;n17</title>
<path fill="none" stroke="black" d="M560.32,-45.48C608.91,-80.33 719.81,-159.88 768.35,-194.7"/>
</g>
<!-- n15&#45;&#45;n16 -->
<g id="edge89" class="edge">
<title>n15&#45;&#45;n16</title>
<path fill="none" stroke="black" d="M560.55,-45.1C591.62,-66.68 645.73,-104.25 676.68,-125.75"/>
</g>
<!-- n13 -->
<g id="node20" class="node">
<title>n13</title>
<ellipse fill="none" stroke="black" cx="28.6" cy="-548.25" rx="28.7" ry="28.7"/>
<text text-anchor="middle" x="28.6" y="-544.55" font-family="Times,serif" font-size="14.00">n13</text>
</g>
<!-- n14 -->
<g id="node21" class="node">
<title>n14</title>
<ellipse fill="none" stroke="black" cx="61.99" cy="-669.54" rx="28.7" ry="28.7"/>
<text text-anchor="middle" x="61.99" y="-665.84" font-family="Times,serif" font-size="14.00">n14</text>
</g>
<!-- n13&#45;&#45;n14 -->
<g id="edge90" class="edge">
<title>n13&#45;&#45;n14</title>
<path fill="none" stroke="black" d="M36.26,-576.08C41.69,-595.8 48.94,-622.15 54.37,-641.84"/>
</g>
<!-- n12 -->
<g id="node22" class="node">
<title>n12</title>
<ellipse fill="none" stroke="black" cx="158.95" cy="-721.91" rx="28.7" ry="28.7"/>
<text text-anchor="middle" x="158.95" y="-718.21" font-family="Times,serif" font-size="14.00">n12</text>
</g>
<!-- n12&#45;&#45;n13 -->
<g id="edge92" class="edge">
<title>n12&#45;&#45;n13</title>
<path fill="none" stroke="black" d="M141.64,-698.85C116.64,-665.55 70.7,-604.34 45.77,-571.13"/>
</g>
<!-- n12&#45;&#45;n14 -->
<g id="edge91" class="edge">
<title>n12&#45;&#45;n14</title>
<path fill="none" stroke="black" d="M133.73,-708.29C119.48,-700.59 101.71,-690.99 87.42,-683.27"/>
</g>
<!-- n11 -->
<g id="node23" class="node">
<title>n11</title>
<ellipse fill="none" stroke="black" cx="508.94" cy="-859.71" rx="28.7" ry="28.7"/>
<text text-anchor="middle" x="508.94" y="-856.01" font-family="Times,serif" font-size="14.00">n11</text>
</g>
<!-- n11&#45;&#45;n12 -->
<g id="edge93" class="edge">
<title>n11&#45;&#45;n12</title>
<path fill="none" stroke="black" d="M482.06,-849.13C416.91,-823.48 251.17,-758.22 185.92,-732.53"/>
</g>
<!-- n10 -->
<g id="node24" class="node">
<title>n10</title>
<ellipse fill="none" stroke="black" cx="717.39" cy="-828.82" rx="28.7" ry="28.7"/>
<text text-anchor="middle" x="717.39" y="-825.12" font-family="Times,serif" font-size="14.00">n10</text>
</g>
<!-- n10&#45;&#45;n29 -->
<g id="edge94" class="edge">
<title>n10&#45;&#45;n29</title>
<path fill="none" stroke="black" d="M695.24,-810.71C672.82,-792.38 638.34,-764.2 615.84,-745.8"/>
</g>
<!-- n10&#45;&#45;n11 -->
<g id="edge95" class="edge">
<title>n10&#45;&#45;n11</title>
<path fill="none" stroke="black" d="M688.85,-833.05C649.04,-838.95 577.28,-849.59 537.47,-855.48"/>
</g>
<!-- n9 -->
<g id="node25" class="node">
<title>n9</title>
<ellipse fill="none" stroke="black" cx="753.63" cy="-651.59" rx="23" ry="23"/>
<text text-anchor="middle" x="753.63" y="-647.89" font-family="Times,serif" font-size="14.00">n9</text>
</g>
<!-- n9&#45;&#45;n29 -->
<g id="edge96" class="edge">
<title>n9&#45;&#45;n29</title>
<path fill="none" stroke="black" d="M733.02,-661.36C704.04,-675.1 651.25,-700.11 619.57,-715.13"/>
</g>
<!-- n9&#45;&#45;n26 -->
<g id="edge97" class="edge">
<title>n9&#45;&#45;n26</title>
<path fill="none" stroke="black" d="M744.62,-630.69C721.45,-576.86 659.75,-433.59 634.09,-373.99"/>
</g>
<!-- n9&#45;&#45;n11 -->
<g id="edge98" class="edge">
<title>n9&#45;&#45;n11</title>
<path fill="none" stroke="black" d="M736.03,-666.56C692.31,-703.75 578.82,-800.28 530.85,-841.07"/>
</g>
<!-- n9&#45;&#45;n10 -->
<g id="edge99" class="edge">
<title>n9&#45;&#45;n10</title>
<path fill="none" stroke="black" d="M749.04,-674.04C742.45,-706.27 730.31,-765.62 723.14,-800.72"/>
</g>
<!-- n8 -->
<g id="node26" class="node">
<title>n8</title>
<ellipse fill="none" stroke="black" cx="583.88" cy="-592.52" rx="23" ry="23"/>
<text text-anchor="middle" x="583.88" y="-588.82" font-family="Times,serif" font-size="14.00">n8</text>
</g>
<!-- n8&#45;&#45;n26 -->
<g id="edge100" class="edge">
<title>n8&#45;&#45;n26</title>
<path fill="none" stroke="black" d="M587.46,-569.9C594.55,-525.1 610.35,-425.18 618.13,-375.95"/>
</g>
<!-- n8&#45;&#45;n25 -->
<g id="edge101" class="edge">
<title>n8&#45;&#45;n25</title>
<path fill="none" stroke="black" d="M579.09,-570.04C567.08,-513.77 535.74,-366.91 522.5,-304.82"/>
</g>
<!-- n8&#45;&#45;n18 -->
<g id="edge102" class="edge">
<title>n8&#45;&#45;n18</title>
<path fill="none" stroke="black" d="M568.37,-609.33C537.65,-642.62 469.13,-716.89 435.37,-753.48"/>
</g>
<!-- n8&#45;&#45;n10 -->
<g id="edge103" class="edge">
<title>n8&#45;&#45;n10</title>
<path fill="none" stroke="black" d="M595.27,-612.67C619.61,-655.75 676.66,-756.73 703.27,-803.82"/>
</g>
<!-- n8&#45;&#45;n9 -->
<g id="edge104" class="edge">
<title>n8&#45;&#45;n9</title>
<path fill="none" stroke="black" d="M605.38,-600C637.94,-611.33 699.42,-632.73 732.04,-644.08"/>
</g>
<!-- n7 -->
<g id="node27" class="node">
<title>n7</title>
<ellipse fill="none" stroke="black" cx="356.47" cy="-845.9" rx="23" ry="23"/>
<text text-anchor="middle" x="356.47" y="-842.2" font-family="Times,serif" font-size="14.00">n7</text>
</g>
<!-- n7&#45;&#45;n29 -->
<g id="edge105" class="edge">
<title>n7&#45;&#45;n29</title>
<path fill="none" stroke="black" d="M377.09,-835.6C420.33,-813.99 520.42,-763.99 567.76,-740.34"/>
</g>
<!-- n7&#45;&#45;n18 -->
<g id="edge106" class="edge">
<title>n7&#45;&#45;n18</title>
<path fill="none" stroke="black" d="M371.13,-828.29C379.09,-818.74 389.01,-806.84 397.48,-796.67"/>
</g>
<!-- n7&#45;&#45;n14 -->
<g id="edge107" class="edge">
<title>n7&#45;&#45;n14</title>
<path fill="none" stroke="black" d="M336.69,-834.05C284.59,-802.85 143.68,-718.46 86.55,-684.24"/>
</g>
<!-- n7&#45;&#45;n8 -->
<g id="edge108" class="edge">
<title>n7&#45;&#45;n8</title>
<path fill="none" stroke="black" d="M371.74,-828.88C413.17,-782.72 527.33,-655.53 568.68,-609.46"/>
</g>
<!-- n6 -->
<g id="node28" class="node">
<title>n6</title>
<ellipse fill="none" stroke="black" cx="335.6" cy="-511.14" rx="23" ry="23"/>
<text text-anchor="middle" x="335.6" y="-507.44" font-family="Times,serif" font-size="14.00">n6</text>
</g>
<!-- n6&#45;&#45;n25 -->
<g id="edge109" class="edge">
<title>n6&#45;&#45;n25</title>
<path fill="none" stroke="black" d="M349.49,-493.11C381.99,-450.93 462.96,-345.86 498.85,-299.29"/>
</g>
<!-- n6&#45;&#45;n24 -->
<g id="edge110" class="edge">
<title>n6&#45;&#45;n24</title>
<path fill="none" stroke="black" d="M336.55,-488.39C338.71,-437.07 343.94,-312.41 346.31,-255.92"/>
</g>
<!-- n6&#45;&#45;n23 -->
<g id="edge111" class="edge">
<title>n6&#45;&#45;n23</title>
<path fill="none" stroke="black" d="M337.93,-488.39C341.85,-450.12 349.77,-372.94 354.07,-331"/>
</g>
<!-- n6&#45;&#45;n18 -->
<g id="edge112" class="edge">
<title>n6&#45;&#45;n18</title>
<path fill="none" stroke="black" d="M342.3,-533.16C356.87,-581.03 391.4,-694.53 407.4,-747.09"/>
</g>
<!-- n6&#45;&#45;n8 -->
<g id="edge113" class="edge">
<title>n6&#45;&#45;n8</title>
<path fill="none" stroke="black" d="M357.63,-518.36C404.87,-533.84 515.38,-570.07 562.25,-585.43"/>
</g>
<!-- n5 -->
<g id="node29" class="node">
<title>n5</title>
<ellipse fill="none" stroke="black" cx="159.35" cy="-347.11" rx="23" ry="23"/>
<text text-anchor="middle" x="159.35" y="-343.41" font-family="Times,serif" font-size="14.00">n5</text>
</g>
<!-- n5&#45;&#45;n25 -->
<g id="edge114" class="edge">
<title>n5&#45;&#45;n25</title>
<path fill="none" stroke="black" d="M181.68,-342.69C243.98,-330.36 419.57,-295.62 488.33,-282.02"/>
</g>
<!-- n5&#45;&#45;n24 -->
<g id="edge115" class="edge">
<title>n5&#45;&#45;n24</title>
<path fill="none" stroke="black" d="M178.77,-334.73C213.33,-312.72 285.38,-266.82 323.18,-242.75"/>
</g>
<!-- n5&#45;&#45;n23 -->
<g id="edge116" class="edge">
<title>n5&#45;&#45;n23</title>
<path fill="none" stroke="black" d="M181.64,-342.06C217.88,-333.84 289.52,-317.6 329.1,-308.63"/>
</g>
<!-- n5&#45;&#45;n22 -->
<g id="edge117" class="edge">
<title>n5&#45;&#45;n22</title>
<path fill="none" stroke="black" d="M174.85,-330.42C195.56,-308.12 232.26,-268.6 254.81,-244.32"/>
</g>
<!-- n5&#45;&#45;n13 -->
<g id="edge119" class="edge">
<title>n5&#45;&#45;n13</title>
<path fill="none" stroke="black" d="M146.81,-366.4C122.84,-403.27 70.57,-483.68 44.31,-524.08"/>
</g>
<!-- n5&#45;&#45;n14 -->
<g id="edge118" class="edge">
<title>n5&#45;&#45;n14</title>
<path fill="none" stroke="black" d="M152.73,-369.02C135.53,-426 89.4,-578.76 70.38,-641.77"/>
</g>
<!-- n5&#45;&#45;n6 -->
<g id="edge120" class="edge">
<title>n5&#45;&#45;n6</title>
<path fill="none" stroke="black" d="M176.25,-362.84C209.93,-394.19 285.1,-464.15 318.75,-495.46"/>
</g>
<!-- n4 -->
<g id="node30" class="node">
<title>n4</title>
<ellipse fill="none" stroke="black" cx="154.65" cy="-455.06" rx="23" ry="23"/>
<text text-anchor="middle" x="154.65" y="-451.36" font-family="Times,serif" font-size="14.00">n4</text>
</g>
<!-- n4&#45;&#45;n24 -->
<g id="edge121" class="edge">
<title>n4&#45;&#45;n24</title>
<path fill="none" stroke="black" d="M169.47,-437.56C204.13,-396.61 290.48,-294.61 328.75,-249.41"/>
</g>
<!-- n4&#45;&#45;n23 -->
<g id="edge122" class="edge">
<title>n4&#45;&#45;n23</title>
<path fill="none" stroke="black" d="M172.97,-441.23C209.94,-413.32 293.41,-350.31 333.99,-319.68"/>
</g>
<!-- n4&#45;&#45;n22 -->
<g id="edge123" class="edge">
<title>n4&#45;&#45;n22</title>
<path fill="none" stroke="black" d="M165.27,-434.5C187.11,-392.19 237.05,-295.48 260.99,-249.1"/>
</g>
<!-- n4&#45;&#45;n13 -->
<g id="edge125" class="edge">
<title>n4&#45;&#45;n13</title>
<path fill="none" stroke="black" d="M136.32,-468.61C113.93,-485.17 76.01,-513.2 51.66,-531.2"/>
</g>
<!-- n4&#45;&#45;n14 -->
<g id="edge124" class="edge">
<title>n4&#45;&#45;n14</title>
<path fill="none" stroke="black" d="M145.6,-476.01C128.61,-515.33 92,-600.07 73.38,-643.18"/>
</g>
<!-- n4&#45;&#45;n12 -->
<g id="edge126" class="edge">
<title>n4&#45;&#45;n12</title>
<path fill="none" stroke="black" d="M155.02,-477.81C155.8,-526.34 157.63,-639.91 158.49,-693.26"/>
</g>
<!-- n4&#45;&#45;n6 -->
<g id="edge127" class="edge">
<title>n4&#45;&#45;n6</title>
<path fill="none" stroke="black" d="M176.48,-461.82C211.26,-472.6 278.87,-493.56 313.69,-504.35"/>
</g>
<!-- n4&#45;&#45;n5 -->
<g id="edge128" class="edge">
<title>n4&#45;&#45;n5</title>
<path fill="none" stroke="black" d="M155.65,-432.17C156.44,-413.85 157.56,-388.28 158.35,-369.97"/>
</g>
<!-- n3 -->
<g id="node31" class="node">
<title>n3</title>
<ellipse fill="none" stroke="black" cx="262.04" cy="-485.03" rx="23" ry="23"/>
<text text-anchor="middle" x="262.04" y="-481.33" font-family="Times,serif" font-size="14.00">n3</text>
</g>
<!-- n3&#45;&#45;n32 -->
<g id="edge129" class="edge">
<title>n3&#45;&#45;n32</title>
<path fill="none" stroke="black" d="M263.45,-462.22C267.31,-399.82 278.03,-226.43 282.29,-157.62"/>
</g>
<!-- n3&#45;&#45;n31 -->
<g id="edge130" class="edge">
<title>n3&#45;&#45;n31</title>
<path fill="none" stroke="black" d="M277.94,-468.61C311.18,-434.24 388.01,-354.82 424.61,-316.99"/>
</g>
<!-- n3&#45;&#45;n30 -->
<g id="edge131" class="edge">
<title>n3&#45;&#45;n30</title>
<path fill="none" stroke="black" d="M283.1,-475.94C322.61,-458.88 407.76,-422.12 451.08,-403.41"/>
</g>
<!-- n3&#45;&#45;n13 -->
<g id="edge132" class="edge">
<title>n3&#45;&#45;n13</title>
<path fill="none" stroke="black" d="M240.08,-490.98C197.41,-502.54 103.35,-528.01 56.4,-540.72"/>
</g>
<!-- n3&#45;&#45;n12 -->
<g id="edge133" class="edge">
<title>n3&#45;&#45;n12</title>
<path fill="none" stroke="black" d="M252.9,-506.06C234.07,-549.31 191.04,-648.18 170.4,-695.6"/>
</g>
<!-- n3&#45;&#45;n5 -->
<g id="edge134" class="edge">
<title>n3&#45;&#45;n5</title>
<path fill="none" stroke="black" d="M248.41,-466.72C228.76,-440.34 192.71,-391.92 173.04,-365.5"/>
</g>
<!-- n3&#45;&#45;n4 -->
<g id="edge135" class="edge">
<title>n3&#45;&#45;n4</title>
<path fill="none" stroke="black" d="M240.05,-478.9C221.52,-473.72 195.14,-466.36 176.61,-461.19"/>
</g>
<!-- n2 -->
<g id="node32" class="node">
<title>n2</title>
<ellipse fill="none" stroke="black" cx="444.52" cy="-564.46" rx="23" ry="23"/>
<text text-anchor="middle" x="444.52" y="-560.76" font-family="Times,serif" font-size="14.00">n2</text>
</g>
<!-- n2&#45;&#45;n31 -->
<g id="edge136" class="edge">
<title>n2&#45;&#45;n31</title>
<path fill="none" stroke="black" d="M444.54,-541.59C444.57,-492.81 444.65,-378.65 444.69,-325.01"/>
</g>
<!-- n2&#45;&#45;n30 -->
<g id="edge137" class="edge">
<title>n2&#45;&#45;n30</title>
<path fill="none" stroke="black" d="M448.84,-541.91C454.82,-510.68 465.63,-454.27 472.14,-420.26"/>
</g>
<!-- n2&#45;&#45;n28 -->
<g id="edge139" class="edge">
<title>n2&#45;&#45;n28</title>
<path fill="none" stroke="black" d="M465.52,-554.73C513,-532.73 628.53,-479.21 680.48,-455.14"/>
</g>
<!-- n2&#45;&#45;n29 -->
<g id="edge138" class="edge">
<title>n2&#45;&#45;n29</title>
<path fill="none" stroke="black" d="M459.9,-581.29C487.18,-611.15 543.97,-673.33 573.95,-706.15"/>
</g>
<!-- n2&#45;&#45;n27 -->
<g id="edge140" class="edge">
<title>n2&#45;&#45;n27</title>
<path fill="none" stroke="black" d="M463.47,-551.61C497.71,-528.38 569.82,-479.45 607.43,-453.94"/>
</g>
<!-- n2&#45;&#45;n11 -->
<g id="edge141" class="edge">
<title>n2&#45;&#45;n11</title>
<path fill="none" stroke="black" d="M449.47,-587.14C461.08,-640.34 490.04,-773.07 502.77,-831.43"/>
</g>
<!-- n2&#45;&#45;n4 -->
<g id="edge142" class="edge">
<title>n2&#45;&#45;n4</title>
<path fill="none" stroke="black" d="M423.21,-556.42C369.6,-536.18 229.64,-483.36 176,-463.12"/>
</g>
<!-- n2&#45;&#45;n3 -->
<g id="edge143" class="edge">
<title>n2&#45;&#45;n3</title>
<path fill="none" stroke="black" d="M423.59,-555.35C388.48,-540.07 318.14,-509.45 283.01,-494.16"/>
</g>
<!-- n1 -->
<g id="node33" class="node">
<title>n1</title>
<ellipse fill="none" stroke="black" cx="530.39" cy="-645.21" rx="23" ry="23"/>
<text text-anchor="middle" x="530.39" y="-641.51" font-family="Times,serif" font-size="14.00">n1</text>
</g>
<!-- n1&#45;&#45;n30 -->
<g id="edge144" class="edge">
<title>n1&#45;&#45;n30</title>
<path fill="none" stroke="black" d="M525.7,-622.74C516.05,-576.5 494.01,-470.8 483.43,-420.11"/>
</g>
<!-- n1&#45;&#45;n28 -->
<g id="edge146" class="edge">
<title>n1&#45;&#45;n28</title>
<path fill="none" stroke="black" d="M545.41,-627.98C577.44,-591.22 652.41,-505.19 687.63,-464.77"/>
</g>
<!-- n1&#45;&#45;n29 -->
<g id="edge145" class="edge">
<title>n1&#45;&#45;n29</title>
<path fill="none" stroke="black" d="M544.39,-663.47C553.68,-675.6 565.95,-691.6 575.89,-704.58"/>
</g>
<!-- n1&#45;&#45;n27 -->
<g id="edge147" class="edge">
<title>n1&#45;&#45;n27</title>
<path fill="none" stroke="black" d="M540.44,-624.55C559.01,-586.41 598.61,-505.04 618.88,-463.4"/>
</g>
<!-- n1&#45;&#45;n18 -->
<g id="edge148" class="edge">
<title>n1&#45;&#45;n18</title>
<path fill="none" stroke="black" d="M515.17,-662.4C494.47,-685.79 457.44,-727.63 434.9,-753.1"/>
</g>
<!-- n1&#45;&#45;n11 -->
<g id="edge149" class="edge">
<title>n1&#45;&#45;n11</title>
<path fill="none" stroke="black" d="M528.09,-668.17C524.15,-707.61 516.09,-788.16 511.79,-831.17"/>
</g>
<!-- n1&#45;&#45;n10 -->
<g id="edge150" class="edge">
<title>n1&#45;&#45;n10</title>
<path fill="none" stroke="black" d="M546.66,-661.18C580.69,-694.6 659.35,-771.83 696.82,-808.62"/>
</g>
<!-- n1&#45;&#45;n9 -->
<g id="edge151" class="edge">
<title>n1&#45;&#45;n9</title>
<path fill="none" stroke="black" d="M553.44,-645.87C596.33,-647.1 687.91,-649.71 730.7,-650.94"/>
</g>
<!-- n1&#45;&#45;n7 -->
<g id="edge152" class="edge">
<title>n1&#45;&#45;n7</title>
<path fill="none" stroke="black" d="M515.26,-662.67C482.28,-700.72 404.27,-790.74 371.44,-828.62"/>
</g>
<!-- n1&#45;&#45;n3 -->
<g id="edge153" class="edge">
<title>n1&#45;&#45;n3</title>
<path fill="none" stroke="black" d="M510.66,-633.43C461.03,-603.81 331.46,-526.47 281.81,-496.83"/>
</g>
<!-- n1&#45;&#45;n2 -->
<g id="edge154" class="edge">
<title>n1&#45;&#45;n2</title>
<path fill="none" stroke="black" d="M513.42,-629.26C498.27,-615.01 476.21,-594.26 461.16,-580.11"/>
</g>
<!-- n0 -->
<g id="node34" class="node">
<title>n0</title>
<ellipse fill="none" stroke="black" cx="240.54" cy="-765.06" rx="23" ry="23"/>
<text text-anchor="middle" x="240.54" y="-761.36" font-family="Times,serif" font-size="14.00">n0</text>
</g>
<!-- n0&#45;&#45;n29 -->
<g id="edge155" class="edge">
<title>n0&#45;&#45;n29</title>
<path fill="none" stroke="black" d="M263.42,-762.63C325.44,-756.03 496.63,-737.81 564.85,-730.55"/>
</g>
<!-- n0&#45;&#45;n18 -->
<g id="edge156" class="edge">
<title>n0&#45;&#45;n18</title>
<path fill="none" stroke="black" d="M263.45,-766.32C295.18,-768.06 352.5,-771.21 387.06,-773.11"/>
</g>
<!-- n0&#45;&#45;n13 -->
<g id="edge158" class="edge">
<title>n0&#45;&#45;n13</title>
<path fill="none" stroke="black" d="M224.61,-748.76C186.58,-709.87 90.57,-611.64 48.67,-568.79"/>
</g>
<!-- n0&#45;&#45;n14 -->
<g id="edge157" class="edge">
<title>n0&#45;&#45;n14</title>
<path fill="none" stroke="black" d="M220.4,-754.29C187.75,-736.82 123.31,-702.34 87.5,-683.18"/>
</g>
<!-- n0&#45;&#45;n7 -->
<g id="edge159" class="edge">
<title>n0&#45;&#45;n7</title>
<path fill="none" stroke="black" d="M259.42,-778.23C280.98,-793.26 316.04,-817.7 337.59,-832.73"/>
</g>
<!-- n0&#45;&#45;n6 -->
<g id="edge160" class="edge">
<title>n0&#45;&#45;n6</title>
<path fill="none" stroke="black" d="M248.64,-743.41C266.6,-695.44 309.57,-580.66 327.51,-532.73"/>
</g>
</g>
</svg>
