<?xml version="1.0" standalone="yes"?>
<!-- SVG graphic -->
<svg xmlns='http://www.w3.org/2000/svg' xmlns:xlink='http://www.w3.org/1999/xlink'
width="185px" height="185px" preserveAspectRatio="xMinYMin meet" viewBox="0 0 185 185" version="1.1">
<rect x="5" y="0" width="2.5" height="2.5" fill="rgb(13,0,241)" opacity="1"/>
<rect x="10" y="0" width="2.5" height="2.5" fill="rgb(12,0,242)" opacity="1"/>
<rect x="15" y="0" width="2.5" height="2.5" fill="rgb(13,0,241)" opacity="1"/>
<rect x="20" y="0" width="2.5" height="2.5" fill="rgb(13,0,241)" opacity="1"/>
<rect x="25" y="0" width="2.5" height="2.5" fill="rgb(17,0,237)" opacity="1"/>
<rect x="30" y="0" width="2.5" height="2.5" fill="rgb(18,0,236)" opacity="1"/>
<rect x="35" y="0" width="2.5" height="2.5" fill="rgb(21,0,233)" opacity="1"/>
<rect x="40" y="0" width="2.5" height="2.5" fill="rgb(13,0,241)" opacity="1"/>
<rect x="45" y="0" width="2.5" height="2.5" fill="rgb(11,0,243)" opacity="1"/>
<rect x="50" y="0" width="2.5" height="2.5" fill="rgb(12,0,242)" opacity="1"/>
<rect x="55" y="0" width="2.5" height="2.5" fill="rgb(8,0,246)" opacity="1"/>
<rect x="60" y="0" width="2.5" height="2.5" fill="rgb(10,0,244)" opacity="1"/>
<rect x="65" y="0" width="2.5" height="2.5" fill="rgb(13,0,241)" opacity="1"/>
<rect x="70" y="0" width="2.5" height="2.5" fill="rgb(24,0,230)" opacity="1"/>
<rect x="75" y="0" width="2.5" height="2.5" fill="rgb(8,0,246)" opacity="1"/>
<rect x="80" y="0" width="2.5" height="2.5" fill="rgb(11,0,243)" opacity="1"/>
<rect x="85" y="0" width="2.5" height="2.5" fill="rgb(13,0,241)" opacity="1"/>
<rect x="90" y="0" width="2.5" height="2.5" fill="rgb(24,0,230)" opacity="1"/>
<rect x="95" y="0" width="2.5" height="2.5" fill="rgb(13,0,241)" opacity="1"/>
<rect x="100" y="0" width="2.5" height="2.5" fill="rgb(14,0,240)" opacity="1"/>
<rect x="105" y="0" width="2.5" height="2.5" fill="rgb(13,0,241)" opacity="1"/>
<rect x="110" y="0" width="2.5" height="2.5" fill="rgb(13,0,241)" opacity="1"/>
<rect x="115" y="0" width="2.5" height="2.5" fill="rgb(17,0,237)" opacity="1"/>
<rect x="120" y="0" width="2.5" height="2.5" fill="rgb(18,0,236)" opacity="1"/>
<rect x="125" y="0" width="2.5" height="2.5" fill="rgb(20,0,234)" opacity="1"/>
<rect x="130" y="0" width="2.5" height="2.5" fill="rgb(18,0,236)" opacity="1"/>
<rect x="135" y="0" width="2.5" height="2.5" fill="rgb(17,0,237)" opacity="1"/>
<rect x="140" y="0" width="2.5" height="2.5" fill="rgb(17,0,237)" opacity="1"/>
<rect x="145" y="0" width="2.5" height="2.5" fill="rgb(13,0,241)" opacity="1"/>
<rect x="150" y="0" width="2.5" height="2.5" fill="rgb(17,0,237)" opacity="1"/>
<rect x="155" y="0" width="2.5" height="2.5" fill="rgb(16,0,238)" opacity="1"/>
<rect x="160" y="0" width="2.5" height="2.5" fill="rgb(16,0,238)" opacity="1"/>
<rect x="165" y="0" width="2.5" height="2.5" fill="rgb(14,0,240)" opacity="1"/>
<rect x="10" y="5" width="2.5" height="2.5" fill="rgb(31,0,223)" opacity="1"/>
<rect x="15" y="5" width="2.5" height="2.5" fill="rgb(13,0,241)" opacity="1"/>
<rect x="20" y="5" width="2.5" height="2.5" fill="rgb(11,0,243)" opacity="1"/>
<rect x="25" y="5" width="2.5" height="2.5" fill="rgb(10,0,244)" opacity="1"/>
<rect x="30" y="5" width="2.5" height="2.5" fill="rgb(13,0,241)" opacity="1"/>
<rect x="35" y="5" width="2.5" height="2.5" fill="rgb(14,0,240)" opacity="1"/>
<rect x="40" y="5" width="2.5" height="2.5" fill="rgb(10,0,244)" opacity="1"/>
<rect x="45" y="5" width="2.5" height="2.5" fill="rgb(13,0,241)" opacity="1"/>
<rect x="50" y="5" width="2.5" height="2.5" fill="rgb(15,0,239)" opacity="1"/>
<rect x="55" y="5" width="2.5" height="2.5" fill="rgb(11,0,243)" opacity="1"/>
<rect x="60" y="5" width="2.5" height="2.5" fill="rgb(9,0,245)" opacity="1"/>
<rect x="65" y="5" width="2.5" height="2.5" fill="rgb(8,0,246)" opacity="1"/>
<rect x="70" y="5" width="2.5" height="2.5" fill="rgb(8,0,246)" opacity="1"/>
<rect x="75" y="5" width="2.5" height="2.5" fill="rgb(7,0,247)" opacity="1"/>
<rect x="80" y="5" width="2.5" height="2.5" fill="rgb(11,0,243)" opacity="1"/>
<rect x="85" y="5" width="2.5" height="2.5" fill="rgb(10,0,244)" opacity="1"/>
<rect x="90" y="5" width="2.5" height="2.5" fill="rgb(12,0,242)" opacity="1"/>
<rect x="95" y="5" width="2.5" height="2.5" fill="rgb(11,0,243)" opacity="1"/>
<rect x="100" y="5" width="2.5" height="2.5" fill="rgb(11,0,243)" opacity="1"/>
<rect x="105" y="5" width="2.5" height="2.5" fill="rgb(11,0,243)" opacity="1"/>
<rect x="110" y="5" width="2.5" height="2.5" fill="rgb(14,0,240)" opacity="1"/>
<rect x="115" y="5" width="2.5" height="2.5" fill="rgb(16,0,238)" opacity="1"/>
<rect x="120" y="5" width="2.5" height="2.5" fill="rgb(15,0,239)" opacity="1"/>
<rect x="125" y="5" width="2.5" height="2.5" fill="rgb(19,0,235)" opacity="1"/>
<rect x="130" y="5" width="2.5" height="2.5" fill="rgb(15,0,239)" opacity="1"/>
<rect x="135" y="5" width="2.5" height="2.5" fill="rgb(22,0,232)" opacity="1"/>
<rect x="140" y="5" width="2.5" height="2.5" fill="rgb(30,0,224)" opacity="1"/>
<rect x="145" y="5" width="2.5" height="2.5" fill="rgb(39,0,215)" opacity="1"/>
<rect x="150" y="5" width="2.5" height="2.5" fill="rgb(22,0,232)" opacity="1"/>
<rect x="155" y="5" width="2.5" height="2.5" fill="rgb(15,0,239)" opacity="1"/>
<rect x="160" y="5" width="2.5" height="2.5" fill="rgb(12,0,242)" opacity="1"/>
<rect x="165" y="5" width="2.5" height="2.5" fill="rgb(12,0,242)" opacity="1"/>
<rect x="15" y="10" width="2.5" height="2.5" fill="rgb(30,0,224)" opacity="1"/>
<rect x="20" y="10" width="2.5" height="2.5" fill="rgb(14,0,240)" opacity="1"/>
<rect x="25" y="10" width="2.5" height="2.5" fill="rgb(15,0,239)" opacity="1"/>
<rect x="30" y="10" width="2.5" height="2.5" fill="rgb(13,0,241)" opacity="1"/>
<rect x="35" y="10" width="2.5" height="2.5" fill="rgb(9,0,245)" opacity="1"/>
<rect x="40" y="10" width="2.5" height="2.5" fill="rgb(12,0,242)" opacity="1"/>
<rect x="45" y="10" width="2.5" height="2.5" fill="rgb(10,0,244)" opacity="1"/>
<rect x="50" y="10" width="2.5" height="2.5" fill="rgb(11,0,243)" opacity="1"/>
<rect x="55" y="10" width="2.5" height="2.5" fill="rgb(12,0,242)" opacity="1"/>
<rect x="60" y="10" width="2.5" height="2.5" fill="rgb(10,0,244)" opacity="1"/>
<rect x="65" y="10" width="2.5" height="2.5" fill="rgb(7,0,247)" opacity="1"/>
<rect x="70" y="10" width="2.5" height="2.5" fill="rgb(8,0,246)" opacity="1"/>
<rect x="75" y="10" width="2.5" height="2.5" fill="rgb(8,0,246)" opacity="1"/>
<rect x="80" y="10" width="2.5" height="2.5" fill="rgb(9,0,245)" opacity="1"/>
<rect x="85" y="10" width="2.5" height="2.5" fill="rgb(11,0,243)" opacity="1"/>
<rect x="90" y="10" width="2.5" height="2.5" fill="rgb(12,0,242)" opacity="1"/>
<rect x="95" y="10" width="2.5" height="2.5" fill="rgb(15,0,239)" opacity="1"/>
<rect x="100" y="10" width="2.5" height="2.5" fill="rgb(11,0,243)" opacity="1"/>
<rect x="105" y="10" width="2.5" height="2.5" fill="rgb(13,0,241)" opacity="1"/>
<rect x="110" y="10" width="2.5" height="2.5" fill="rgb(13,0,241)" opacity="1"/>
<rect x="115" y="10" width="2.5" height="2.5" fill="rgb(15,0,239)" opacity="1"/>
<rect x="120" y="10" width="2.5" height="2.5" fill="rgb(16,0,238)" opacity="1"/>
<rect x="125" y="10" width="2.5" height="2.5" fill="rgb(17,0,237)" opacity="1"/>
<rect x="130" y="10" width="2.5" height="2.5" fill="rgb(17,0,237)" opacity="1"/>
<rect x="135" y="10" width="2.5" height="2.5" fill="rgb(17,0,237)" opacity="1"/>
<rect x="140" y="10" width="2.5" height="2.5" fill="rgb(27,0,227)" opacity="1"/>
<rect x="145" y="10" width="2.5" height="2.5" fill="rgb(16,0,238)" opacity="1"/>
<rect x="150" y="10" width="2.5" height="2.5" fill="rgb(39,0,215)" opacity="1"/>
<rect x="155" y="10" width="2.5" height="2.5" fill="rgb(19,0,235)" opacity="1"/>
<rect x="160" y="10" width="2.5" height="2.5" fill="rgb(14,0,240)" opacity="1"/>
<rect x="165" y="10" width="2.5" height="2.5" fill="rgb(14,0,240)" opacity="1"/>
<rect x="20" y="15" width="2.5" height="2.5" fill="rgb(26,0,228)" opacity="1"/>
<rect x="25" y="15" width="2.5" height="2.5" fill="rgb(20,0,234)" opacity="1"/>
<rect x="30" y="15" width="2.5" height="2.5" fill="rgb(13,0,241)" opacity="1"/>
<rect x="35" y="15" width="2.5" height="2.5" fill="rgb(8,0,246)" opacity="1"/>
<rect x="40" y="15" width="2.5" height="2.5" fill="rgb(11,0,243)" opacity="1"/>
<rect x="45" y="15" width="2.5" height="2.5" fill="rgb(11,0,243)" opacity="1"/>
<rect x="50" y="15" width="2.5" height="2.5" fill="rgb(6,0,248)" opacity="1"/>
<rect x="55" y="15" width="2.5" height="2.5" fill="rgb(10,0,244)" opacity="1"/>
<rect x="60" y="15" width="2.5" height="2.5" fill="rgb(16,0,238)" opacity="1"/>
<rect x="65" y="15" width="2.5" height="2.5" fill="rgb(10,0,244)" opacity="1"/>
<rect x="70" y="15" width="2.5" height="2.5" fill="rgb(10,0,244)" opacity="1"/>
<rect x="75" y="15" width="2.5" height="2.5" fill="rgb(5,0,249)" opacity="1"/>
<rect x="80" y="15" width="2.5" height="2.5" fill="rgb(11,0,243)" opacity="1"/>
<rect x="85" y="15" width="2.5" height="2.5" fill="rgb(12,0,242)" opacity="1"/>
<rect x="90" y="15" width="2.5" height="2.5" fill="rgb(8,0,246)" opacity="1"/>
<rect x="95" y="15" width="2.5" height="2.5" fill="rgb(11,0,243)" opacity="1"/>
<rect x="100" y="15" width="2.5" height="2.5" fill="rgb(11,0,243)" opacity="1"/>
<rect x="105" y="15" width="2.5" height="2.5" fill="rgb(12,0,242)" opacity="1"/>
<rect x="110" y="15" width="2.5" height="2.5" fill="rgb(13,0,241)" opacity="1"/>
<rect x="115" y="15" width="2.5" height="2.5" fill="rgb(16,0,238)" opacity="1"/>
<rect x="120" y="15" width="2.5" height="2.5" fill="rgb(17,0,237)" opacity="1"/>
<rect x="125" y="15" width="2.5" height="2.5" fill="rgb(17,0,237)" opacity="1"/>
<rect x="130" y="15" width="2.5" height="2.5" fill="rgb(15,0,239)" opacity="1"/>
<rect x="135" y="15" width="2.5" height="2.5" fill="rgb(14,0,240)" opacity="1"/>
<rect x="140" y="15" width="2.5" height="2.5" fill="rgb(15,0,239)" opacity="1"/>
<rect x="145" y="15" width="2.5" height="2.5" fill="rgb(9,0,245)" opacity="1"/>
<rect x="150" y="15" width="2.5" height="2.5" fill="rgb(23,0,231)" opacity="1"/>
<rect x="155" y="15" width="2.5" height="2.5" fill="rgb(25,0,229)" opacity="1"/>
<rect x="160" y="15" width="2.5" height="2.5" fill="rgb(13,0,241)" opacity="1"/>
<rect x="165" y="15" width="2.5" height="2.5" fill="rgb(13,0,241)" opacity="1"/>
<rect x="25" y="20" width="2.5" height="2.5" fill="rgb(55,0,199)" opacity="1"/>
<rect x="30" y="20" width="2.5" height="2.5" fill="rgb(19,0,235)" opacity="1"/>
<rect x="35" y="20" width="2.5" height="2.5" fill="rgb(8,0,246)" opacity="1"/>
<rect x="40" y="20" width="2.5" height="2.5" fill="rgb(10,0,244)" opacity="1"/>
<rect x="45" y="20" width="2.5" height="2.5" fill="rgb(11,0,243)" opacity="1"/>
<rect x="50" y="20" width="2.5" height="2.5" fill="rgb(10,0,244)" opacity="1"/>
<rect x="55" y="20" width="2.5" height="2.5" fill="rgb(8,0,246)" opacity="1"/>
<rect x="60" y="20" width="2.5" height="2.5" fill="rgb(13,0,241)" opacity="1"/>
<rect x="65" y="20" width="2.5" height="2.5" fill="rgb(12,0,242)" opacity="1"/>
<rect x="70" y="20" width="2.5" height="2.5" fill="rgb(13,0,241)" opacity="1"/>
<rect x="75" y="20" width="2.5" height="2.5" fill="rgb(5,0,249)" opacity="1"/>
<rect x="80" y="20" width="2.5" height="2.5" fill="rgb(9,0,245)" opacity="1"/>
<rect x="85" y="20" width="2.5" height="2.5" fill="rgb(10,0,244)" opacity="1"/>
<rect x="90" y="20" width="2.5" height="2.5" fill="rgb(8,0,246)" opacity="1"/>
<rect x="95" y="20" width="2.5" height="2.5" fill="rgb(12,0,242)" opacity="1"/>
<rect x="100" y="20" width="2.5" height="2.5" fill="rgb(10,0,244)" opacity="1"/>
<rect x="105" y="20" width="2.5" height="2.5" fill="rgb(10,0,244)" opacity="1"/>
<rect x="110" y="20" width="2.5" height="2.5" fill="rgb(19,0,235)" opacity="1"/>
<rect x="115" y="20" width="2.5" height="2.5" fill="rgb(23,0,231)" opacity="1"/>
<rect x="120" y="20" width="2.5" height="2.5" fill="rgb(23,0,231)" opacity="1"/>
<rect x="125" y="20" width="2.5" height="2.5" fill="rgb(17,0,237)" opacity="1"/>
<rect x="130" y="20" width="2.5" height="2.5" fill="rgb(18,0,236)" opacity="1"/>
<rect x="135" y="20" width="2.5" height="2.5" fill="rgb(20,0,234)" opacity="1"/>
<rect x="140" y="20" width="2.5" height="2.5" fill="rgb(15,0,239)" opacity="1"/>
<rect x="145" y="20" width="2.5" height="2.5" fill="rgb(12,0,242)" opacity="1"/>
<rect x="150" y="20" width="2.5" height="2.5" fill="rgb(14,0,240)" opacity="1"/>
<rect x="155" y="20" width="2.5" height="2.5" fill="rgb(15,0,239)" opacity="1"/>
<rect x="160" y="20" width="2.5" height="2.5" fill="rgb(14,0,240)" opacity="1"/>
<rect x="165" y="20" width="2.5" height="2.5" fill="rgb(11,0,243)" opacity="1"/>
<rect x="30" y="25" width="2.5" height="2.5" fill="rgb(44,0,210)" opacity="1"/>
<rect x="35" y="25" width="2.5" height="2.5" fill="rgb(5,0,249)" opacity="1"/>
<rect x="40" y="25" width="2.5" height="2.5" fill="rgb(12,0,242)" opacity="1"/>
<rect x="45" y="25" width="2.5" height="2.5" fill="rgb(10,0,244)" opacity="1"/>
<rect x="50" y="25" width="2.5" height="2.5" fill="rgb(9,0,245)" opacity="1"/>
<rect x="55" y="25" width="2.5" height="2.5" fill="rgb(8,0,246)" opacity="1"/>
<rect x="60" y="25" width="2.5" height="2.5" fill="rgb(10,0,244)" opacity="1"/>
<rect x="65" y="25" width="2.5" height="2.5" fill="rgb(10,0,244)" opacity="1"/>
<rect x="70" y="25" width="2.5" height="2.5" fill="rgb(12,0,242)" opacity="1"/>
<rect x="75" y="25" width="2.5" height="2.5" fill="rgb(5,0,249)" opacity="1"/>
<rect x="80" y="25" width="2.5" height="2.5" fill="rgb(8,0,246)" opacity="1"/>
<rect x="85" y="25" width="2.5" height="2.5" fill="rgb(9,0,245)" opacity="1"/>
<rect x="90" y="25" width="2.5" height="2.5" fill="rgb(8,0,246)" opacity="1"/>
<rect x="95" y="25" width="2.5" height="2.5" fill="rgb(9,0,245)" opacity="1"/>
<rect x="100" y="25" width="2.5" height="2.5" fill="rgb(9,0,245)" opacity="1"/>
<rect x="105" y="25" width="2.5" height="2.5" fill="rgb(8,0,246)" opacity="1"/>
<rect x="110" y="25" width="2.5" height="2.5" fill="rgb(18,0,236)" opacity="1"/>
<rect x="115" y="25" width="2.5" height="2.5" fill="rgb(26,0,228)" opacity="1"/>
<rect x="120" y="25" width="2.5" height="2.5" fill="rgb(27,0,227)" opacity="1"/>
<rect x="125" y="25" width="2.5" height="2.5" fill="rgb(23,0,231)" opacity="1"/>
<rect x="130" y="25" width="2.5" height="2.5" fill="rgb(15,0,239)" opacity="1"/>
<rect x="135" y="25" width="2.5" height="2.5" fill="rgb(14,0,240)" opacity="1"/>
<rect x="140" y="25" width="2.5" height="2.5" fill="rgb(12,0,242)" opacity="1"/>
<rect x="145" y="25" width="2.5" height="2.5" fill="rgb(8,0,246)" opacity="1"/>
<rect x="150" y="25" width="2.5" height="2.5" fill="rgb(13,0,241)" opacity="1"/>
<rect x="155" y="25" width="2.5" height="2.5" fill="rgb(14,0,240)" opacity="1"/>
<rect x="160" y="25" width="2.5" height="2.5" fill="rgb(12,0,242)" opacity="1"/>
<rect x="165" y="25" width="2.5" height="2.5" fill="rgb(8,0,246)" opacity="1"/>
<rect x="35" y="30" width="2.5" height="2.5" fill="rgb(9,0,245)" opacity="1"/>
<rect x="40" y="30" width="2.5" height="2.5" fill="rgb(27,0,227)" opacity="1"/>
<rect x="45" y="30" width="2.5" height="2.5" fill="rgb(12,0,242)" opacity="1"/>
<rect x="50" y="30" width="2.5" height="2.5" fill="rgb(8,0,246)" opacity="1"/>
<rect x="55" y="30" width="2.5" height="2.5" fill="rgb(6,0,248)" opacity="1"/>
<rect x="60" y="30" width="2.5" height="2.5" fill="rgb(7,0,247)" opacity="1"/>
<rect x="65" y="30" width="2.5" height="2.5" fill="rgb(7,0,247)" opacity="1"/>
<rect x="70" y="30" width="2.5" height="2.5" fill="rgb(9,0,245)" opacity="1"/>
<rect x="75" y="30" width="2.5" height="2.5" fill="rgb(7,0,247)" opacity="1"/>
<rect x="80" y="30" width="2.5" height="2.5" fill="rgb(10,0,244)" opacity="1"/>
<rect x="85" y="30" width="2.5" height="2.5" fill="rgb(8,0,246)" opacity="1"/>
<rect x="90" y="30" width="2.5" height="2.5" fill="rgb(9,0,245)" opacity="1"/>
<rect x="95" y="30" width="2.5" height="2.5" fill="rgb(10,0,244)" opacity="1"/>
<rect x="100" y="30" width="2.5" height="2.5" fill="rgb(11,0,243)" opacity="1"/>
<rect x="105" y="30" width="2.5" height="2.5" fill="rgb(10,0,244)" opacity="1"/>
<rect x="110" y="30" width="2.5" height="2.5" fill="rgb(15,0,239)" opacity="1"/>
<rect x="115" y="30" width="2.5" height="2.5" fill="rgb(19,0,235)" opacity="1"/>
<rect x="120" y="30" width="2.5" height="2.5" fill="rgb(21,0,233)" opacity="1"/>
<rect x="125" y="30" width="2.5" height="2.5" fill="rgb(36,0,218)" opacity="1"/>
<rect x="130" y="30" width="2.5" height="2.5" fill="rgb(20,0,234)" opacity="1"/>
<rect x="135" y="30" width="2.5" height="2.5" fill="rgb(14,0,240)" opacity="1"/>
<rect x="140" y="30" width="2.5" height="2.5" fill="rgb(15,0,239)" opacity="1"/>
<rect x="145" y="30" width="2.5" height="2.5" fill="rgb(9,0,245)" opacity="1"/>
<rect x="150" y="30" width="2.5" height="2.5" fill="rgb(14,0,240)" opacity="1"/>
<rect x="155" y="30" width="2.5" height="2.5" fill="rgb(12,0,242)" opacity="1"/>
<rect x="160" y="30" width="2.5" height="2.5" fill="rgb(11,0,243)" opacity="1"/>
<rect x="165" y="30" width="2.5" height="2.5" fill="rgb(10,0,244)" opacity="1"/>
<rect x="40" y="35" width="2.5" height="2.5" fill="rgb(18,0,236)" opacity="1"/>
<rect x="45" y="35" width="2.5" height="2.5" fill="rgb(15,0,239)" opacity="1"/>
<rect x="50" y="35" width="2.5" height="2.5" fill="rgb(14,0,240)" opacity="1"/>
<rect x="55" y="35" width="2.5" height="2.5" fill="rgb(10,0,244)" opacity="1"/>
<rect x="60" y="35" width="2.5" height="2.5" fill="rgb(11,0,243)" opacity="1"/>
<rect x="65" y="35" width="2.5" height="2.5" fill="rgb(12,0,242)" opacity="1"/>
<rect x="70" y="35" width="2.5" height="2.5" fill="rgb(13,0,241)" opacity="1"/>
<rect x="75" y="35" width="2.5" height="2.5" fill="rgb(8,0,246)" opacity="1"/>
<rect x="80" y="35" width="2.5" height="2.5" fill="rgb(13,0,241)" opacity="1"/>
<rect x="85" y="35" width="2.5" height="2.5" fill="rgb(16,0,238)" opacity="1"/>
<rect x="90" y="35" width="2.5" height="2.5" fill="rgb(110,0,144)" opacity="1"/>
<rect x="95" y="35" width="2.5" height="2.5" fill="rgb(14,0,240)" opacity="1"/>
<rect x="100" y="35" width="2.5" height="2.5" fill="rgb(16,0,238)" opacity="1"/>
<rect x="105" y="35" width="2.5" height="2.5" fill="rgb(15,0,239)" opacity="1"/>
<rect x="110" y="35" width="2.5" height="2.5" fill="rgb(16,0,238)" opacity="1"/>
<rect x="115" y="35" width="2.5" height="2.5" fill="rgb(20,0,234)" opacity="1"/>
<rect x="120" y="35" width="2.5" height="2.5" fill="rgb(20,0,234)" opacity="1"/>
<rect x="125" y="35" width="2.5" height="2.5" fill="rgb(19,0,235)" opacity="1"/>
<rect x="130" y="35" width="2.5" height="2.5" fill="rgb(20,0,234)" opacity="1"/>
<rect x="135" y="35" width="2.5" height="2.5" fill="rgb(19,0,235)" opacity="1"/>
<rect x="140" y="35" width="2.5" height="2.5" fill="rgb(19,0,235)" opacity="1"/>
<rect x="145" y="35" width="2.5" height="2.5" fill="rgb(27,0,227)" opacity="1"/>
<rect x="150" y="35" width="2.5" height="2.5" fill="rgb(19,0,235)" opacity="1"/>
<rect x="155" y="35" width="2.5" height="2.5" fill="rgb(18,0,236)" opacity="1"/>
<rect x="160" y="35" width="2.5" height="2.5" fill="rgb(15,0,239)" opacity="1"/>
<rect x="165" y="35" width="2.5" height="2.5" fill="rgb(15,0,239)" opacity="1"/>
<rect x="45" y="40" width="2.5" height="2.5" fill="rgb(40,0,214)" opacity="1"/>
<rect x="50" y="40" width="2.5" height="2.5" fill="rgb(12,0,242)" opacity="1"/>
<rect x="55" y="40" width="2.5" height="2.5" fill="rgb(10,0,244)" opacity="1"/>
<rect x="60" y="40" width="2.5" height="2.5" fill="rgb(9,0,245)" opacity="1"/>
<rect x="65" y="40" width="2.5" height="2.5" fill="rgb(7,0,247)" opacity="1"/>
<rect x="70" y="40" width="2.5" height="2.5" fill="rgb(7,0,247)" opacity="1"/>
<rect x="75" y="40" width="2.5" height="2.5" fill="rgb(5,0,249)" opacity="1"/>
<rect x="80" y="40" width="2.5" height="2.5" fill="rgb(10,0,244)" opacity="1"/>
<rect x="85" y="40" width="2.5" height="2.5" fill="rgb(10,0,244)" opacity="1"/>
<rect x="90" y="40" width="2.5" height="2.5" fill="rgb(14,0,240)" opacity="1"/>
<rect x="95" y="40" width="2.5" height="2.5" fill="rgb(12,0,242)" opacity="1"/>
<rect x="100" y="40" width="2.5" height="2.5" fill="rgb(12,0,242)" opacity="1"/>
<rect x="105" y="40" width="2.5" height="2.5" fill="rgb(14,0,240)" opacity="1"/>
<rect x="110" y="40" width="2.5" height="2.5" fill="rgb(14,0,240)" opacity="1"/>
<rect x="115" y="40" width="2.5" height="2.5" fill="rgb(16,0,238)" opacity="1"/>
<rect x="120" y="40" width="2.5" height="2.5" fill="rgb(15,0,239)" opacity="1"/>
<rect x="125" y="40" width="2.5" height="2.5" fill="rgb(18,0,236)" opacity="1"/>
<rect x="130" y="40" width="2.5" height="2.5" fill="rgb(24,0,230)" opacity="1"/>
<rect x="135" y="40" width="2.5" height="2.5" fill="rgb(15,0,239)" opacity="1"/>
<rect x="140" y="40" width="2.5" height="2.5" fill="rgb(14,0,240)" opacity="1"/>
<rect x="145" y="40" width="2.5" height="2.5" fill="rgb(10,0,244)" opacity="1"/>
<rect x="150" y="40" width="2.5" height="2.5" fill="rgb(12,0,242)" opacity="1"/>
<rect x="155" y="40" width="2.5" height="2.5" fill="rgb(13,0,241)" opacity="1"/>
<rect x="160" y="40" width="2.5" height="2.5" fill="rgb(10,0,244)" opacity="1"/>
<rect x="165" y="40" width="2.5" height="2.5" fill="rgb(12,0,242)" opacity="1"/>
<rect x="50" y="45" width="2.5" height="2.5" fill="rgb(35,0,219)" opacity="1"/>
<rect x="55" y="45" width="2.5" height="2.5" fill="rgb(10,0,244)" opacity="1"/>
<rect x="60" y="45" width="2.5" height="2.5" fill="rgb(10,0,244)" opacity="1"/>
<rect x="65" y="45" width="2.5" height="2.5" fill="rgb(7,0,247)" opacity="1"/>
<rect x="70" y="45" width="2.5" height="2.5" fill="rgb(9,0,245)" opacity="1"/>
<rect x="75" y="45" width="2.5" height="2.5" fill="rgb(6,0,248)" opacity="1"/>
<rect x="80" y="45" width="2.5" height="2.5" fill="rgb(10,0,244)" opacity="1"/>
<rect x="85" y="45" width="2.5" height="2.5" fill="rgb(8,0,246)" opacity="1"/>
<rect x="90" y="45" width="2.5" height="2.5" fill="rgb(9,0,245)" opacity="1"/>
<rect x="95" y="45" width="2.5" height="2.5" fill="rgb(11,0,243)" opacity="1"/>
<rect x="100" y="45" width="2.5" height="2.5" fill="rgb(11,0,243)" opacity="1"/>
<rect x="105" y="45" width="2.5" height="2.5" fill="rgb(13,0,241)" opacity="1"/>
<rect x="110" y="45" width="2.5" height="2.5" fill="rgb(14,0,240)" opacity="1"/>
<rect x="115" y="45" width="2.5" height="2.5" fill="rgb(16,0,238)" opacity="1"/>
<rect x="120" y="45" width="2.5" height="2.5" fill="rgb(16,0,238)" opacity="1"/>
<rect x="125" y="45" width="2.5" height="2.5" fill="rgb(18,0,236)" opacity="1"/>
<rect x="130" y="45" width="2.5" height="2.5" fill="rgb(19,0,235)" opacity="1"/>
<rect x="135" y="45" width="2.5" height="2.5" fill="rgb(16,0,238)" opacity="1"/>
<rect x="140" y="45" width="2.5" height="2.5" fill="rgb(13,0,241)" opacity="1"/>
<rect x="145" y="45" width="2.5" height="2.5" fill="rgb(13,0,241)" opacity="1"/>
<rect x="150" y="45" width="2.5" height="2.5" fill="rgb(15,0,239)" opacity="1"/>
<rect x="155" y="45" width="2.5" height="2.5" fill="rgb(16,0,238)" opacity="1"/>
<rect x="160" y="45" width="2.5" height="2.5" fill="rgb(12,0,242)" opacity="1"/>
<rect x="165" y="45" width="2.5" height="2.5" fill="rgb(13,0,241)" opacity="1"/>
<rect x="55" y="50" width="2.5" height="2.5" fill="rgb(23,0,231)" opacity="1"/>
<rect x="60" y="50" width="2.5" height="2.5" fill="rgb(10,0,244)" opacity="1"/>
<rect x="65" y="50" width="2.5" height="2.5" fill="rgb(7,0,247)" opacity="1"/>
<rect x="70" y="50" width="2.5" height="2.5" fill="rgb(9,0,245)" opacity="1"/>
<rect x="75" y="50" width="2.5" height="2.5" fill="rgb(6,0,248)" opacity="1"/>
<rect x="80" y="50" width="2.5" height="2.5" fill="rgb(11,0,243)" opacity="1"/>
<rect x="85" y="50" width="2.5" height="2.5" fill="rgb(14,0,240)" opacity="1"/>
<rect x="90" y="50" width="2.5" height="2.5" fill="rgb(9,0,245)" opacity="1"/>
<rect x="95" y="50" width="2.5" height="2.5" fill="rgb(13,0,241)" opacity="1"/>
<rect x="100" y="50" width="2.5" height="2.5" fill="rgb(14,0,240)" opacity="1"/>
<rect x="105" y="50" width="2.5" height="2.5" fill="rgb(14,0,240)" opacity="1"/>
<rect x="110" y="50" width="2.5" height="2.5" fill="rgb(12,0,242)" opacity="1"/>
<rect x="115" y="50" width="2.5" height="2.5" fill="rgb(13,0,241)" opacity="1"/>
<rect x="120" y="50" width="2.5" height="2.5" fill="rgb(12,0,242)" opacity="1"/>
<rect x="125" y="50" width="2.5" height="2.5" fill="rgb(18,0,236)" opacity="1"/>
<rect x="130" y="50" width="2.5" height="2.5" fill="rgb(17,0,237)" opacity="1"/>
<rect x="135" y="50" width="2.5" height="2.5" fill="rgb(16,0,238)" opacity="1"/>
<rect x="140" y="50" width="2.5" height="2.5" fill="rgb(16,0,238)" opacity="1"/>
<rect x="145" y="50" width="2.5" height="2.5" fill="rgb(14,0,240)" opacity="1"/>
<rect x="150" y="50" width="2.5" height="2.5" fill="rgb(15,0,239)" opacity="1"/>
<rect x="155" y="50" width="2.5" height="2.5" fill="rgb(13,0,241)" opacity="1"/>
<rect x="160" y="50" width="2.5" height="2.5" fill="rgb(14,0,240)" opacity="1"/>
<rect x="165" y="50" width="2.5" height="2.5" fill="rgb(15,0,239)" opacity="1"/>
<rect x="60" y="55" width="2.5" height="2.5" fill="rgb(20,0,234)" opacity="1"/>
<rect x="65" y="55" width="2.5" height="2.5" fill="rgb(9,0,245)" opacity="1"/>
<rect x="70" y="55" width="2.5" height="2.5" fill="rgb(7,0,247)" opacity="1"/>
<rect x="75" y="55" width="2.5" height="2.5" fill="rgb(8,0,246)" opacity="1"/>
<rect x="80" y="55" width="2.5" height="2.5" fill="rgb(14,0,240)" opacity="1"/>
<rect x="85" y="55" width="2.5" height="2.5" fill="rgb(12,0,242)" opacity="1"/>
<rect x="90" y="55" width="2.5" height="2.5" fill="rgb(10,0,244)" opacity="1"/>
<rect x="95" y="55" width="2.5" height="2.5" fill="rgb(13,0,241)" opacity="1"/>
<rect x="100" y="55" width="2.5" height="2.5" fill="rgb(14,0,240)" opacity="1"/>
<rect x="105" y="55" width="2.5" height="2.5" fill="rgb(12,0,242)" opacity="1"/>
<rect x="110" y="55" width="2.5" height="2.5" fill="rgb(14,0,240)" opacity="1"/>
<rect x="115" y="55" width="2.5" height="2.5" fill="rgb(18,0,236)" opacity="1"/>
<rect x="120" y="55" width="2.5" height="2.5" fill="rgb(15,0,239)" opacity="1"/>
<rect x="125" y="55" width="2.5" height="2.5" fill="rgb(16,0,238)" opacity="1"/>
<rect x="130" y="55" width="2.5" height="2.5" fill="rgb(18,0,236)" opacity="1"/>
<rect x="135" y="55" width="2.5" height="2.5" fill="rgb(16,0,238)" opacity="1"/>
<rect x="140" y="55" width="2.5" height="2.5" fill="rgb(14,0,240)" opacity="1"/>
<rect x="145" y="55" width="2.5" height="2.5" fill="rgb(10,0,244)" opacity="1"/>
<rect x="150" y="55" width="2.5" height="2.5" fill="rgb(17,0,237)" opacity="1"/>
<rect x="155" y="55" width="2.5" height="2.5" fill="rgb(15,0,239)" opacity="1"/>
<rect x="160" y="55" width="2.5" height="2.5" fill="rgb(13,0,241)" opacity="1"/>
<rect x="165" y="55" width="2.5" height="2.5" fill="rgb(13,0,241)" opacity="1"/>
<rect x="65" y="60" width="2.5" height="2.5" fill="rgb(25,0,229)" opacity="1"/>
<rect x="70" y="60" width="2.5" height="2.5" fill="rgb(16,0,238)" opacity="1"/>
<rect x="75" y="60" width="2.5" height="2.5" fill="rgb(7,0,247)" opacity="1"/>
<rect x="80" y="60" width="2.5" height="2.5" fill="rgb(12,0,242)" opacity="1"/>
<rect x="85" y="60" width="2.5" height="2.5" fill="rgb(12,0,242)" opacity="1"/>
<rect x="90" y="60" width="2.5" height="2.5" fill="rgb(10,0,244)" opacity="1"/>
<rect x="95" y="60" width="2.5" height="2.5" fill="rgb(13,0,241)" opacity="1"/>
<rect x="100" y="60" width="2.5" height="2.5" fill="rgb(13,0,241)" opacity="1"/>
<rect x="105" y="60" width="2.5" height="2.5" fill="rgb(13,0,241)" opacity="1"/>
<rect x="110" y="60" width="2.5" height="2.5" fill="rgb(15,0,239)" opacity="1"/>
<rect x="115" y="60" width="2.5" height="2.5" fill="rgb(16,0,238)" opacity="1"/>
<rect x="120" y="60" width="2.5" height="2.5" fill="rgb(17,0,237)" opacity="1"/>
<rect x="125" y="60" width="2.5" height="2.5" fill="rgb(18,0,236)" opacity="1"/>
<rect x="130" y="60" width="2.5" height="2.5" fill="rgb(17,0,237)" opacity="1"/>
<rect x="135" y="60" width="2.5" height="2.5" fill="rgb(17,0,237)" opacity="1"/>
<rect x="140" y="60" width="2.5" height="2.5" fill="rgb(16,0,238)" opacity="1"/>
<rect x="145" y="60" width="2.5" height="2.5" fill="rgb(11,0,243)" opacity="1"/>
<rect x="150" y="60" width="2.5" height="2.5" fill="rgb(15,0,239)" opacity="1"/>
<rect x="155" y="60" width="2.5" height="2.5" fill="rgb(17,0,237)" opacity="1"/>
<rect x="160" y="60" width="2.5" height="2.5" fill="rgb(14,0,240)" opacity="1"/>
<rect x="165" y="60" width="2.5" height="2.5" fill="rgb(14,0,240)" opacity="1"/>
<rect x="70" y="65" width="2.5" height="2.5" fill="rgb(40,0,214)" opacity="1"/>
<rect x="75" y="65" width="2.5" height="2.5" fill="rgb(7,0,247)" opacity="1"/>
<rect x="80" y="65" width="2.5" height="2.5" fill="rgb(13,0,241)" opacity="1"/>
<rect x="85" y="65" width="2.5" height="2.5" fill="rgb(11,0,243)" opacity="1"/>
<rect x="90" y="65" width="2.5" height="2.5" fill="rgb(8,0,246)" opacity="1"/>
<rect x="95" y="65" width="2.5" height="2.5" fill="rgb(13,0,241)" opacity="1"/>
<rect x="100" y="65" width="2.5" height="2.5" fill="rgb(11,0,243)" opacity="1"/>
<rect x="105" y="65" width="2.5" height="2.5" fill="rgb(14,0,240)" opacity="1"/>
<rect x="110" y="65" width="2.5" height="2.5" fill="rgb(15,0,239)" opacity="1"/>
<rect x="115" y="65" width="2.5" height="2.5" fill="rgb(15,0,239)" opacity="1"/>
<rect x="120" y="65" width="2.5" height="2.5" fill="rgb(15,0,239)" opacity="1"/>
<rect x="125" y="65" width="2.5" height="2.5" fill="rgb(19,0,235)" opacity="1"/>
<rect x="130" y="65" width="2.5" height="2.5" fill="rgb(18,0,236)" opacity="1"/>
<rect x="135" y="65" width="2.5" height="2.5" fill="rgb(15,0,239)" opacity="1"/>
<rect x="140" y="65" width="2.5" height="2.5" fill="rgb(14,0,240)" opacity="1"/>
<rect x="145" y="65" width="2.5" height="2.5" fill="rgb(11,0,243)" opacity="1"/>
<rect x="150" y="65" width="2.5" height="2.5" fill="rgb(16,0,238)" opacity="1"/>
<rect x="155" y="65" width="2.5" height="2.5" fill="rgb(17,0,237)" opacity="1"/>
<rect x="160" y="65" width="2.5" height="2.5" fill="rgb(15,0,239)" opacity="1"/>
<rect x="165" y="65" width="2.5" height="2.5" fill="rgb(13,0,241)" opacity="1"/>
<rect x="75" y="70" width="2.5" height="2.5" fill="rgb(9,0,245)" opacity="1"/>
<rect x="80" y="70" width="2.5" height="2.5" fill="rgb(13,0,241)" opacity="1"/>
<rect x="85" y="70" width="2.5" height="2.5" fill="rgb(10,0,244)" opacity="1"/>
<rect x="90" y="70" width="2.5" height="2.5" fill="rgb(11,0,243)" opacity="1"/>
<rect x="95" y="70" width="2.5" height="2.5" fill="rgb(13,0,241)" opacity="1"/>
<rect x="100" y="70" width="2.5" height="2.5" fill="rgb(12,0,242)" opacity="1"/>
<rect x="105" y="70" width="2.5" height="2.5" fill="rgb(13,0,241)" opacity="1"/>
<rect x="110" y="70" width="2.5" height="2.5" fill="rgb(11,0,243)" opacity="1"/>
<rect x="115" y="70" width="2.5" height="2.5" fill="rgb(17,0,237)" opacity="1"/>
<rect x="120" y="70" width="2.5" height="2.5" fill="rgb(17,0,237)" opacity="1"/>
<rect x="125" y="70" width="2.5" height="2.5" fill="rgb(19,0,235)" opacity="1"/>
<rect x="130" y="70" width="2.5" height="2.5" fill="rgb(16,0,238)" opacity="1"/>
<rect x="135" y="70" width="2.5" height="2.5" fill="rgb(16,0,238)" opacity="1"/>
<rect x="140" y="70" width="2.5" height="2.5" fill="rgb(18,0,236)" opacity="1"/>
<rect x="145" y="70" width="2.5" height="2.5" fill="rgb(10,0,244)" opacity="1"/>
<rect x="150" y="70" width="2.5" height="2.5" fill="rgb(14,0,240)" opacity="1"/>
<rect x="155" y="70" width="2.5" height="2.5" fill="rgb(13,0,241)" opacity="1"/>
<rect x="160" y="70" width="2.5" height="2.5" fill="rgb(9,0,245)" opacity="1"/>
<rect x="165" y="70" width="2.5" height="2.5" fill="rgb(16,0,238)" opacity="1"/>
<rect x="80" y="75" width="2.5" height="2.5" fill="rgb(34,0,220)" opacity="1"/>
<rect x="85" y="75" width="2.5" height="2.5" fill="rgb(17,0,237)" opacity="1"/>
<rect x="90" y="75" width="2.5" height="2.5" fill="rgb(13,0,241)" opacity="1"/>
<rect x="95" y="75" width="2.5" height="2.5" fill="rgb(16,0,238)" opacity="1"/>
<rect x="100" y="75" width="2.5" height="2.5" fill="rgb(16,0,238)" opacity="1"/>
<rect x="105" y="75" width="2.5" height="2.5" fill="rgb(16,0,238)" opacity="1"/>
<rect x="110" y="75" width="2.5" height="2.5" fill="rgb(19,0,235)" opacity="1"/>
<rect x="115" y="75" width="2.5" height="2.5" fill="rgb(23,0,231)" opacity="1"/>
<rect x="120" y="75" width="2.5" height="2.5" fill="rgb(23,0,231)" opacity="1"/>
<rect x="125" y="75" width="2.5" height="2.5" fill="rgb(30,0,224)" opacity="1"/>
<rect x="130" y="75" width="2.5" height="2.5" fill="rgb(23,0,231)" opacity="1"/>
<rect x="135" y="75" width="2.5" height="2.5" fill="rgb(18,0,236)" opacity="1"/>
<rect x="140" y="75" width="2.5" height="2.5" fill="rgb(18,0,236)" opacity="1"/>
<rect x="145" y="75" width="2.5" height="2.5" fill="rgb(9,0,245)" opacity="1"/>
<rect x="150" y="75" width="2.5" height="2.5" fill="rgb(22,0,232)" opacity="1"/>
<rect x="155" y="75" width="2.5" height="2.5" fill="rgb(18,0,236)" opacity="1"/>
<rect x="160" y="75" width="2.5" height="2.5" fill="rgb(19,0,235)" opacity="1"/>
<rect x="165" y="75" width="2.5" height="2.5" fill="rgb(27,0,227)" opacity="1"/>
<rect x="85" y="80" width="2.5" height="2.5" fill="rgb(44,0,210)" opacity="1"/>
<rect x="90" y="80" width="2.5" height="2.5" fill="rgb(8,0,246)" opacity="1"/>
<rect x="95" y="80" width="2.5" height="2.5" fill="rgb(23,0,231)" opacity="1"/>
<rect x="100" y="80" width="2.5" height="2.5" fill="rgb(14,0,240)" opacity="1"/>
<rect x="105" y="80" width="2.5" height="2.5" fill="rgb(12,0,242)" opacity="1"/>
<rect x="110" y="80" width="2.5" height="2.5" fill="rgb(13,0,241)" opacity="1"/>
<rect x="115" y="80" width="2.5" height="2.5" fill="rgb(18,0,236)" opacity="1"/>
<rect x="120" y="80" width="2.5" height="2.5" fill="rgb(19,0,235)" opacity="1"/>
<rect x="125" y="80" width="2.5" height="2.5" fill="rgb(28,0,226)" opacity="1"/>
<rect x="130" y="80" width="2.5" height="2.5" fill="rgb(33,0,221)" opacity="1"/>
<rect x="135" y="80" width="2.5" height="2.5" fill="rgb(22,0,232)" opacity="1"/>
<rect x="140" y="80" width="2.5" height="2.5" fill="rgb(19,0,235)" opacity="1"/>
<rect x="145" y="80" width="2.5" height="2.5" fill="rgb(8,0,246)" opacity="1"/>
<rect x="150" y="80" width="2.5" height="2.5" fill="rgb(14,0,240)" opacity="1"/>
<rect x="155" y="80" width="2.5" height="2.5" fill="rgb(13,0,241)" opacity="1"/>
<rect x="160" y="80" width="2.5" height="2.5" fill="rgb(13,0,241)" opacity="1"/>
<rect x="165" y="80" width="2.5" height="2.5" fill="rgb(15,0,239)" opacity="1"/>
<rect x="90" y="85" width="2.5" height="2.5" fill="rgb(9,0,245)" opacity="1"/>
<rect x="95" y="85" width="2.5" height="2.5" fill="rgb(58,0,196)" opacity="1"/>
<rect x="100" y="85" width="2.5" height="2.5" fill="rgb(18,0,236)" opacity="1"/>
<rect x="105" y="85" width="2.5" height="2.5" fill="rgb(15,0,239)" opacity="1"/>
<rect x="110" y="85" width="2.5" height="2.5" fill="rgb(14,0,240)" opacity="1"/>
<rect x="115" y="85" width="2.5" height="2.5" fill="rgb(17,0,237)" opacity="1"/>
<rect x="120" y="85" width="2.5" height="2.5" fill="rgb(16,0,238)" opacity="1"/>
<rect x="125" y="85" width="2.5" height="2.5" fill="rgb(20,0,234)" opacity="1"/>
<rect x="130" y="85" width="2.5" height="2.5" fill="rgb(35,0,219)" opacity="1"/>
<rect x="135" y="85" width="2.5" height="2.5" fill="rgb(33,0,221)" opacity="1"/>
<rect x="140" y="85" width="2.5" height="2.5" fill="rgb(20,0,234)" opacity="1"/>
<rect x="145" y="85" width="2.5" height="2.5" fill="rgb(9,0,245)" opacity="1"/>
<rect x="150" y="85" width="2.5" height="2.5" fill="rgb(18,0,236)" opacity="1"/>
<rect x="155" y="85" width="2.5" height="2.5" fill="rgb(15,0,239)" opacity="1"/>
<rect x="160" y="85" width="2.5" height="2.5" fill="rgb(13,0,241)" opacity="1"/>
<rect x="165" y="85" width="2.5" height="2.5" fill="rgb(13,0,241)" opacity="1"/>
<rect x="95" y="90" width="2.5" height="2.5" fill="rgb(14,0,240)" opacity="1"/>
<rect x="100" y="90" width="2.5" height="2.5" fill="rgb(13,0,241)" opacity="1"/>
<rect x="105" y="90" width="2.5" height="2.5" fill="rgb(15,0,239)" opacity="1"/>
<rect x="110" y="90" width="2.5" height="2.5" fill="rgb(14,0,240)" opacity="1"/>
<rect x="115" y="90" width="2.5" height="2.5" fill="rgb(16,0,238)" opacity="1"/>
<rect x="120" y="90" width="2.5" height="2.5" fill="rgb(18,0,236)" opacity="1"/>
<rect x="125" y="90" width="2.5" height="2.5" fill="rgb(19,0,235)" opacity="1"/>
<rect x="130" y="90" width="2.5" height="2.5" fill="rgb(17,0,237)" opacity="1"/>
<rect x="135" y="90" width="2.5" height="2.5" fill="rgb(17,0,237)" opacity="1"/>
<rect x="140" y="90" width="2.5" height="2.5" fill="rgb(16,0,238)" opacity="1"/>
<rect x="145" y="90" width="2.5" height="2.5" fill="rgb(27,0,227)" opacity="1"/>
<rect x="150" y="90" width="2.5" height="2.5" fill="rgb(16,0,238)" opacity="1"/>
<rect x="155" y="90" width="2.5" height="2.5" fill="rgb(18,0,236)" opacity="1"/>
<rect x="160" y="90" width="2.5" height="2.5" fill="rgb(14,0,240)" opacity="1"/>
<rect x="165" y="90" width="2.5" height="2.5" fill="rgb(12,0,242)" opacity="1"/>
<rect x="100" y="95" width="2.5" height="2.5" fill="rgb(32,0,222)" opacity="1"/>
<rect x="105" y="95" width="2.5" height="2.5" fill="rgb(15,0,239)" opacity="1"/>
<rect x="110" y="95" width="2.5" height="2.5" fill="rgb(16,0,238)" opacity="1"/>
<rect x="115" y="95" width="2.5" height="2.5" fill="rgb(18,0,236)" opacity="1"/>
<rect x="120" y="95" width="2.5" height="2.5" fill="rgb(16,0,238)" opacity="1"/>
<rect x="125" y="95" width="2.5" height="2.5" fill="rgb(21,0,233)" opacity="1"/>
<rect x="130" y="95" width="2.5" height="2.5" fill="rgb(28,0,226)" opacity="1"/>
<rect x="135" y="95" width="2.5" height="2.5" fill="rgb(32,0,222)" opacity="1"/>
<rect x="140" y="95" width="2.5" height="2.5" fill="rgb(28,0,226)" opacity="1"/>
<rect x="145" y="95" width="2.5" height="2.5" fill="rgb(9,0,245)" opacity="1"/>
<rect x="150" y="95" width="2.5" height="2.5" fill="rgb(18,0,236)" opacity="1"/>
<rect x="155" y="95" width="2.5" height="2.5" fill="rgb(14,0,240)" opacity="1"/>
<rect x="160" y="95" width="2.5" height="2.5" fill="rgb(12,0,242)" opacity="1"/>
<rect x="165" y="95" width="2.5" height="2.5" fill="rgb(12,0,242)" opacity="1"/>
<rect x="105" y="100" width="2.5" height="2.5" fill="rgb(33,0,221)" opacity="1"/>
<rect x="110" y="100" width="2.5" height="2.5" fill="rgb(22,0,232)" opacity="1"/>
<rect x="115" y="100" width="2.5" height="2.5" fill="rgb(17,0,237)" opacity="1"/>
<rect x="120" y="100" width="2.5" height="2.5" fill="rgb(18,0,236)" opacity="1"/>
<rect x="125" y="100" width="2.5" height="2.5" fill="rgb(17,0,237)" opacity="1"/>
<rect x="130" y="100" width="2.5" height="2.5" fill="rgb(21,0,233)" opacity="1"/>
<rect x="135" y="100" width="2.5" height="2.5" fill="rgb(21,0,233)" opacity="1"/>
<rect x="140" y="100" width="2.5" height="2.5" fill="rgb(24,0,230)" opacity="1"/>
<rect x="145" y="100" width="2.5" height="2.5" fill="rgb(9,0,245)" opacity="1"/>
<rect x="150" y="100" width="2.5" height="2.5" fill="rgb(27,0,227)" opacity="1"/>
<rect x="155" y="100" width="2.5" height="2.5" fill="rgb(17,0,237)" opacity="1"/>
<rect x="160" y="100" width="2.5" height="2.5" fill="rgb(14,0,240)" opacity="1"/>
<rect x="165" y="100" width="2.5" height="2.5" fill="rgb(15,0,239)" opacity="1"/>
<rect x="110" y="105" width="2.5" height="2.5" fill="rgb(59,0,195)" opacity="1"/>
<rect x="115" y="105" width="2.5" height="2.5" fill="rgb(33,0,221)" opacity="1"/>
<rect x="120" y="105" width="2.5" height="2.5" fill="rgb(34,0,220)" opacity="1"/>
<rect x="125" y="105" width="2.5" height="2.5" fill="rgb(21,0,233)" opacity="1"/>
<rect x="130" y="105" width="2.5" height="2.5" fill="rgb(18,0,236)" opacity="1"/>
<rect x="135" y="105" width="2.5" height="2.5" fill="rgb(16,0,238)" opacity="1"/>
<rect x="140" y="105" width="2.5" height="2.5" fill="rgb(16,0,238)" opacity="1"/>
<rect x="145" y="105" width="2.5" height="2.5" fill="rgb(9,0,245)" opacity="1"/>
<rect x="150" y="105" width="2.5" height="2.5" fill="rgb(22,0,232)" opacity="1"/>
<rect x="155" y="105" width="2.5" height="2.5" fill="rgb(29,0,225)" opacity="1"/>
<rect x="160" y="105" width="2.5" height="2.5" fill="rgb(20,0,234)" opacity="1"/>
<rect x="165" y="105" width="2.5" height="2.5" fill="rgb(14,0,240)" opacity="1"/>
<rect x="115" y="110" width="2.5" height="2.5" fill="rgb(71,0,183)" opacity="1"/>
<rect x="120" y="110" width="2.5" height="2.5" fill="rgb(74,0,180)" opacity="1"/>
<rect x="125" y="110" width="2.5" height="2.5" fill="rgb(30,0,224)" opacity="1"/>
<rect x="130" y="110" width="2.5" height="2.5" fill="rgb(18,0,236)" opacity="1"/>
<rect x="135" y="110" width="2.5" height="2.5" fill="rgb(17,0,237)" opacity="1"/>
<rect x="140" y="110" width="2.5" height="2.5" fill="rgb(15,0,239)" opacity="1"/>
<rect x="145" y="110" width="2.5" height="2.5" fill="rgb(9,0,245)" opacity="1"/>
<rect x="150" y="110" width="2.5" height="2.5" fill="rgb(18,0,236)" opacity="1"/>
<rect x="155" y="110" width="2.5" height="2.5" fill="rgb(28,0,226)" opacity="1"/>
<rect x="160" y="110" width="2.5" height="2.5" fill="rgb(28,0,226)" opacity="1"/>
<rect x="165" y="110" width="2.5" height="2.5" fill="rgb(19,0,235)" opacity="1"/>
<rect x="120" y="115" width="2.5" height="2.5" fill="rgb(255,0,0)" opacity="1"/>
<rect x="125" y="115" width="2.5" height="2.5" fill="rgb(64,0,190)" opacity="1"/>
<rect x="130" y="115" width="2.5" height="2.5" fill="rgb(19,0,235)" opacity="1"/>
<rect x="135" y="115" width="2.5" height="2.5" fill="rgb(16,0,238)" opacity="1"/>
<rect x="140" y="115" width="2.5" height="2.5" fill="rgb(15,0,239)" opacity="1"/>
<rect x="145" y="115" width="2.5" height="2.5" fill="rgb(8,0,246)" opacity="1"/>
<rect x="150" y="115" width="2.5" height="2.5" fill="rgb(16,0,238)" opacity="1"/>
<rect x="155" y="115" width="2.5" height="2.5" fill="rgb(19,0,235)" opacity="1"/>
<rect x="160" y="115" width="2.5" height="2.5" fill="rgb(25,0,229)" opacity="1"/>
<rect x="165" y="115" width="2.5" height="2.5" fill="rgb(27,0,227)" opacity="1"/>
<rect x="125" y="120" width="2.5" height="2.5" fill="rgb(60,0,194)" opacity="1"/>
<rect x="130" y="120" width="2.5" height="2.5" fill="rgb(20,0,234)" opacity="1"/>
<rect x="135" y="120" width="2.5" height="2.5" fill="rgb(13,0,241)" opacity="1"/>
<rect x="140" y="120" width="2.5" height="2.5" fill="rgb(13,0,241)" opacity="1"/>
<rect x="145" y="120" width="2.5" height="2.5" fill="rgb(6,0,248)" opacity="1"/>
<rect x="150" y="120" width="2.5" height="2.5" fill="rgb(15,0,239)" opacity="1"/>
<rect x="155" y="120" width="2.5" height="2.5" fill="rgb(20,0,234)" opacity="1"/>
<rect x="160" y="120" width="2.5" height="2.5" fill="rgb(24,0,230)" opacity="1"/>
<rect x="165" y="120" width="2.5" height="2.5" fill="rgb(27,0,227)" opacity="1"/>
<rect x="130" y="125" width="2.5" height="2.5" fill="rgb(41,0,213)" opacity="1"/>
<rect x="135" y="125" width="2.5" height="2.5" fill="rgb(24,0,230)" opacity="1"/>
<rect x="140" y="125" width="2.5" height="2.5" fill="rgb(15,0,239)" opacity="1"/>
<rect x="145" y="125" width="2.5" height="2.5" fill="rgb(6,0,248)" opacity="1"/>
<rect x="150" y="125" width="2.5" height="2.5" fill="rgb(13,0,241)" opacity="1"/>
<rect x="155" y="125" width="2.5" height="2.5" fill="rgb(14,0,240)" opacity="1"/>
<rect x="160" y="125" width="2.5" height="2.5" fill="rgb(15,0,239)" opacity="1"/>
<rect x="165" y="125" width="2.5" height="2.5" fill="rgb(20,0,234)" opacity="1"/>
<rect x="135" y="130" width="2.5" height="2.5" fill="rgb(70,0,184)" opacity="1"/>
<rect x="140" y="130" width="2.5" height="2.5" fill="rgb(35,0,219)" opacity="1"/>
<rect x="145" y="130" width="2.5" height="2.5" fill="rgb(10,0,244)" opacity="1"/>
<rect x="150" y="130" width="2.5" height="2.5" fill="rgb(18,0,236)" opacity="1"/>
<rect x="155" y="130" width="2.5" height="2.5" fill="rgb(16,0,238)" opacity="1"/>
<rect x="160" y="130" width="2.5" height="2.5" fill="rgb(12,0,242)" opacity="1"/>
<rect x="165" y="130" width="2.5" height="2.5" fill="rgb(10,0,244)" opacity="1"/>
<rect x="140" y="135" width="2.5" height="2.5" fill="rgb(93,0,161)" opacity="1"/>
<rect x="145" y="135" width="2.5" height="2.5" fill="rgb(18,0,236)" opacity="1"/>
<rect x="150" y="135" width="2.5" height="2.5" fill="rgb(28,0,226)" opacity="1"/>
<rect x="155" y="135" width="2.5" height="2.5" fill="rgb(16,0,238)" opacity="1"/>
<rect x="160" y="135" width="2.5" height="2.5" fill="rgb(15,0,239)" opacity="1"/>
<rect x="165" y="135" width="2.5" height="2.5" fill="rgb(11,0,243)" opacity="1"/>
<rect x="145" y="140" width="2.5" height="2.5" fill="rgb(15,0,239)" opacity="1"/>
<rect x="150" y="140" width="2.5" height="2.5" fill="rgb(59,0,195)" opacity="1"/>
<rect x="155" y="140" width="2.5" height="2.5" fill="rgb(22,0,232)" opacity="1"/>
<rect x="160" y="140" width="2.5" height="2.5" fill="rgb(13,0,241)" opacity="1"/>
<rect x="165" y="140" width="2.5" height="2.5" fill="rgb(13,0,241)" opacity="1"/>
<rect x="150" y="145" width="2.5" height="2.5" fill="rgb(17,0,237)" opacity="1"/>
<rect x="155" y="145" width="2.5" height="2.5" fill="rgb(14,0,240)" opacity="1"/>
<rect x="160" y="145" width="2.5" height="2.5" fill="rgb(12,0,242)" opacity="1"/>
<rect x="165" y="145" width="2.5" height="2.5" fill="rgb(12,0,242)" opacity="1"/>
<rect x="155" y="150" width="2.5" height="2.5" fill="rgb(57,0,197)" opacity="1"/>
<rect x="160" y="150" width="2.5" height="2.5" fill="rgb(15,0,239)" opacity="1"/>
<rect x="165" y="150" width="2.5" height="2.5" fill="rgb(12,0,242)" opacity="1"/>
<rect x="160" y="155" width="2.5" height="2.5" fill="rgb(61,0,193)" opacity="1"/>
<rect x="165" y="155" width="2.5" height="2.5" fill="rgb(26,0,228)" opacity="1"/>
<rect x="165" y="160" width="2.5" height="2.5" fill="rgb(67,0,187)" opacity="1"/>
<text x="175" y="5" font-size="5" fill="black">0</text>
<text x="175" y="165" font-size="5" fill="black">34</text>
<polyline points="175,10,175,160" stroke="black" stroke-width="1" fill="none" opacity="1"/>
<text x="5" y="175" font-size="5" fill="black">0</text>
<text x="165" y="175" font-size="5" fill="black">34</text>
<polyline points="10,175,160,175" stroke="black" stroke-width="1" fill="none" opacity="1"/>
</svg>