<?xml version="1.0" standalone="yes"?>
<!-- SVG graphic -->
<svg xmlns='http://www.w3.org/2000/svg' xmlns:xlink='http://www.w3.org/1999/xlink'
width="360px" height="360px" preserveAspectRatio="xMinYMin meet" viewBox="0 0 360 360" version="1.1">
<rect x="180" y="0" width="2.5" height="2.5" fill="rgb(23,0,231)" opacity="1"/>
<rect x="215" y="0" width="2.5" height="2.5" fill="rgb(5,0,249)" opacity="1"/>
<rect x="235" y="0" width="2.5" height="2.5" fill="rgb(24,0,230)" opacity="1"/>
<rect x="180" y="5" width="2.5" height="2.5" fill="rgb(2,0,252)" opacity="1"/>
<rect x="240" y="5" width="2.5" height="2.5" fill="rgb(2,0,252)" opacity="1"/>
<rect x="245" y="5" width="2.5" height="2.5" fill="rgb(2,0,252)" opacity="1"/>
<rect x="290" y="5" width="2.5" height="2.5" fill="rgb(25,0,229)" opacity="1"/>
<rect x="15" y="10" width="2.5" height="2.5" fill="rgb(2,0,252)" opacity="1"/>
<rect x="20" y="10" width="2.5" height="2.5" fill="rgb(1,0,253)" opacity="1"/>
<rect x="85" y="10" width="2.5" height="2.5" fill="rgb(3,0,251)" opacity="1"/>
<rect x="100" y="10" width="2.5" height="2.5" fill="rgb(2,0,252)" opacity="1"/>
<rect x="105" y="10" width="2.5" height="2.5" fill="rgb(3,0,251)" opacity="1"/>
<rect x="230" y="10" width="2.5" height="2.5" fill="rgb(1,0,253)" opacity="1"/>
<rect x="240" y="10" width="2.5" height="2.5" fill="rgb(1,0,253)" opacity="1"/>
<rect x="245" y="10" width="2.5" height="2.5" fill="rgb(1,0,253)" opacity="1"/>
<rect x="335" y="10" width="2.5" height="2.5" fill="rgb(9,0,245)" opacity="1"/>
<rect x="340" y="10" width="2.5" height="2.5" fill="rgb(27,0,227)" opacity="1"/>
<rect x="20" y="15" width="2.5" height="2.5" fill="rgb(34,0,220)" opacity="1"/>
<rect x="25" y="15" width="2.5" height="2.5" fill="rgb(2,0,252)" opacity="1"/>
<rect x="85" y="15" width="2.5" height="2.5" fill="rgb(1,0,253)" opacity="1"/>
<rect x="110" y="15" width="2.5" height="2.5" fill="rgb(3,0,251)" opacity="1"/>
<rect x="120" y="15" width="2.5" height="2.5" fill="rgb(1,0,253)" opacity="1"/>
<rect x="125" y="15" width="2.5" height="2.5" fill="rgb(2,0,252)" opacity="1"/>
<rect x="25" y="20" width="2.5" height="2.5" fill="rgb(4,0,250)" opacity="1"/>
<rect x="30" y="20" width="2.5" height="2.5" fill="rgb(0,0,254)" opacity="1"/>
<rect x="85" y="20" width="2.5" height="2.5" fill="rgb(1,0,253)" opacity="1"/>
<rect x="100" y="20" width="2.5" height="2.5" fill="rgb(1,0,253)" opacity="1"/>
<rect x="105" y="20" width="2.5" height="2.5" fill="rgb(1,0,253)" opacity="1"/>
<rect x="110" y="20" width="2.5" height="2.5" fill="rgb(6,0,248)" opacity="1"/>
<rect x="120" y="20" width="2.5" height="2.5" fill="rgb(2,0,252)" opacity="1"/>
<rect x="125" y="20" width="2.5" height="2.5" fill="rgb(3,0,251)" opacity="1"/>
<rect x="145" y="20" width="2.5" height="2.5" fill="rgb(0,0,254)" opacity="1"/>
<rect x="30" y="25" width="2.5" height="2.5" fill="rgb(5,0,249)" opacity="1"/>
<rect x="35" y="25" width="2.5" height="2.5" fill="rgb(0,0,254)" opacity="1"/>
<rect x="40" y="25" width="2.5" height="2.5" fill="rgb(0,0,254)" opacity="1"/>
<rect x="110" y="25" width="2.5" height="2.5" fill="rgb(6,0,248)" opacity="1"/>
<rect x="120" y="25" width="2.5" height="2.5" fill="rgb(4,0,250)" opacity="1"/>
<rect x="125" y="25" width="2.5" height="2.5" fill="rgb(6,0,248)" opacity="1"/>
<rect x="130" y="25" width="2.5" height="2.5" fill="rgb(2,0,252)" opacity="1"/>
<rect x="35" y="30" width="2.5" height="2.5" fill="rgb(1,0,253)" opacity="1"/>
<rect x="40" y="30" width="2.5" height="2.5" fill="rgb(0,0,254)" opacity="1"/>
<rect x="90" y="30" width="2.5" height="2.5" fill="rgb(0,0,254)" opacity="1"/>
<rect x="110" y="30" width="2.5" height="2.5" fill="rgb(1,0,253)" opacity="1"/>
<rect x="120" y="30" width="2.5" height="2.5" fill="rgb(3,0,251)" opacity="1"/>
<rect x="125" y="30" width="2.5" height="2.5" fill="rgb(2,0,252)" opacity="1"/>
<rect x="130" y="30" width="2.5" height="2.5" fill="rgb(2,0,252)" opacity="1"/>
<rect x="140" y="30" width="2.5" height="2.5" fill="rgb(1,0,253)" opacity="1"/>
<rect x="155" y="30" width="2.5" height="2.5" fill="rgb(0,0,254)" opacity="1"/>
<rect x="40" y="35" width="2.5" height="2.5" fill="rgb(5,0,249)" opacity="1"/>
<rect x="45" y="35" width="2.5" height="2.5" fill="rgb(1,0,253)" opacity="1"/>
<rect x="50" y="35" width="2.5" height="2.5" fill="rgb(1,0,253)" opacity="1"/>
<rect x="130" y="35" width="2.5" height="2.5" fill="rgb(2,0,252)" opacity="1"/>
<rect x="135" y="35" width="2.5" height="2.5" fill="rgb(3,0,251)" opacity="1"/>
<rect x="140" y="35" width="2.5" height="2.5" fill="rgb(2,0,252)" opacity="1"/>
<rect x="145" y="35" width="2.5" height="2.5" fill="rgb(1,0,253)" opacity="1"/>
<rect x="45" y="40" width="2.5" height="2.5" fill="rgb(11,0,243)" opacity="1"/>
<rect x="50" y="40" width="2.5" height="2.5" fill="rgb(11,0,243)" opacity="1"/>
<rect x="120" y="40" width="2.5" height="2.5" fill="rgb(1,0,253)" opacity="1"/>
<rect x="125" y="40" width="2.5" height="2.5" fill="rgb(0,0,254)" opacity="1"/>
<rect x="130" y="40" width="2.5" height="2.5" fill="rgb(2,0,252)" opacity="1"/>
<rect x="135" y="40" width="2.5" height="2.5" fill="rgb(5,0,249)" opacity="1"/>
<rect x="140" y="40" width="2.5" height="2.5" fill="rgb(5,0,249)" opacity="1"/>
<rect x="145" y="40" width="2.5" height="2.5" fill="rgb(7,0,247)" opacity="1"/>
<rect x="50" y="45" width="2.5" height="2.5" fill="rgb(101,0,153)" opacity="1"/>
<rect x="55" y="45" width="2.5" height="2.5" fill="rgb(3,0,251)" opacity="1"/>
<rect x="65" y="45" width="2.5" height="2.5" fill="rgb(1,0,253)" opacity="1"/>
<rect x="135" y="45" width="2.5" height="2.5" fill="rgb(1,0,253)" opacity="1"/>
<rect x="140" y="45" width="2.5" height="2.5" fill="rgb(2,0,252)" opacity="1"/>
<rect x="145" y="45" width="2.5" height="2.5" fill="rgb(6,0,248)" opacity="1"/>
<rect x="55" y="50" width="2.5" height="2.5" fill="rgb(2,0,252)" opacity="1"/>
<rect x="65" y="50" width="2.5" height="2.5" fill="rgb(1,0,253)" opacity="1"/>
<rect x="135" y="50" width="2.5" height="2.5" fill="rgb(1,0,253)" opacity="1"/>
<rect x="140" y="50" width="2.5" height="2.5" fill="rgb(2,0,252)" opacity="1"/>
<rect x="145" y="50" width="2.5" height="2.5" fill="rgb(6,0,248)" opacity="1"/>
<rect x="285" y="50" width="2.5" height="2.5" fill="rgb(1,0,253)" opacity="1"/>
<rect x="65" y="55" width="2.5" height="2.5" fill="rgb(23,0,231)" opacity="1"/>
<rect x="70" y="55" width="2.5" height="2.5" fill="rgb(2,0,252)" opacity="1"/>
<rect x="145" y="55" width="2.5" height="2.5" fill="rgb(2,0,252)" opacity="1"/>
<rect x="150" y="55" width="2.5" height="2.5" fill="rgb(6,0,248)" opacity="1"/>
<rect x="160" y="55" width="2.5" height="2.5" fill="rgb(2,0,252)" opacity="1"/>
<rect x="300" y="55" width="2.5" height="2.5" fill="rgb(1,0,253)" opacity="1"/>
<rect x="305" y="55" width="2.5" height="2.5" fill="rgb(1,0,253)" opacity="1"/>
<rect x="85" y="60" width="2.5" height="2.5" fill="rgb(1,0,253)" opacity="1"/>
<rect x="115" y="60" width="2.5" height="2.5" fill="rgb(23,0,231)" opacity="1"/>
<rect x="165" y="60" width="2.5" height="2.5" fill="rgb(2,0,252)" opacity="1"/>
<rect x="245" y="60" width="2.5" height="2.5" fill="rgb(0,0,254)" opacity="1"/>
<rect x="250" y="60" width="2.5" height="2.5" fill="rgb(2,0,252)" opacity="1"/>
<rect x="255" y="60" width="2.5" height="2.5" fill="rgb(1,0,253)" opacity="1"/>
<rect x="70" y="65" width="2.5" height="2.5" fill="rgb(14,0,240)" opacity="1"/>
<rect x="75" y="65" width="2.5" height="2.5" fill="rgb(2,0,252)" opacity="1"/>
<rect x="145" y="65" width="2.5" height="2.5" fill="rgb(2,0,252)" opacity="1"/>
<rect x="150" y="65" width="2.5" height="2.5" fill="rgb(7,0,247)" opacity="1"/>
<rect x="155" y="65" width="2.5" height="2.5" fill="rgb(3,0,251)" opacity="1"/>
<rect x="160" y="65" width="2.5" height="2.5" fill="rgb(7,0,247)" opacity="1"/>
<rect x="305" y="65" width="2.5" height="2.5" fill="rgb(1,0,253)" opacity="1"/>
<rect x="75" y="70" width="2.5" height="2.5" fill="rgb(26,0,228)" opacity="1"/>
<rect x="90" y="70" width="2.5" height="2.5" fill="rgb(4,0,250)" opacity="1"/>
<rect x="95" y="70" width="2.5" height="2.5" fill="rgb(1,0,253)" opacity="1"/>
<rect x="150" y="70" width="2.5" height="2.5" fill="rgb(7,0,247)" opacity="1"/>
<rect x="155" y="70" width="2.5" height="2.5" fill="rgb(11,0,243)" opacity="1"/>
<rect x="160" y="70" width="2.5" height="2.5" fill="rgb(20,0,234)" opacity="1"/>
<rect x="325" y="70" width="2.5" height="2.5" fill="rgb(5,0,249)" opacity="1"/>
<rect x="330" y="70" width="2.5" height="2.5" fill="rgb(1,0,253)" opacity="1"/>
<rect x="90" y="75" width="2.5" height="2.5" fill="rgb(9,0,245)" opacity="1"/>
<rect x="95" y="75" width="2.5" height="2.5" fill="rgb(5,0,249)" opacity="1"/>
<rect x="150" y="75" width="2.5" height="2.5" fill="rgb(3,0,251)" opacity="1"/>
<rect x="155" y="75" width="2.5" height="2.5" fill="rgb(15,0,239)" opacity="1"/>
<rect x="160" y="75" width="2.5" height="2.5" fill="rgb(12,0,242)" opacity="1"/>
<rect x="325" y="75" width="2.5" height="2.5" fill="rgb(18,0,236)" opacity="1"/>
<rect x="330" y="75" width="2.5" height="2.5" fill="rgb(4,0,250)" opacity="1"/>
<rect x="195" y="80" width="2.5" height="2.5" fill="rgb(6,0,248)" opacity="1"/>
<rect x="200" y="80" width="2.5" height="2.5" fill="rgb(17,0,237)" opacity="1"/>
<rect x="205" y="80" width="2.5" height="2.5" fill="rgb(1,0,253)" opacity="1"/>
<rect x="295" y="80" width="2.5" height="2.5" fill="rgb(0,0,254)" opacity="1"/>
<rect x="300" y="80" width="2.5" height="2.5" fill="rgb(1,0,253)" opacity="1"/>
<rect x="305" y="80" width="2.5" height="2.5" fill="rgb(2,0,252)" opacity="1"/>
<rect x="230" y="85" width="2.5" height="2.5" fill="rgb(2,0,252)" opacity="1"/>
<rect x="240" y="85" width="2.5" height="2.5" fill="rgb(4,0,250)" opacity="1"/>
<rect x="245" y="85" width="2.5" height="2.5" fill="rgb(3,0,251)" opacity="1"/>
<rect x="250" y="85" width="2.5" height="2.5" fill="rgb(9,0,245)" opacity="1"/>
<rect x="255" y="85" width="2.5" height="2.5" fill="rgb(8,0,246)" opacity="1"/>
<rect x="340" y="85" width="2.5" height="2.5" fill="rgb(1,0,253)" opacity="1"/>
<rect x="95" y="90" width="2.5" height="2.5" fill="rgb(25,0,229)" opacity="1"/>
<rect x="100" y="90" width="2.5" height="2.5" fill="rgb(9,0,245)" opacity="1"/>
<rect x="105" y="90" width="2.5" height="2.5" fill="rgb(5,0,249)" opacity="1"/>
<rect x="110" y="90" width="2.5" height="2.5" fill="rgb(1,0,253)" opacity="1"/>
<rect x="120" y="90" width="2.5" height="2.5" fill="rgb(1,0,253)" opacity="1"/>
<rect x="125" y="90" width="2.5" height="2.5" fill="rgb(1,0,253)" opacity="1"/>
<rect x="130" y="90" width="2.5" height="2.5" fill="rgb(1,0,253)" opacity="1"/>
<rect x="135" y="90" width="2.5" height="2.5" fill="rgb(1,0,253)" opacity="1"/>
<rect x="140" y="90" width="2.5" height="2.5" fill="rgb(1,0,253)" opacity="1"/>
<rect x="145" y="90" width="2.5" height="2.5" fill="rgb(1,0,253)" opacity="1"/>
<rect x="150" y="90" width="2.5" height="2.5" fill="rgb(7,0,247)" opacity="1"/>
<rect x="155" y="90" width="2.5" height="2.5" fill="rgb(27,0,227)" opacity="1"/>
<rect x="160" y="90" width="2.5" height="2.5" fill="rgb(15,0,239)" opacity="1"/>
<rect x="325" y="90" width="2.5" height="2.5" fill="rgb(3,0,251)" opacity="1"/>
<rect x="330" y="90" width="2.5" height="2.5" fill="rgb(2,0,252)" opacity="1"/>
<rect x="335" y="90" width="2.5" height="2.5" fill="rgb(1,0,253)" opacity="1"/>
<rect x="100" y="95" width="2.5" height="2.5" fill="rgb(19,0,235)" opacity="1"/>
<rect x="105" y="95" width="2.5" height="2.5" fill="rgb(10,0,244)" opacity="1"/>
<rect x="110" y="95" width="2.5" height="2.5" fill="rgb(0,0,254)" opacity="1"/>
<rect x="120" y="95" width="2.5" height="2.5" fill="rgb(1,0,253)" opacity="1"/>
<rect x="125" y="95" width="2.5" height="2.5" fill="rgb(1,0,253)" opacity="1"/>
<rect x="130" y="95" width="2.5" height="2.5" fill="rgb(1,0,253)" opacity="1"/>
<rect x="135" y="95" width="2.5" height="2.5" fill="rgb(1,0,253)" opacity="1"/>
<rect x="140" y="95" width="2.5" height="2.5" fill="rgb(1,0,253)" opacity="1"/>
<rect x="150" y="95" width="2.5" height="2.5" fill="rgb(1,0,253)" opacity="1"/>
<rect x="155" y="95" width="2.5" height="2.5" fill="rgb(6,0,248)" opacity="1"/>
<rect x="160" y="95" width="2.5" height="2.5" fill="rgb(4,0,250)" opacity="1"/>
<rect x="325" y="95" width="2.5" height="2.5" fill="rgb(3,0,251)" opacity="1"/>
<rect x="330" y="95" width="2.5" height="2.5" fill="rgb(7,0,247)" opacity="1"/>
<rect x="335" y="95" width="2.5" height="2.5" fill="rgb(5,0,249)" opacity="1"/>
<rect x="340" y="95" width="2.5" height="2.5" fill="rgb(1,0,253)" opacity="1"/>
<rect x="105" y="100" width="2.5" height="2.5" fill="rgb(41,0,213)" opacity="1"/>
<rect x="110" y="100" width="2.5" height="2.5" fill="rgb(1,0,253)" opacity="1"/>
<rect x="120" y="100" width="2.5" height="2.5" fill="rgb(2,0,252)" opacity="1"/>
<rect x="125" y="100" width="2.5" height="2.5" fill="rgb(2,0,252)" opacity="1"/>
<rect x="130" y="100" width="2.5" height="2.5" fill="rgb(1,0,253)" opacity="1"/>
<rect x="135" y="100" width="2.5" height="2.5" fill="rgb(2,0,252)" opacity="1"/>
<rect x="140" y="100" width="2.5" height="2.5" fill="rgb(1,0,253)" opacity="1"/>
<rect x="145" y="100" width="2.5" height="2.5" fill="rgb(1,0,253)" opacity="1"/>
<rect x="150" y="100" width="2.5" height="2.5" fill="rgb(1,0,253)" opacity="1"/>
<rect x="155" y="100" width="2.5" height="2.5" fill="rgb(3,0,251)" opacity="1"/>
<rect x="160" y="100" width="2.5" height="2.5" fill="rgb(1,0,253)" opacity="1"/>
<rect x="330" y="100" width="2.5" height="2.5" fill="rgb(1,0,253)" opacity="1"/>
<rect x="335" y="100" width="2.5" height="2.5" fill="rgb(2,0,252)" opacity="1"/>
<rect x="340" y="100" width="2.5" height="2.5" fill="rgb(2,0,252)" opacity="1"/>
<rect x="110" y="105" width="2.5" height="2.5" fill="rgb(2,0,252)" opacity="1"/>
<rect x="120" y="105" width="2.5" height="2.5" fill="rgb(1,0,253)" opacity="1"/>
<rect x="125" y="105" width="2.5" height="2.5" fill="rgb(2,0,252)" opacity="1"/>
<rect x="130" y="105" width="2.5" height="2.5" fill="rgb(1,0,253)" opacity="1"/>
<rect x="135" y="105" width="2.5" height="2.5" fill="rgb(1,0,253)" opacity="1"/>
<rect x="140" y="105" width="2.5" height="2.5" fill="rgb(1,0,253)" opacity="1"/>
<rect x="145" y="105" width="2.5" height="2.5" fill="rgb(1,0,253)" opacity="1"/>
<rect x="150" y="105" width="2.5" height="2.5" fill="rgb(1,0,253)" opacity="1"/>
<rect x="155" y="105" width="2.5" height="2.5" fill="rgb(2,0,252)" opacity="1"/>
<rect x="160" y="105" width="2.5" height="2.5" fill="rgb(1,0,253)" opacity="1"/>
<rect x="335" y="105" width="2.5" height="2.5" fill="rgb(2,0,252)" opacity="1"/>
<rect x="340" y="105" width="2.5" height="2.5" fill="rgb(2,0,252)" opacity="1"/>
<rect x="120" y="110" width="2.5" height="2.5" fill="rgb(28,0,226)" opacity="1"/>
<rect x="125" y="110" width="2.5" height="2.5" fill="rgb(45,0,209)" opacity="1"/>
<rect x="130" y="110" width="2.5" height="2.5" fill="rgb(5,0,249)" opacity="1"/>
<rect x="135" y="110" width="2.5" height="2.5" fill="rgb(2,0,252)" opacity="1"/>
<rect x="140" y="110" width="2.5" height="2.5" fill="rgb(1,0,253)" opacity="1"/>
<rect x="145" y="110" width="2.5" height="2.5" fill="rgb(1,0,253)" opacity="1"/>
<rect x="150" y="110" width="2.5" height="2.5" fill="rgb(1,0,253)" opacity="1"/>
<rect x="155" y="110" width="2.5" height="2.5" fill="rgb(1,0,253)" opacity="1"/>
<rect x="160" y="110" width="2.5" height="2.5" fill="rgb(1,0,253)" opacity="1"/>
<rect x="165" y="115" width="2.5" height="2.5" fill="rgb(24,0,230)" opacity="1"/>
<rect x="170" y="115" width="2.5" height="2.5" fill="rgb(3,0,251)" opacity="1"/>
<rect x="250" y="115" width="2.5" height="2.5" fill="rgb(1,0,253)" opacity="1"/>
<rect x="255" y="115" width="2.5" height="2.5" fill="rgb(1,0,253)" opacity="1"/>
<rect x="125" y="120" width="2.5" height="2.5" fill="rgb(44,0,210)" opacity="1"/>
<rect x="130" y="120" width="2.5" height="2.5" fill="rgb(20,0,234)" opacity="1"/>
<rect x="135" y="120" width="2.5" height="2.5" fill="rgb(5,0,249)" opacity="1"/>
<rect x="140" y="120" width="2.5" height="2.5" fill="rgb(4,0,250)" opacity="1"/>
<rect x="145" y="120" width="2.5" height="2.5" fill="rgb(2,0,252)" opacity="1"/>
<rect x="150" y="120" width="2.5" height="2.5" fill="rgb(1,0,253)" opacity="1"/>
<rect x="155" y="120" width="2.5" height="2.5" fill="rgb(1,0,253)" opacity="1"/>
<rect x="160" y="120" width="2.5" height="2.5" fill="rgb(1,0,253)" opacity="1"/>
<rect x="130" y="125" width="2.5" height="2.5" fill="rgb(9,0,245)" opacity="1"/>
<rect x="135" y="125" width="2.5" height="2.5" fill="rgb(3,0,251)" opacity="1"/>
<rect x="140" y="125" width="2.5" height="2.5" fill="rgb(2,0,252)" opacity="1"/>
<rect x="145" y="125" width="2.5" height="2.5" fill="rgb(1,0,253)" opacity="1"/>
<rect x="150" y="125" width="2.5" height="2.5" fill="rgb(1,0,253)" opacity="1"/>
<rect x="155" y="125" width="2.5" height="2.5" fill="rgb(1,0,253)" opacity="1"/>
<rect x="160" y="125" width="2.5" height="2.5" fill="rgb(0,0,254)" opacity="1"/>
<rect x="135" y="130" width="2.5" height="2.5" fill="rgb(24,0,230)" opacity="1"/>
<rect x="140" y="130" width="2.5" height="2.5" fill="rgb(12,0,242)" opacity="1"/>
<rect x="145" y="130" width="2.5" height="2.5" fill="rgb(2,0,252)" opacity="1"/>
<rect x="150" y="130" width="2.5" height="2.5" fill="rgb(1,0,253)" opacity="1"/>
<rect x="155" y="130" width="2.5" height="2.5" fill="rgb(1,0,253)" opacity="1"/>
<rect x="160" y="130" width="2.5" height="2.5" fill="rgb(1,0,253)" opacity="1"/>
<rect x="140" y="135" width="2.5" height="2.5" fill="rgb(45,0,209)" opacity="1"/>
<rect x="145" y="135" width="2.5" height="2.5" fill="rgb(9,0,245)" opacity="1"/>
<rect x="150" y="135" width="2.5" height="2.5" fill="rgb(1,0,253)" opacity="1"/>
<rect x="155" y="135" width="2.5" height="2.5" fill="rgb(1,0,253)" opacity="1"/>
<rect x="160" y="135" width="2.5" height="2.5" fill="rgb(1,0,253)" opacity="1"/>
<rect x="145" y="140" width="2.5" height="2.5" fill="rgb(21,0,233)" opacity="1"/>
<rect x="150" y="140" width="2.5" height="2.5" fill="rgb(2,0,252)" opacity="1"/>
<rect x="155" y="140" width="2.5" height="2.5" fill="rgb(1,0,253)" opacity="1"/>
<rect x="160" y="140" width="2.5" height="2.5" fill="rgb(1,0,253)" opacity="1"/>
<rect x="150" y="145" width="2.5" height="2.5" fill="rgb(7,0,247)" opacity="1"/>
<rect x="155" y="145" width="2.5" height="2.5" fill="rgb(1,0,253)" opacity="1"/>
<rect x="160" y="145" width="2.5" height="2.5" fill="rgb(2,0,252)" opacity="1"/>
<rect x="155" y="150" width="2.5" height="2.5" fill="rgb(23,0,231)" opacity="1"/>
<rect x="160" y="150" width="2.5" height="2.5" fill="rgb(36,0,218)" opacity="1"/>
<rect x="160" y="155" width="2.5" height="2.5" fill="rgb(48,0,206)" opacity="1"/>
<rect x="325" y="155" width="2.5" height="2.5" fill="rgb(2,0,252)" opacity="1"/>
<rect x="330" y="155" width="2.5" height="2.5" fill="rgb(0,0,254)" opacity="1"/>
<rect x="325" y="160" width="2.5" height="2.5" fill="rgb(2,0,252)" opacity="1"/>
<rect x="170" y="165" width="2.5" height="2.5" fill="rgb(25,0,229)" opacity="1"/>
<rect x="175" y="165" width="2.5" height="2.5" fill="rgb(1,0,253)" opacity="1"/>
<rect x="175" y="170" width="2.5" height="2.5" fill="rgb(10,0,244)" opacity="1"/>
<rect x="185" y="175" width="2.5" height="2.5" fill="rgb(2,0,252)" opacity="1"/>
<rect x="235" y="180" width="2.5" height="2.5" fill="rgb(255,0,0)" opacity="1"/>
<rect x="290" y="180" width="2.5" height="2.5" fill="rgb(34,0,220)" opacity="1"/>
<rect x="190" y="185" width="2.5" height="2.5" fill="rgb(48,0,206)" opacity="1"/>
<rect x="195" y="185" width="2.5" height="2.5" fill="rgb(3,0,251)" opacity="1"/>
<rect x="195" y="190" width="2.5" height="2.5" fill="rgb(13,0,241)" opacity="1"/>
<rect x="295" y="195" width="2.5" height="2.5" fill="rgb(1,0,253)" opacity="1"/>
<rect x="300" y="195" width="2.5" height="2.5" fill="rgb(1,0,253)" opacity="1"/>
<rect x="205" y="200" width="2.5" height="2.5" fill="rgb(23,0,231)" opacity="1"/>
<rect x="210" y="200" width="2.5" height="2.5" fill="rgb(6,0,248)" opacity="1"/>
<rect x="215" y="200" width="2.5" height="2.5" fill="rgb(1,0,253)" opacity="1"/>
<rect x="300" y="200" width="2.5" height="2.5" fill="rgb(0,0,254)" opacity="1"/>
<rect x="305" y="200" width="2.5" height="2.5" fill="rgb(2,0,252)" opacity="1"/>
<rect x="210" y="205" width="2.5" height="2.5" fill="rgb(80,0,174)" opacity="1"/>
<rect x="215" y="205" width="2.5" height="2.5" fill="rgb(12,0,242)" opacity="1"/>
<rect x="305" y="205" width="2.5" height="2.5" fill="rgb(2,0,252)" opacity="1"/>
<rect x="215" y="210" width="2.5" height="2.5" fill="rgb(41,0,213)" opacity="1"/>
<rect x="305" y="210" width="2.5" height="2.5" fill="rgb(1,0,253)" opacity="1"/>
<rect x="310" y="210" width="2.5" height="2.5" fill="rgb(0,0,254)" opacity="1"/>
<rect x="315" y="210" width="2.5" height="2.5" fill="rgb(1,0,253)" opacity="1"/>
<rect x="305" y="215" width="2.5" height="2.5" fill="rgb(1,0,253)" opacity="1"/>
<rect x="310" y="215" width="2.5" height="2.5" fill="rgb(1,0,253)" opacity="1"/>
<rect x="315" y="215" width="2.5" height="2.5" fill="rgb(1,0,253)" opacity="1"/>
<rect x="225" y="220" width="2.5" height="2.5" fill="rgb(7,0,247)" opacity="1"/>
<rect x="310" y="220" width="2.5" height="2.5" fill="rgb(0,0,254)" opacity="1"/>
<rect x="320" y="220" width="2.5" height="2.5" fill="rgb(16,0,238)" opacity="1"/>
<rect x="230" y="225" width="2.5" height="2.5" fill="rgb(8,0,246)" opacity="1"/>
<rect x="240" y="230" width="2.5" height="2.5" fill="rgb(17,0,237)" opacity="1"/>
<rect x="245" y="230" width="2.5" height="2.5" fill="rgb(22,0,232)" opacity="1"/>
<rect x="250" y="230" width="2.5" height="2.5" fill="rgb(2,0,252)" opacity="1"/>
<rect x="255" y="230" width="2.5" height="2.5" fill="rgb(1,0,253)" opacity="1"/>
<rect x="335" y="230" width="2.5" height="2.5" fill="rgb(1,0,253)" opacity="1"/>
<rect x="340" y="230" width="2.5" height="2.5" fill="rgb(2,0,252)" opacity="1"/>
<rect x="290" y="235" width="2.5" height="2.5" fill="rgb(35,0,219)" opacity="1"/>
<rect x="245" y="240" width="2.5" height="2.5" fill="rgb(95,0,159)" opacity="1"/>
<rect x="250" y="240" width="2.5" height="2.5" fill="rgb(3,0,251)" opacity="1"/>
<rect x="255" y="240" width="2.5" height="2.5" fill="rgb(2,0,252)" opacity="1"/>
<rect x="340" y="240" width="2.5" height="2.5" fill="rgb(2,0,252)" opacity="1"/>
<rect x="250" y="245" width="2.5" height="2.5" fill="rgb(3,0,251)" opacity="1"/>
<rect x="255" y="245" width="2.5" height="2.5" fill="rgb(1,0,253)" opacity="1"/>
<rect x="340" y="245" width="2.5" height="2.5" fill="rgb(1,0,253)" opacity="1"/>
<rect x="255" y="250" width="2.5" height="2.5" fill="rgb(56,0,198)" opacity="1"/>
<rect x="260" y="250" width="2.5" height="2.5" fill="rgb(2,0,252)" opacity="1"/>
<rect x="265" y="250" width="2.5" height="2.5" fill="rgb(2,0,252)" opacity="1"/>
<rect x="340" y="250" width="2.5" height="2.5" fill="rgb(0,0,254)" opacity="1"/>
<rect x="260" y="255" width="2.5" height="2.5" fill="rgb(2,0,252)" opacity="1"/>
<rect x="265" y="255" width="2.5" height="2.5" fill="rgb(2,0,252)" opacity="1"/>
<rect x="265" y="260" width="2.5" height="2.5" fill="rgb(155,0,99)" opacity="1"/>
<rect x="270" y="260" width="2.5" height="2.5" fill="rgb(7,0,247)" opacity="1"/>
<rect x="270" y="265" width="2.5" height="2.5" fill="rgb(7,0,247)" opacity="1"/>
<rect x="275" y="270" width="2.5" height="2.5" fill="rgb(1,0,253)" opacity="1"/>
<rect x="285" y="280" width="2.5" height="2.5" fill="rgb(5,0,249)" opacity="1"/>
<rect x="295" y="280" width="2.5" height="2.5" fill="rgb(1,0,253)" opacity="1"/>
<rect x="295" y="285" width="2.5" height="2.5" fill="rgb(49,0,205)" opacity="1"/>
<rect x="300" y="285" width="2.5" height="2.5" fill="rgb(8,0,246)" opacity="1"/>
<rect x="300" y="295" width="2.5" height="2.5" fill="rgb(28,0,226)" opacity="1"/>
<rect x="305" y="295" width="2.5" height="2.5" fill="rgb(0,0,254)" opacity="1"/>
<rect x="305" y="300" width="2.5" height="2.5" fill="rgb(2,0,252)" opacity="1"/>
<rect x="310" y="305" width="2.5" height="2.5" fill="rgb(22,0,232)" opacity="1"/>
<rect x="315" y="305" width="2.5" height="2.5" fill="rgb(26,0,228)" opacity="1"/>
<rect x="315" y="310" width="2.5" height="2.5" fill="rgb(112,0,142)" opacity="1"/>
<rect x="320" y="310" width="2.5" height="2.5" fill="rgb(10,0,244)" opacity="1"/>
<rect x="320" y="315" width="2.5" height="2.5" fill="rgb(9,0,245)" opacity="1"/>
<rect x="330" y="325" width="2.5" height="2.5" fill="rgb(18,0,236)" opacity="1"/>
<rect x="335" y="325" width="2.5" height="2.5" fill="rgb(1,0,253)" opacity="1"/>
<rect x="335" y="330" width="2.5" height="2.5" fill="rgb(13,0,241)" opacity="1"/>
<rect x="340" y="330" width="2.5" height="2.5" fill="rgb(3,0,251)" opacity="1"/>
<rect x="340" y="335" width="2.5" height="2.5" fill="rgb(37,0,217)" opacity="1"/>
<text x="350" y="5" font-size="5" fill="black">0</text>
<text x="350" y="340" font-size="5" fill="black">69</text>
<polyline points="350,10,350,335" stroke="black" stroke-width="1" fill="none" opacity="1"/>
<text x="5" y="350" font-size="5" fill="black">0</text>
<text x="340" y="350" font-size="5" fill="black">69</text>
<polyline points="10,350,335,350" stroke="black" stroke-width="1" fill="none" opacity="1"/>
</svg>